Istok Web-Bold.ufo
<glyph name="exclam" format="1">
  <advance width="326"/>
  <unicode hex="0021"/>
  <outline>
    <contour>
      <point x="125" y="700" type="line" smooth="yes"/>
      <point x="102" y="700"/>
      <point x="90" y="688"/>
      <point x="91" y="664" type="curve" smooth="yes"/>
      <point x="104" y="237" type="line" smooth="yes"/>
      <point x="105" y="216"/>
      <point x="114" y="205"/>
      <point x="136" y="205" type="curve" smooth="yes"/>
      <point x="192" y="205" type="line" smooth="yes"/>
      <point x="213" y="205"/>
      <point x="223" y="216"/>
      <point x="224" y="237" type="curve" smooth="yes"/>
      <point x="237" y="664" type="line" smooth="yes"/>
      <point x="238" y="688"/>
      <point x="227" y="700"/>
      <point x="203" y="700" type="curve" smooth="yes"/>
    </contour>
    <contour>
      <point x="93" y="37" type="line" smooth="yes"/>
      <point x="93" y="12"/>
      <point x="104" y="0"/>
      <point x="127" y="0" type="curve" smooth="yes"/>
      <point x="201" y="0" type="line" smooth="yes"/>
      <point x="224" y="0"/>
      <point x="235" y="12"/>
      <point x="235" y="37" type="curve" smooth="yes"/>
      <point x="235" y="102" type="line" smooth="yes"/>
      <point x="235" y="127"/>
      <point x="224" y="139"/>
      <point x="201" y="139" type="curve" smooth="yes"/>
      <point x="127" y="139" type="line" smooth="yes"/>
      <point x="104" y="139"/>
      <point x="93" y="127"/>
      <point x="93" y="102" type="curve" smooth="yes"/>
    </contour>
  </outline>
</glyph>
<glyph name="numbersign" format="1">
  <advance width="691"/>
  <unicode hex="0023"/>
  <outline>
    <contour>
      <point x="42" y="192" type="line"/>
      <point x="41" y="190"/>
      <point x="41" y="188"/>
      <point x="41" y="186" type="curve" smooth="yes"/>
      <point x="41" y="174"/>
      <point x="50" y="168"/>
      <point x="67" y="168" type="curve" smooth="yes"/>
      <point x="155" y="168" type="line"/>
      <point x="129" y="20" type="line"/>
      <point x="129" y="7"/>
      <point x="136" y="0"/>
      <point x="149" y="0" type="curve" smooth="yes"/>
      <point x="191" y="0" type="line" smooth="yes"/>
      <point x="208" y="0"/>
      <point x="217" y="10"/>
      <point x="221" y="29" type="curve" smooth="yes"/>
      <point x="246" y="168" type="line"/>
      <point x="391" y="168" type="line"/>
      <point x="367" y="29" type="line" smooth="yes"/>
      <point x="366" y="26"/>
      <point x="366" y="23"/>
      <point x="366" y="19" type="curve" smooth="yes"/>
      <point x="366" y="6"/>
      <point x="373" y="0"/>
      <point x="386" y="0" type="curve" smooth="yes"/>
      <point x="428" y="0" type="line" smooth="yes"/>
      <point x="443" y="0"/>
      <point x="455" y="10"/>
      <point x="458" y="29" type="curve" smooth="yes"/>
      <point x="482" y="168" type="line"/>
      <point x="570" y="168" type="line" smooth="yes"/>
      <point x="589" y="168"/>
      <point x="600" y="176"/>
      <point x="603" y="192" type="curve" smooth="yes"/>
      <point x="610" y="231" type="line" smooth="yes"/>
      <point x="610" y="233"/>
      <point x="610" y="235"/>
      <point x="610" y="237" type="curve" smooth="yes"/>
      <point x="610" y="250"/>
      <point x="601" y="256"/>
      <point x="585" y="256" type="curve" smooth="yes"/>
      <point x="498" y="256" type="line"/>
      <point x="529" y="438" type="line"/>
      <point x="617" y="438" type="line" smooth="yes"/>
      <point x="636" y="438"/>
      <point x="648" y="446"/>
      <point x="651" y="463" type="curve" smooth="yes"/>
      <point x="658" y="502" type="line"/>
      <point x="658" y="503"/>
      <point x="658" y="505"/>
      <point x="658" y="506" type="curve" smooth="yes"/>
      <point x="658" y="519"/>
      <point x="650" y="526"/>
      <point x="633" y="526" type="curve" smooth="yes"/>
      <point x="545" y="526" type="line"/>
      <point x="569" y="665" type="line" smooth="yes"/>
      <point x="570" y="668"/>
      <point x="570" y="671"/>
      <point x="570" y="675" type="curve" smooth="yes"/>
      <point x="570" y="688"/>
      <point x="563" y="694"/>
      <point x="550" y="694" type="curve" smooth="yes"/>
      <point x="508" y="694" type="line" smooth="yes"/>
      <point x="491" y="694"/>
      <point x="482" y="684"/>
      <point x="479" y="665" type="curve" smooth="yes"/>
      <point x="454" y="526" type="line"/>
      <point x="309" y="526" type="line"/>
      <point x="334" y="674" type="line"/>
      <point x="334" y="687"/>
      <point x="327" y="694"/>
      <point x="314" y="694" type="curve" smooth="yes"/>
      <point x="272" y="694" type="line" smooth="yes"/>
      <point x="256" y="694"/>
      <point x="245" y="684"/>
      <point x="242" y="665" type="curve" smooth="yes"/>
      <point x="218" y="526" type="line"/>
      <point x="130" y="526" type="line" smooth="yes"/>
      <point x="111" y="526"/>
      <point x="99" y="518"/>
      <point x="96" y="502" type="curve" smooth="yes"/>
      <point x="89" y="463" type="line" smooth="yes"/>
      <point x="89" y="461"/>
      <point x="89" y="460"/>
      <point x="89" y="458" type="curve" smooth="yes"/>
      <point x="89" y="444"/>
      <point x="97" y="438"/>
      <point x="114" y="438" type="curve" smooth="yes"/>
      <point x="202" y="438" type="line"/>
      <point x="170" y="256" type="line"/>
      <point x="82" y="256" type="line" smooth="yes"/>
      <point x="63" y="256"/>
      <point x="52" y="248"/>
      <point x="49" y="231" type="curve" smooth="yes"/>
    </contour>
    <contour>
      <point x="293" y="438" type="line"/>
      <point x="438" y="438" type="line"/>
      <point x="407" y="256" type="line"/>
      <point x="261" y="256" type="line"/>
    </contour>
  </outline>
</glyph>
<glyph name="dollar" format="1">
  <advance width="586"/>
  <unicode hex="0024"/>
  <outline>
    <contour>
      <point x="61" y="25"/>
      <point x="173" y="-10"/>
      <point x="276" y="-16" type="curve"/>
      <point x="276" y="-73" type="line" smooth="yes"/>
      <point x="276" y="-93"/>
      <point x="284" y="-103"/>
      <point x="301" y="-103" type="curve" smooth="yes"/>
      <point x="340" y="-103" type="line" smooth="yes"/>
      <point x="356" y="-103"/>
      <point x="364" y="-93"/>
      <point x="364" y="-73" type="curve" smooth="yes"/>
      <point x="364" y="-16" type="line"/>
      <point x="471" y="-5"/>
      <point x="554" y="58"/>
      <point x="554" y="182" type="curve" smooth="yes"/>
      <point x="554" y="302"/>
      <point x="497" y="345"/>
      <point x="447" y="371" type="curve" smooth="yes"/>
      <point x="420" y="384"/>
      <point x="392" y="395"/>
      <point x="364" y="407" type="curve"/>
      <point x="364" y="597" type="line"/>
      <point x="408" y="584"/>
      <point x="445" y="549"/>
      <point x="459" y="549" type="curve" smooth="yes"/>
      <point x="467" y="549"/>
      <point x="474" y="554"/>
      <point x="479" y="563" type="curve"/>
      <point x="513" y="614" type="line" smooth="yes"/>
      <point x="516" y="618"/>
      <point x="518" y="623"/>
      <point x="518" y="630" type="curve" smooth="yes"/>
      <point x="518" y="671"/>
      <point x="404" y="705"/>
      <point x="364" y="710" type="curve"/>
      <point x="364" y="760" type="line" smooth="yes"/>
      <point x="364" y="779"/>
      <point x="356" y="789"/>
      <point x="340" y="789" type="curve" smooth="yes"/>
      <point x="301" y="789" type="line" smooth="yes"/>
      <point x="284" y="789"/>
      <point x="276" y="779"/>
      <point x="276" y="760" type="curve" smooth="yes"/>
      <point x="276" y="710" type="line"/>
      <point x="222" y="706"/>
      <point x="86" y="684"/>
      <point x="86" y="528" type="curve" smooth="yes"/>
      <point x="86" y="401"/>
      <point x="176" y="334"/>
      <point x="276" y="299" type="curve"/>
      <point x="276" y="92" type="line"/>
      <point x="241" y="98"/>
      <point x="183" y="114"/>
      <point x="151" y="141" type="curve" smooth="yes"/>
      <point x="138" y="151"/>
      <point x="127" y="155"/>
      <point x="119" y="156" type="curve" smooth="yes"/>
      <point x="111" y="156"/>
      <point x="105" y="153"/>
      <point x="100" y="146" type="curve" smooth="yes"/>
      <point x="66" y="98" type="line" smooth="yes"/>
      <point x="63" y="93"/>
      <point x="61" y="88"/>
      <point x="61" y="81" type="curve" smooth="yes"/>
    </contour>
    <contour>
      <point x="216" y="488"/>
      <point x="211" y="506"/>
      <point x="211" y="529" type="curve" smooth="yes"/>
      <point x="211" y="566"/>
      <point x="240" y="593"/>
      <point x="276" y="600" type="curve"/>
      <point x="276" y="442" type="line"/>
      <point x="256" y="451" type="line" smooth="yes"/>
      <point x="244" y="456"/>
      <point x="234" y="465"/>
      <point x="226" y="476" type="curve" smooth="yes"/>
    </contour>
    <contour>
      <point x="391" y="105"/>
      <point x="377" y="97"/>
      <point x="364" y="94" type="curve"/>
      <point x="364" y="268" type="line"/>
      <point x="412" y="241"/>
      <point x="427" y="233"/>
      <point x="427" y="179" type="curve" smooth="yes"/>
      <point x="427" y="148"/>
      <point x="420" y="127"/>
      <point x="405" y="116" type="curve" smooth="yes"/>
    </contour>
  </outline>
</glyph>
<glyph name="ampersand" format="1">
  <advance width="703"/>
  <unicode hex="0026"/>
  <outline>
    <contour>
      <point x="67" y="245"/>
      <point x="55" y="203"/>
      <point x="55" y="154" type="curve" smooth="yes"/>
      <point x="55" y="33"/>
      <point x="144" y="-17"/>
      <point x="258" y="-17" type="curve" smooth="yes"/>
      <point x="355" y="-17"/>
      <point x="417" y="2"/>
      <point x="480" y="53" type="curve"/>
      <point x="498" y="29" type="line" smooth="yes"/>
      <point x="512" y="10"/>
      <point x="531" y="0"/>
      <point x="555" y="0" type="curve" smooth="yes"/>
      <point x="646" y="0" type="line" smooth="yes"/>
      <point x="662" y="0"/>
      <point x="670" y="4"/>
      <point x="670" y="12" type="curve" smooth="yes"/>
      <point x="670" y="17"/>
      <point x="667" y="24"/>
      <point x="661" y="32" type="curve" smooth="yes"/>
      <point x="584" y="133" type="line"/>
      <point x="632" y="174"/>
      <point x="682" y="235"/>
      <point x="682" y="281" type="curve" smooth="yes"/>
      <point x="682" y="288"/>
      <point x="679" y="293"/>
      <point x="674" y="296" type="curve" smooth="yes"/>
      <point x="622" y="327" type="line" smooth="yes"/>
      <point x="615" y="331"/>
      <point x="609" y="333"/>
      <point x="604" y="333" type="curve" smooth="yes"/>
      <point x="583" y="333"/>
      <point x="553" y="257"/>
      <point x="515" y="225" type="curve"/>
      <point x="398" y="378" type="line"/>
      <point x="477" y="436"/>
      <point x="508" y="485"/>
      <point x="508" y="569" type="curve" smooth="yes"/>
      <point x="508" y="682"/>
      <point x="411" y="717"/>
      <point x="330" y="717" type="curve" smooth="yes"/>
      <point x="184" y="717"/>
      <point x="132" y="643"/>
      <point x="132" y="568" type="curve" smooth="yes"/>
      <point x="132" y="487"/>
      <point x="168" y="456"/>
      <point x="216" y="400" type="curve"/>
      <point x="159" y="359"/>
      <point x="118" y="320"/>
      <point x="91" y="282" type="curve"/>
    </contour>
    <contour>
      <point x="270" y="521"/>
      <point x="264" y="540"/>
      <point x="264" y="563" type="curve" smooth="yes"/>
      <point x="264" y="579"/>
      <point x="285" y="604"/>
      <point x="319" y="604" type="curve" smooth="yes"/>
      <point x="355" y="604"/>
      <point x="376" y="586"/>
      <point x="376" y="554" type="curve" smooth="yes"/>
      <point x="376" y="507"/>
      <point x="363" y="501"/>
      <point x="322" y="464" type="curve"/>
      <point x="296" y="491"/>
      <point x="283" y="506"/>
      <point x="282" y="507" type="curve" smooth="yes"/>
    </contour>
    <contour>
      <point x="209" y="121"/>
      <point x="201" y="139"/>
      <point x="201" y="160" type="curve" smooth="yes"/>
      <point x="201" y="223"/>
      <point x="217" y="245"/>
      <point x="288" y="305" type="curve"/>
      <point x="413" y="141" type="line"/>
      <point x="367" y="103"/>
      <point x="338" y="90"/>
      <point x="278" y="90" type="curve" smooth="yes"/>
      <point x="258" y="90"/>
      <point x="240" y="96"/>
      <point x="224" y="108" type="curve"/>
    </contour>
  </outline>
</glyph>
<glyph name="quotesingle" format="1">
  <advance width="273"/>
  <unicode hex="0027"/>
  <outline>
    <contour>
      <point x="96" y="717" type="line" smooth="yes"/>
      <point x="78" y="717"/>
      <point x="71" y="707"/>
      <point x="71" y="686" type="curve"/>
      <point x="83" y="432" type="line"/>
      <point x="83" y="412"/>
      <point x="91" y="402"/>
      <point x="107" y="402" type="curve" smooth="yes"/>
      <point x="169" y="402" type="line" smooth="yes"/>
      <point x="185" y="402"/>
      <point x="193" y="412"/>
      <point x="194" y="432" type="curve" smooth="yes"/>
      <point x="206" y="686" type="line"/>
      <point x="206" y="707"/>
      <point x="199" y="717"/>
      <point x="181" y="717" type="curve" smooth="yes"/>
    </contour>
  </outline>
</glyph>
<glyph name="parenleft" format="1">
  <advance width="361"/>
  <unicode hex="0028"/>
  <outline>
    <contour>
      <point x="77" y="485"/>
      <point x="56" y="386"/>
      <point x="56" y="266" type="curve" smooth="yes"/>
      <point x="56" y="21"/>
      <point x="166" y="-134"/>
      <point x="244" y="-208" type="curve" smooth="yes"/>
      <point x="255" y="-219"/>
      <point x="264" y="-224"/>
      <point x="273" y="-224" type="curve" smooth="yes"/>
      <point x="278" y="-224"/>
      <point x="282" y="-223"/>
      <point x="285" y="-220" type="curve" smooth="yes"/>
      <point x="326" y="-187" type="line"/>
      <point x="331" y="-184"/>
      <point x="334" y="-179"/>
      <point x="334" y="-172" type="curve" smooth="yes"/>
      <point x="334" y="-166"/>
      <point x="331" y="-159"/>
      <point x="326" y="-152" type="curve" smooth="yes"/>
      <point x="271" y="-81"/>
      <point x="203" y="20"/>
      <point x="203" y="266" type="curve" smooth="yes"/>
      <point x="203" y="507"/>
      <point x="270" y="610"/>
      <point x="326" y="683" type="curve" smooth="yes"/>
      <point x="331" y="690"/>
      <point x="334" y="697"/>
      <point x="334" y="703" type="curve" smooth="yes"/>
      <point x="334" y="710"/>
      <point x="331" y="715"/>
      <point x="326" y="718" type="curve"/>
      <point x="285" y="751" type="line" smooth="yes"/>
      <point x="282" y="754"/>
      <point x="278" y="755"/>
      <point x="273" y="755" type="curve" smooth="yes"/>
      <point x="239" y="755"/>
      <point x="170" y="658"/>
      <point x="119" y="563" type="curve" smooth="yes"/>
    </contour>
  </outline>
</glyph>
<glyph name="parenright" format="1">
  <advance width="361"/>
  <unicode hex="0029"/>
  <outline>
    <contour>
      <point x="44" y="-178"/>
      <point x="47" y="-183"/>
      <point x="52" y="-187" type="curve" smooth="yes"/>
      <point x="93" y="-220" type="line" smooth="yes"/>
      <point x="96" y="-223"/>
      <point x="100" y="-224"/>
      <point x="105" y="-224" type="curve" smooth="yes"/>
      <point x="139" y="-224"/>
      <point x="208" y="-126"/>
      <point x="259" y="-32" type="curve" smooth="yes"/>
      <point x="301" y="46"/>
      <point x="322" y="145"/>
      <point x="322" y="266" type="curve" smooth="yes"/>
      <point x="322" y="509"/>
      <point x="211" y="667"/>
      <point x="134" y="739" type="curve" smooth="yes"/>
      <point x="123" y="749"/>
      <point x="114" y="755"/>
      <point x="105" y="755" type="curve" smooth="yes"/>
      <point x="100" y="755"/>
      <point x="96" y="754"/>
      <point x="93" y="751" type="curve" smooth="yes"/>
      <point x="52" y="718" type="line" smooth="yes"/>
      <point x="47" y="714"/>
      <point x="44" y="709"/>
      <point x="44" y="703" type="curve" smooth="yes"/>
      <point x="44" y="688"/>
      <point x="102" y="609"/>
      <point x="133" y="541" type="curve" smooth="yes"/>
      <point x="161" y="479"/>
      <point x="175" y="387"/>
      <point x="175" y="266" type="curve" smooth="yes"/>
      <point x="175" y="20"/>
      <point x="107" y="-81"/>
      <point x="52" y="-152" type="curve"/>
      <point x="47" y="-161"/>
      <point x="44" y="-167"/>
      <point x="44" y="-172" type="curve" smooth="yes"/>
    </contour>
  </outline>
</glyph>
<glyph name="asterisk" format="1">
  <advance width="469"/>
  <unicode hex="002A"/>
  <outline>
    <contour>
      <point x="191" y="517" type="line"/>
      <point x="95" y="476" type="line" smooth="yes"/>
      <point x="76" y="468"/>
      <point x="66" y="455"/>
      <point x="66" y="443" type="curve" smooth="yes"/>
      <point x="66" y="436"/>
      <point x="68" y="428"/>
      <point x="73" y="421" type="curve" smooth="yes"/>
      <point x="82" y="406" type="line" smooth="yes"/>
      <point x="90" y="393"/>
      <point x="99" y="386"/>
      <point x="110" y="386" type="curve" smooth="yes"/>
      <point x="119" y="386"/>
      <point x="129" y="390"/>
      <point x="140" y="398" type="curve" smooth="yes"/>
      <point x="223" y="461" type="line"/>
      <point x="211" y="357" type="line" smooth="yes"/>
      <point x="211" y="354"/>
      <point x="210" y="351"/>
      <point x="210" y="348" type="curve" smooth="yes"/>
      <point x="210" y="324"/>
      <point x="223" y="312"/>
      <point x="247" y="312" type="curve" smooth="yes"/>
      <point x="264" y="312" type="line" smooth="yes"/>
      <point x="288" y="312"/>
      <point x="300" y="324"/>
      <point x="300" y="348" type="curve" smooth="yes"/>
      <point x="300" y="351"/>
      <point x="300" y="354"/>
      <point x="300" y="357" type="curve" smooth="yes"/>
      <point x="288" y="461" type="line"/>
      <point x="372" y="398" type="line" smooth="yes"/>
      <point x="382" y="390"/>
      <point x="391" y="386"/>
      <point x="400" y="386" type="curve" smooth="yes"/>
      <point x="411" y="386"/>
      <point x="421" y="393"/>
      <point x="429" y="407" type="curve" smooth="yes"/>
      <point x="438" y="422" type="line" smooth="yes"/>
      <point x="442" y="429"/>
      <point x="444" y="436"/>
      <point x="444" y="443" type="curve" smooth="yes"/>
      <point x="444" y="456"/>
      <point x="435" y="467"/>
      <point x="416" y="475" type="curve" smooth="yes"/>
      <point x="320" y="517" type="line"/>
      <point x="416" y="558" type="line" smooth="yes"/>
      <point x="435" y="566"/>
      <point x="444" y="577"/>
      <point x="444" y="590" type="curve" smooth="yes"/>
      <point x="444" y="596"/>
      <point x="442" y="603"/>
      <point x="438" y="611" type="curve" smooth="yes"/>
      <point x="429" y="626" type="line" smooth="yes"/>
      <point x="421" y="640"/>
      <point x="411" y="647"/>
      <point x="400" y="647" type="curve" smooth="yes"/>
      <point x="392" y="647"/>
      <point x="382" y="643"/>
      <point x="371" y="635" type="curve" smooth="yes"/>
      <point x="288" y="572" type="line"/>
      <point x="300" y="676" type="line" smooth="yes"/>
      <point x="300" y="679"/>
      <point x="300" y="682"/>
      <point x="300" y="685" type="curve" smooth="yes"/>
      <point x="300" y="710"/>
      <point x="289" y="722"/>
      <point x="264" y="722" type="curve" smooth="yes"/>
      <point x="247" y="722" type="line" smooth="yes"/>
      <point x="222" y="722"/>
      <point x="210" y="710"/>
      <point x="210" y="685" type="curve" smooth="yes"/>
      <point x="210" y="682"/>
      <point x="211" y="679"/>
      <point x="211" y="676" type="curve" smooth="yes"/>
      <point x="223" y="572" type="line"/>
      <point x="140" y="635" type="line" smooth="yes"/>
      <point x="129" y="643"/>
      <point x="120" y="647"/>
      <point x="111" y="647" type="curve" smooth="yes"/>
      <point x="99" y="647"/>
      <point x="90" y="640"/>
      <point x="83" y="627" type="curve" smooth="yes"/>
      <point x="74" y="612" type="line" smooth="yes"/>
      <point x="69" y="605"/>
      <point x="67" y="597"/>
      <point x="67" y="590" type="curve" smooth="yes"/>
      <point x="67" y="577"/>
      <point x="76" y="566"/>
      <point x="95" y="558" type="curve" smooth="yes"/>
    </contour>
  </outline>
</glyph>
<glyph name="plus" format="1">
  <advance width="625"/>
  <unicode hex="002B"/>
  <outline>
    <contour>
      <point x="37" y="333" type="line" smooth="yes"/>
      <point x="37" y="317"/>
      <point x="47" y="309"/>
      <point x="66" y="309" type="curve" smooth="yes"/>
      <point x="267" y="309" type="line"/>
      <point x="267" y="107" type="line" smooth="yes"/>
      <point x="267" y="88"/>
      <point x="275" y="78"/>
      <point x="292" y="78" type="curve" smooth="yes"/>
      <point x="333" y="78" type="line" smooth="yes"/>
      <point x="350" y="78"/>
      <point x="358" y="88"/>
      <point x="358" y="107" type="curve" smooth="yes"/>
      <point x="358" y="309" type="line"/>
      <point x="559" y="309" type="line" smooth="yes"/>
      <point x="578" y="309"/>
      <point x="588" y="317"/>
      <point x="588" y="333" type="curve" smooth="yes"/>
      <point x="588" y="375" type="line" smooth="yes"/>
      <point x="588" y="391"/>
      <point x="578" y="399"/>
      <point x="559" y="399" type="curve" smooth="yes"/>
      <point x="358" y="399" type="line"/>
      <point x="358" y="601" type="line" smooth="yes"/>
      <point x="358" y="620"/>
      <point x="350" y="630"/>
      <point x="333" y="630" type="curve" smooth="yes"/>
      <point x="292" y="630" type="line" smooth="yes"/>
      <point x="275" y="630"/>
      <point x="267" y="620"/>
      <point x="267" y="601" type="curve" smooth="yes"/>
      <point x="267" y="399" type="line"/>
      <point x="66" y="399" type="line" smooth="yes"/>
      <point x="47" y="399"/>
      <point x="37" y="391"/>
      <point x="37" y="375" type="curve" smooth="yes"/>
    </contour>
  </outline>
</glyph>
<glyph name="comma" format="1">
  <advance width="326"/>
  <unicode hex="002C"/>
  <outline>
    <contour>
      <point x="91" y="37" type="line" smooth="yes"/>
      <point x="91" y="12"/>
      <point x="102" y="0"/>
      <point x="125" y="0" type="curve" smooth="yes"/>
      <point x="159" y="0" type="line"/>
      <point x="159" y="-47"/>
      <point x="152" y="-69"/>
      <point x="132" y="-85" type="curve" smooth="yes"/>
      <point x="123" y="-92"/>
      <point x="119" y="-99"/>
      <point x="119" y="-106" type="curve" smooth="yes"/>
      <point x="119" y="-111"/>
      <point x="122" y="-117"/>
      <point x="127" y="-122" type="curve" smooth="yes"/>
      <point x="146" y="-142" type="line" smooth="yes"/>
      <point x="151" y="-147"/>
      <point x="155" y="-149"/>
      <point x="160" y="-149" type="curve" smooth="yes"/>
      <point x="190" y="-149"/>
      <point x="221" y="-104"/>
      <point x="227" y="-69" type="curve" smooth="yes"/>
      <point x="232" y="-39"/>
      <point x="235" y="-4"/>
      <point x="235" y="37" type="curve" smooth="yes"/>
      <point x="235" y="102" type="line" smooth="yes"/>
      <point x="235" y="127"/>
      <point x="224" y="139"/>
      <point x="201" y="139" type="curve" smooth="yes"/>
      <point x="125" y="139" type="line" smooth="yes"/>
      <point x="102" y="139"/>
      <point x="91" y="127"/>
      <point x="91" y="102" type="curve" smooth="yes"/>
    </contour>
  </outline>
</glyph>
<glyph name="hyphen" format="1">
  <advance width="342"/>
  <unicode hex="002D"/>
  <outline>
    <contour>
      <point x="26" y="242" type="line" smooth="yes"/>
      <point x="26" y="226"/>
      <point x="36" y="218"/>
      <point x="55" y="218" type="curve" smooth="yes"/>
      <point x="287" y="218" type="line" smooth="yes"/>
      <point x="306" y="218"/>
      <point x="316" y="226"/>
      <point x="316" y="242" type="curve" smooth="yes"/>
      <point x="316" y="298" type="line" smooth="yes"/>
      <point x="316" y="314"/>
      <point x="306" y="322"/>
      <point x="287" y="322" type="curve" smooth="yes"/>
      <point x="55" y="322" type="line" smooth="yes"/>
      <point x="36" y="322"/>
      <point x="26" y="314"/>
      <point x="26" y="298" type="curve" smooth="yes"/>
    </contour>
  </outline>
</glyph>
<glyph name="period" format="1">
  <advance width="326"/>
  <unicode hex="002E"/>
  <outline>
    <contour>
      <point x="92" y="37" type="line" smooth="yes"/>
      <point x="92" y="12"/>
      <point x="103" y="0"/>
      <point x="126" y="0" type="curve" smooth="yes"/>
      <point x="200" y="0" type="line" smooth="yes"/>
      <point x="223" y="0"/>
      <point x="234" y="12"/>
      <point x="234" y="37" type="curve" smooth="yes"/>
      <point x="234" y="102" type="line" smooth="yes"/>
      <point x="234" y="127"/>
      <point x="223" y="139"/>
      <point x="200" y="139" type="curve" smooth="yes"/>
      <point x="126" y="139" type="line" smooth="yes"/>
      <point x="103" y="139"/>
      <point x="92" y="127"/>
      <point x="92" y="102" type="curve" smooth="yes"/>
    </contour>
  </outline>
</glyph>
<glyph name="slash" format="1">
  <advance width="418"/>
  <unicode hex="002F"/>
  <outline>
    <contour>
      <point x="12" y="-174"/>
      <point x="17" y="-181"/>
      <point x="27" y="-185" type="curve" smooth="yes"/>
      <point x="67" y="-200" type="line"/>
      <point x="72" y="-201"/>
      <point x="76" y="-202"/>
      <point x="77" y="-202" type="curve" smooth="yes"/>
      <point x="88" y="-202"/>
      <point x="95" y="-195"/>
      <point x="100" y="-181" type="curve" smooth="yes"/>
      <point x="424" y="664" type="line"/>
      <point x="427" y="669"/>
      <point x="428" y="674"/>
      <point x="428" y="679" type="curve" smooth="yes"/>
      <point x="428" y="689"/>
      <point x="423" y="696"/>
      <point x="412" y="700" type="curve" smooth="yes"/>
      <point x="373" y="715" type="line"/>
      <point x="368" y="716"/>
      <point x="364" y="717"/>
      <point x="363" y="717" type="curve" smooth="yes"/>
      <point x="353" y="717"/>
      <point x="344" y="710"/>
      <point x="339" y="696" type="curve" smooth="yes"/>
      <point x="15" y="-148" type="line" smooth="yes"/>
      <point x="13" y="-154"/>
      <point x="12" y="-159"/>
      <point x="12" y="-164" type="curve" smooth="yes"/>
    </contour>
  </outline>
</glyph>
<glyph name="zero" format="1">
  <advance width="586"/>
  <unicode hex="0030"/>
  <outline>
    <contour>
      <point x="63" y="573"/>
      <point x="43" y="480"/>
      <point x="43" y="347" type="curve" smooth="yes"/>
      <point x="43" y="78"/>
      <point x="126" y="-17"/>
      <point x="293" y="-17" type="curve" smooth="yes"/>
      <point x="463" y="-17"/>
      <point x="543" y="86"/>
      <point x="543" y="347" type="curve" smooth="yes"/>
      <point x="543" y="613"/>
      <point x="460" y="711"/>
      <point x="293" y="711" type="curve" smooth="yes"/>
      <point x="209" y="711"/>
      <point x="146" y="683"/>
      <point x="104" y="628" type="curve" smooth="yes"/>
    </contour>
    <contour>
      <point x="193" y="225"/>
      <point x="188" y="283"/>
      <point x="188" y="347" type="curve" smooth="yes"/>
      <point x="188" y="473"/>
      <point x="191" y="604"/>
      <point x="293" y="604" type="curve" smooth="yes"/>
      <point x="393" y="604"/>
      <point x="398" y="476"/>
      <point x="398" y="347" type="curve" smooth="yes"/>
      <point x="398" y="218"/>
      <point x="393" y="90"/>
      <point x="293" y="90" type="curve" smooth="yes"/>
      <point x="242" y="90"/>
      <point x="212" y="118"/>
      <point x="202" y="173" type="curve" smooth="yes"/>
    </contour>
  </outline>
</glyph>
<glyph name="one" format="1">
  <advance width="443"/>
  <unicode hex="0031"/>
  <outline>
    <contour>
      <point x="84" y="567"/>
      <point x="85" y="563"/>
      <point x="88" y="556" type="curve" smooth="yes"/>
      <point x="123" y="491" type="line" smooth="yes"/>
      <point x="128" y="481"/>
      <point x="135" y="476"/>
      <point x="144" y="476" type="curve" smooth="yes"/>
      <point x="170" y="476"/>
      <point x="208" y="508"/>
      <point x="227" y="533" type="curve"/>
      <point x="229" y="533" type="line"/>
      <point x="228" y="516"/>
      <point x="227" y="503"/>
      <point x="227" y="494" type="curve" smooth="yes"/>
      <point x="227" y="29" type="line" smooth="yes"/>
      <point x="227" y="10"/>
      <point x="237" y="0"/>
      <point x="256" y="0" type="curve" smooth="yes"/>
      <point x="334" y="0" type="line" smooth="yes"/>
      <point x="354" y="0"/>
      <point x="364" y="10"/>
      <point x="364" y="29" type="curve" smooth="yes"/>
      <point x="364" y="674" type="line" smooth="yes"/>
      <point x="364" y="693"/>
      <point x="354" y="703"/>
      <point x="334" y="703" type="curve" smooth="yes"/>
      <point x="257" y="703" type="line" smooth="yes"/>
      <point x="229" y="703"/>
      <point x="170" y="620"/>
      <point x="105" y="593" type="curve" smooth="yes"/>
      <point x="91" y="587"/>
      <point x="84" y="579"/>
      <point x="84" y="569" type="curve" smooth="yes"/>
    </contour>
  </outline>
</glyph>
<glyph name="two" format="1">
  <advance width="586"/>
  <unicode hex="0032"/>
  <outline>
    <contour>
      <point x="43" y="32" type="line" smooth="yes"/>
      <point x="43" y="11"/>
      <point x="55" y="0"/>
      <point x="80" y="0" type="curve" smooth="yes"/>
      <point x="505" y="0" type="line" smooth="yes"/>
      <point x="530" y="0"/>
      <point x="542" y="11"/>
      <point x="542" y="32" type="curve" smooth="yes"/>
      <point x="542" y="89" type="line" smooth="yes"/>
      <point x="542" y="110"/>
      <point x="530" y="121"/>
      <point x="505" y="121" type="curve" smooth="yes"/>
      <point x="277" y="121" type="line" smooth="yes"/>
      <point x="258" y="121"/>
      <point x="242" y="120"/>
      <point x="229" y="119" type="curve"/>
      <point x="229" y="122" type="line"/>
      <point x="312" y="209" type="line" smooth="yes"/>
      <point x="350" y="249"/>
      <point x="395" y="296"/>
      <point x="455" y="349" type="curve" smooth="yes"/>
      <point x="508" y="395"/>
      <point x="534" y="451"/>
      <point x="534" y="515" type="curve" smooth="yes"/>
      <point x="534" y="608"/>
      <point x="468" y="711"/>
      <point x="306" y="711" type="curve" smooth="yes"/>
      <point x="149" y="711"/>
      <point x="79" y="631"/>
      <point x="54" y="541" type="curve" smooth="yes"/>
      <point x="52" y="534"/>
      <point x="51" y="528"/>
      <point x="51" y="521" type="curve" smooth="yes"/>
      <point x="51" y="508"/>
      <point x="57" y="499"/>
      <point x="68" y="495" type="curve" smooth="yes"/>
      <point x="117" y="479" type="line" smooth="yes"/>
      <point x="120" y="478"/>
      <point x="125" y="477"/>
      <point x="130" y="477" type="curve" smooth="yes"/>
      <point x="177" y="477"/>
      <point x="152" y="602"/>
      <point x="290" y="602" type="curve" smooth="yes"/>
      <point x="350" y="602"/>
      <point x="388" y="566"/>
      <point x="388" y="494" type="curve" smooth="yes"/>
      <point x="387" y="419"/>
      <point x="300" y="352"/>
      <point x="212" y="259" type="curve" smooth="yes"/>
      <point x="66" y="105" type="line"/>
      <point x="51" y="88"/>
      <point x="43" y="71"/>
      <point x="43" y="55" type="curve" smooth="yes"/>
    </contour>
  </outline>
</glyph>
<glyph name="three" format="1">
  <advance width="586"/>
  <unicode hex="0033"/>
  <outline>
    <contour>
      <point x="54" y="18"/>
      <point x="212" y="-17"/>
      <point x="284" y="-17" type="curve" smooth="yes"/>
      <point x="467" y="-17"/>
      <point x="557" y="60"/>
      <point x="557" y="204" type="curve" smooth="yes"/>
      <point x="557" y="294"/>
      <point x="474" y="361"/>
      <point x="401" y="378" type="curve"/>
      <point x="401" y="380" type="line"/>
      <point x="463" y="402"/>
      <point x="532" y="467"/>
      <point x="532" y="539" type="curve" smooth="yes"/>
      <point x="532" y="632"/>
      <point x="453" y="711"/>
      <point x="285" y="711" type="curve" smooth="yes"/>
      <point x="208" y="711"/>
      <point x="69" y="673"/>
      <point x="69" y="615" type="curve" smooth="yes"/>
      <point x="69" y="609"/>
      <point x="71" y="603"/>
      <point x="75" y="597" type="curve" smooth="yes"/>
      <point x="104" y="556" type="line" smooth="yes"/>
      <point x="111" y="545"/>
      <point x="118" y="539"/>
      <point x="128" y="539" type="curve" smooth="yes"/>
      <point x="134" y="539"/>
      <point x="144" y="543"/>
      <point x="154" y="553" type="curve" smooth="yes"/>
      <point x="184" y="581"/>
      <point x="231" y="602"/>
      <point x="293" y="602" type="curve" smooth="yes"/>
      <point x="358" y="602"/>
      <point x="390" y="572"/>
      <point x="390" y="525" type="curve" smooth="yes"/>
      <point x="390" y="469"/>
      <point x="333" y="428"/>
      <point x="276" y="428" type="curve" smooth="yes"/>
      <point x="247" y="428" type="line" smooth="yes"/>
      <point x="226" y="428"/>
      <point x="215" y="419"/>
      <point x="215" y="401" type="curve" smooth="yes"/>
      <point x="215" y="347" type="line" smooth="yes"/>
      <point x="215" y="330"/>
      <point x="226" y="321"/>
      <point x="247" y="321" type="curve" smooth="yes"/>
      <point x="284" y="321" type="line" smooth="yes"/>
      <point x="369" y="321"/>
      <point x="410" y="261"/>
      <point x="410" y="206" type="curve" smooth="yes"/>
      <point x="410" y="150"/>
      <point x="379" y="93"/>
      <point x="290" y="93" type="curve" smooth="yes"/>
      <point x="232" y="93"/>
      <point x="181" y="109"/>
      <point x="137" y="141" type="curve" smooth="yes"/>
      <point x="126" y="149"/>
      <point x="116" y="153"/>
      <point x="107" y="153" type="curve" smooth="yes"/>
      <point x="98" y="153"/>
      <point x="90" y="148"/>
      <point x="84" y="137" type="curve" smooth="yes"/>
      <point x="62" y="96" type="line" smooth="yes"/>
      <point x="57" y="87"/>
      <point x="54" y="79"/>
      <point x="54" y="72" type="curve" smooth="yes"/>
    </contour>
  </outline>
</glyph>
<glyph name="four" format="1">
  <advance width="586"/>
  <unicode hex="0034"/>
  <outline>
    <contour>
      <point x="30" y="184" type="line" smooth="yes"/>
      <point x="30" y="163"/>
      <point x="41" y="152"/>
      <point x="62" y="152" type="curve" smooth="yes"/>
      <point x="328" y="152" type="line"/>
      <point x="328" y="32" type="line" smooth="yes"/>
      <point x="328" y="11"/>
      <point x="339" y="0"/>
      <point x="360" y="0" type="curve" smooth="yes"/>
      <point x="433" y="0" type="line" smooth="yes"/>
      <point x="454" y="0"/>
      <point x="465" y="11"/>
      <point x="465" y="32" type="curve" smooth="yes"/>
      <point x="465" y="152" type="line"/>
      <point x="524" y="152" type="line" smooth="yes"/>
      <point x="545" y="152"/>
      <point x="556" y="163"/>
      <point x="556" y="184" type="curve" smooth="yes"/>
      <point x="556" y="242" type="line" smooth="yes"/>
      <point x="556" y="263"/>
      <point x="545" y="273"/>
      <point x="524" y="273" type="curve" smooth="yes"/>
      <point x="465" y="273" type="line"/>
      <point x="465" y="671" type="line" smooth="yes"/>
      <point x="465" y="692"/>
      <point x="454" y="703"/>
      <point x="433" y="703" type="curve" smooth="yes"/>
      <point x="361" y="703" type="line" smooth="yes"/>
      <point x="343" y="703"/>
      <point x="327" y="695"/>
      <point x="315" y="678" type="curve" smooth="yes"/>
      <point x="45" y="297" type="line" smooth="yes"/>
      <point x="35" y="283"/>
      <point x="30" y="267"/>
      <point x="30" y="249" type="curve" smooth="yes"/>
    </contour>
    <contour>
      <point x="167" y="273" type="line"/>
      <point x="328" y="501" type="line"/>
      <point x="330" y="501" type="line"/>
      <point x="329" y="484"/>
      <point x="328" y="471"/>
      <point x="328" y="462" type="curve" smooth="yes"/>
      <point x="328" y="273" type="line"/>
    </contour>
  </outline>
</glyph>
<glyph name="five" format="1">
  <advance width="586"/>
  <unicode hex="0035"/>
  <outline>
    <contour>
      <point x="52" y="27"/>
      <point x="159" y="-17"/>
      <point x="294" y="-17" type="curve" smooth="yes"/>
      <point x="427" y="-17"/>
      <point x="547" y="63"/>
      <point x="547" y="213" type="curve" smooth="yes"/>
      <point x="547" y="377"/>
      <point x="457" y="452"/>
      <point x="344" y="452" type="curve" smooth="yes"/>
      <point x="291" y="452"/>
      <point x="251" y="443"/>
      <point x="218" y="415" type="curve"/>
      <point x="215" y="415" type="line"/>
      <point x="216" y="424"/>
      <point x="217" y="437"/>
      <point x="217" y="454" type="curve" smooth="yes"/>
      <point x="217" y="573" type="line"/>
      <point x="464" y="573" type="line" smooth="yes"/>
      <point x="485" y="573"/>
      <point x="496" y="584"/>
      <point x="496" y="605" type="curve" smooth="yes"/>
      <point x="496" y="663" type="line" smooth="yes"/>
      <point x="496" y="684"/>
      <point x="485" y="694"/>
      <point x="464" y="694" type="curve" smooth="yes"/>
      <point x="112" y="694" type="line" smooth="yes"/>
      <point x="91" y="694"/>
      <point x="81" y="684"/>
      <point x="81" y="663" type="curve" smooth="yes"/>
      <point x="81" y="326" type="line" smooth="yes"/>
      <point x="81" y="305"/>
      <point x="91" y="294"/>
      <point x="112" y="294" type="curve" smooth="yes"/>
      <point x="166" y="294" type="line" smooth="yes"/>
      <point x="206" y="294"/>
      <point x="234" y="333"/>
      <point x="262" y="338" type="curve" smooth="yes"/>
      <point x="281" y="341"/>
      <point x="299" y="343"/>
      <point x="317" y="343" type="curve" smooth="yes"/>
      <point x="365" y="343"/>
      <point x="400" y="289"/>
      <point x="400" y="215" type="curve" smooth="yes"/>
      <point x="400" y="135"/>
      <point x="342" y="93"/>
      <point x="268" y="93" type="curve" smooth="yes"/>
      <point x="185" y="93"/>
      <point x="131" y="148"/>
      <point x="114" y="148" type="curve" smooth="yes"/>
      <point x="106" y="148"/>
      <point x="98" y="143"/>
      <point x="91" y="133" type="curve" smooth="yes"/>
      <point x="57" y="86" type="line" smooth="yes"/>
      <point x="54" y="81"/>
      <point x="52" y="76"/>
      <point x="52" y="71" type="curve" smooth="yes"/>
    </contour>
  </outline>
</glyph>
<glyph name="six" format="1">
  <advance width="586"/>
  <unicode hex="0036"/>
  <outline>
    <contour>
      <point x="69" y="576"/>
      <point x="43" y="475"/>
      <point x="43" y="328" type="curve" smooth="yes"/>
      <point x="43" y="110"/>
      <point x="117" y="-17"/>
      <point x="296" y="-17" type="curve" smooth="yes"/>
      <point x="465" y="-17"/>
      <point x="544" y="78"/>
      <point x="544" y="219" type="curve" smooth="yes"/>
      <point x="544" y="345"/>
      <point x="477" y="452"/>
      <point x="337" y="452" type="curve" smooth="yes"/>
      <point x="260" y="452"/>
      <point x="209" y="434"/>
      <point x="181" y="390" type="curve"/>
      <point x="179" y="390" type="line"/>
      <point x="179" y="550"/>
      <point x="254" y="602"/>
      <point x="316" y="602" type="curve" smooth="yes"/>
      <point x="381" y="602"/>
      <point x="429" y="561"/>
      <point x="444" y="561" type="curve" smooth="yes"/>
      <point x="452" y="561"/>
      <point x="458" y="565"/>
      <point x="463" y="573" type="curve" smooth="yes"/>
      <point x="496" y="621" type="line" smooth="yes"/>
      <point x="499" y="626"/>
      <point x="500" y="630"/>
      <point x="500" y="635" type="curve" smooth="yes"/>
      <point x="500" y="668"/>
      <point x="418" y="711"/>
      <point x="321" y="711" type="curve" smooth="yes"/>
      <point x="240" y="711"/>
      <point x="174" y="684"/>
      <point x="122" y="629" type="curve"/>
    </contour>
    <contour>
      <point x="236" y="93"/>
      <point x="203" y="136"/>
      <point x="203" y="216" type="curve" smooth="yes"/>
      <point x="203" y="278"/>
      <point x="240" y="343"/>
      <point x="305" y="343" type="curve" smooth="yes"/>
      <point x="366" y="343"/>
      <point x="397" y="302"/>
      <point x="397" y="220" type="curve" smooth="yes"/>
      <point x="397" y="121"/>
      <point x="365" y="93"/>
      <point x="299" y="93" type="curve" smooth="yes"/>
    </contour>
  </outline>
</glyph>
<glyph name="seven" format="1">
  <advance width="543"/>
  <unicode hex="0037"/>
  <outline>
    <contour>
      <point x="41" y="605" type="line" smooth="yes"/>
      <point x="41" y="584"/>
      <point x="51" y="573"/>
      <point x="72" y="573" type="curve" smooth="yes"/>
      <point x="335" y="573" type="line" smooth="yes"/>
      <point x="343" y="573"/>
      <point x="356" y="574"/>
      <point x="375" y="575" type="curve"/>
      <point x="375" y="573" type="line"/>
      <point x="245" y="421"/>
      <point x="161" y="278"/>
      <point x="161" y="42" type="curve" smooth="yes"/>
      <point x="161" y="29" type="line" smooth="yes"/>
      <point x="161" y="8"/>
      <point x="172" y="-3"/>
      <point x="193" y="-3" type="curve" smooth="yes"/>
      <point x="266" y="-3" type="line" smooth="yes"/>
      <point x="287" y="-3"/>
      <point x="298" y="8"/>
      <point x="298" y="29" type="curve" smooth="yes"/>
      <point x="298" y="59" type="line" smooth="yes"/>
      <point x="298" y="278"/>
      <point x="345" y="406"/>
      <point x="478" y="555" type="curve" smooth="yes"/>
      <point x="494" y="573"/>
      <point x="502" y="590"/>
      <point x="502" y="607" type="curve" smooth="yes"/>
      <point x="502" y="663" type="line" smooth="yes"/>
      <point x="502" y="684"/>
      <point x="492" y="694"/>
      <point x="471" y="694" type="curve" smooth="yes"/>
      <point x="72" y="694" type="line" smooth="yes"/>
      <point x="51" y="694"/>
      <point x="41" y="684"/>
      <point x="41" y="663" type="curve" smooth="yes"/>
    </contour>
  </outline>
</glyph>
<glyph name="eight" format="1">
  <advance width="586"/>
  <unicode hex="0038"/>
  <outline>
    <contour>
      <point x="59" y="287"/>
      <point x="42" y="244"/>
      <point x="42" y="187" type="curve" smooth="yes"/>
      <point x="42" y="69"/>
      <point x="113" y="-17"/>
      <point x="293" y="-17" type="curve" smooth="yes"/>
      <point x="473" y="-17"/>
      <point x="544" y="69"/>
      <point x="544" y="187" type="curve" smooth="yes"/>
      <point x="544" y="300"/>
      <point x="450" y="362"/>
      <point x="404" y="375" type="curve"/>
      <point x="404" y="377" type="line"/>
      <point x="457" y="395"/>
      <point x="524" y="447"/>
      <point x="524" y="531" type="curve" smooth="yes"/>
      <point x="524" y="632"/>
      <point x="435" y="711"/>
      <point x="293" y="711" type="curve" smooth="yes"/>
      <point x="151" y="711"/>
      <point x="62" y="632"/>
      <point x="62" y="531" type="curve" smooth="yes"/>
      <point x="62" y="448"/>
      <point x="124" y="395"/>
      <point x="182" y="377" type="curve"/>
      <point x="182" y="375" type="line"/>
      <point x="157" y="368"/>
      <point x="128" y="349"/>
      <point x="93" y="317" type="curve" smooth="yes"/>
    </contour>
    <contour>
      <point x="234" y="433"/>
      <point x="205" y="464"/>
      <point x="205" y="517" type="curve" smooth="yes"/>
      <point x="205" y="569"/>
      <point x="237" y="602"/>
      <point x="293" y="602" type="curve" smooth="yes"/>
      <point x="349" y="602"/>
      <point x="381" y="569"/>
      <point x="381" y="517" type="curve" smooth="yes"/>
      <point x="381" y="464"/>
      <point x="352" y="433"/>
      <point x="293" y="433" type="curve" smooth="yes"/>
    </contour>
    <contour>
      <point x="220" y="93"/>
      <point x="188" y="127"/>
      <point x="188" y="202" type="curve" smooth="yes"/>
      <point x="188" y="252"/>
      <point x="221" y="314"/>
      <point x="293" y="314" type="curve" smooth="yes"/>
      <point x="363" y="314"/>
      <point x="397" y="256"/>
      <point x="397" y="202" type="curve" smooth="yes"/>
      <point x="397" y="127"/>
      <point x="366" y="93"/>
      <point x="293" y="93" type="curve" smooth="yes"/>
    </contour>
  </outline>
</glyph>
<glyph name="nine" format="1">
  <advance width="586"/>
  <unicode hex="0039"/>
  <outline>
    <contour>
      <point x="62" y="603"/>
      <point x="42" y="546"/>
      <point x="42" y="476" type="curve" smooth="yes"/>
      <point x="42" y="348"/>
      <point x="109" y="242"/>
      <point x="249" y="242" type="curve" smooth="yes"/>
      <point x="325" y="242"/>
      <point x="376" y="261"/>
      <point x="405" y="304" type="curve"/>
      <point x="407" y="304" type="line"/>
      <point x="407" y="145"/>
      <point x="334" y="93"/>
      <point x="270" y="93" type="curve" smooth="yes"/>
      <point x="202" y="93"/>
      <point x="157" y="134"/>
      <point x="142" y="134" type="curve" smooth="yes"/>
      <point x="135" y="134"/>
      <point x="128" y="130"/>
      <point x="123" y="122" type="curve" smooth="yes"/>
      <point x="90" y="73" type="line" smooth="yes"/>
      <point x="87" y="68"/>
      <point x="86" y="64"/>
      <point x="86" y="59" type="curve" smooth="yes"/>
      <point x="86" y="16"/>
      <point x="194" y="-17"/>
      <point x="265" y="-17" type="curve" smooth="yes"/>
      <point x="345" y="-17"/>
      <point x="410" y="10"/>
      <point x="464" y="65" type="curve" smooth="yes"/>
      <point x="517" y="119"/>
      <point x="543" y="218"/>
      <point x="543" y="367" type="curve" smooth="yes"/>
      <point x="543" y="587"/>
      <point x="467" y="711"/>
      <point x="290" y="711" type="curve" smooth="yes"/>
      <point x="207" y="711"/>
      <point x="144" y="690"/>
      <point x="103" y="647" type="curve" smooth="yes"/>
    </contour>
    <contour>
      <point x="219" y="352"/>
      <point x="188" y="393"/>
      <point x="188" y="475" type="curve" smooth="yes"/>
      <point x="188" y="569"/>
      <point x="219" y="602"/>
      <point x="287" y="602" type="curve" smooth="yes"/>
      <point x="350" y="602"/>
      <point x="383" y="558"/>
      <point x="383" y="478" type="curve" smooth="yes"/>
      <point x="383" y="416"/>
      <point x="346" y="352"/>
      <point x="281" y="352" type="curve" smooth="yes"/>
    </contour>
  </outline>
</glyph>
<glyph name="less" format="1">
  <advance width="625"/>
  <unicode hex="003C"/>
  <outline>
    <contour>
      <point x="43" y="336" type="line" smooth="yes"/>
      <point x="43" y="324"/>
      <point x="50" y="317"/>
      <point x="63" y="310" type="curve" smooth="yes"/>
      <point x="522" y="65" type="line" smooth="yes"/>
      <point x="529" y="62"/>
      <point x="535" y="60"/>
      <point x="540" y="60" type="curve" smooth="yes"/>
      <point x="549" y="60"/>
      <point x="555" y="64"/>
      <point x="560" y="73" type="curve" smooth="yes"/>
      <point x="578" y="107" type="line" smooth="yes"/>
      <point x="580" y="112"/>
      <point x="581" y="117"/>
      <point x="581" y="120" type="curve" smooth="yes"/>
      <point x="581" y="128"/>
      <point x="575" y="136"/>
      <point x="563" y="143" type="curve" smooth="yes"/>
      <point x="156" y="359" type="line"/>
      <point x="563" y="575" type="line"/>
      <point x="575" y="580"/>
      <point x="581" y="588"/>
      <point x="581" y="598" type="curve" smooth="yes"/>
      <point x="581" y="602"/>
      <point x="580" y="606"/>
      <point x="578" y="610" type="curve" smooth="yes"/>
      <point x="560" y="645" type="line" smooth="yes"/>
      <point x="555" y="654"/>
      <point x="549" y="658"/>
      <point x="540" y="658" type="curve" smooth="yes"/>
      <point x="535" y="658"/>
      <point x="529" y="656"/>
      <point x="522" y="653" type="curve" smooth="yes"/>
      <point x="63" y="408" type="line" smooth="yes"/>
      <point x="50" y="401"/>
      <point x="43" y="392"/>
      <point x="43" y="381" type="curve" smooth="yes"/>
    </contour>
  </outline>
</glyph>
<glyph name="greater" format="1">
  <advance width="625"/>
  <unicode hex="003E"/>
  <outline>
    <contour>
      <point x="55" y="118"/>
      <point x="56" y="114"/>
      <point x="59" y="107" type="curve" smooth="yes"/>
      <point x="77" y="73" type="line" smooth="yes"/>
      <point x="81" y="64"/>
      <point x="87" y="60"/>
      <point x="96" y="60" type="curve" smooth="yes"/>
      <point x="101" y="60"/>
      <point x="107" y="62"/>
      <point x="114" y="65" type="curve" smooth="yes"/>
      <point x="574" y="310" type="line" smooth="yes"/>
      <point x="586" y="317"/>
      <point x="593" y="324"/>
      <point x="593" y="336" type="curve" smooth="yes"/>
      <point x="593" y="381" type="line" smooth="yes"/>
      <point x="593" y="392"/>
      <point x="587" y="401"/>
      <point x="574" y="408" type="curve" smooth="yes"/>
      <point x="114" y="653" type="line" smooth="yes"/>
      <point x="107" y="656"/>
      <point x="101" y="658"/>
      <point x="96" y="658" type="curve" smooth="yes"/>
      <point x="87" y="658"/>
      <point x="81" y="654"/>
      <point x="77" y="645" type="curve" smooth="yes"/>
      <point x="59" y="610" type="line" smooth="yes"/>
      <point x="56" y="605"/>
      <point x="55" y="601"/>
      <point x="55" y="598" type="curve" smooth="yes"/>
      <point x="55" y="589"/>
      <point x="61" y="581"/>
      <point x="73" y="575" type="curve" smooth="yes"/>
      <point x="480" y="358" type="line"/>
      <point x="73" y="143" type="line" smooth="yes"/>
      <point x="61" y="136"/>
      <point x="55" y="128"/>
      <point x="55" y="120" type="curve" smooth="yes"/>
    </contour>
  </outline>
</glyph>
<glyph name="question" format="1">
  <advance width="540"/>
  <unicode hex="003F"/>
  <outline>
    <contour>
      <point x="60" y="579"/>
      <point x="65" y="571"/>
      <point x="75" y="565" type="curve" smooth="yes"/>
      <point x="126" y="533" type="line" smooth="yes"/>
      <point x="133" y="528"/>
      <point x="139" y="526"/>
      <point x="146" y="526" type="curve" smooth="yes"/>
      <point x="163" y="526"/>
      <point x="192" y="573"/>
      <point x="212" y="588" type="curve" smooth="yes"/>
      <point x="229" y="601"/>
      <point x="251" y="607"/>
      <point x="280" y="607" type="curve" smooth="yes"/>
      <point x="341" y="607"/>
      <point x="364" y="580"/>
      <point x="364" y="524" type="curve" smooth="yes"/>
      <point x="364" y="500"/>
      <point x="339" y="461"/>
      <point x="288" y="407" type="curve" smooth="yes"/>
      <point x="237" y="354"/>
      <point x="212" y="301"/>
      <point x="212" y="248" type="curve" smooth="yes"/>
      <point x="212" y="233" type="line" smooth="yes"/>
      <point x="212" y="212"/>
      <point x="223" y="202"/>
      <point x="244" y="202" type="curve" smooth="yes"/>
      <point x="317" y="202" type="line" smooth="yes"/>
      <point x="338" y="202"/>
      <point x="349" y="212"/>
      <point x="349" y="233" type="curve" smooth="yes"/>
      <point x="349" y="241" type="line" smooth="yes"/>
      <point x="349" y="276"/>
      <point x="376" y="320"/>
      <point x="429" y="373" type="curve" smooth="yes"/>
      <point x="483" y="426"/>
      <point x="510" y="476"/>
      <point x="510" y="521" type="curve" smooth="yes"/>
      <point x="510" y="645"/>
      <point x="435" y="717"/>
      <point x="285" y="717" type="curve" smooth="yes"/>
      <point x="154" y="717"/>
      <point x="60" y="638"/>
      <point x="60" y="590" type="curve" smooth="yes"/>
    </contour>
    <contour>
      <point x="209" y="37" type="line" smooth="yes"/>
      <point x="209" y="12"/>
      <point x="220" y="0"/>
      <point x="243" y="0" type="curve" smooth="yes"/>
      <point x="317" y="0" type="line" smooth="yes"/>
      <point x="340" y="0"/>
      <point x="352" y="12"/>
      <point x="352" y="37" type="curve" smooth="yes"/>
      <point x="352" y="102" type="line" smooth="yes"/>
      <point x="352" y="127"/>
      <point x="340" y="139"/>
      <point x="317" y="139" type="curve" smooth="yes"/>
      <point x="243" y="139" type="line" smooth="yes"/>
      <point x="220" y="139"/>
      <point x="209" y="127"/>
      <point x="209" y="102" type="curve" smooth="yes"/>
    </contour>
  </outline>
</glyph>
<glyph name="A" format="1">
  <advance width="681"/>
  <unicode hex="0041"/>
  <outline>
    <contour>
      <point x="30" y="6"/>
      <point x="39" y="0"/>
      <point x="56" y="0" type="curve" smooth="yes"/>
      <point x="134" y="0" type="line" smooth="yes"/>
      <point x="155" y="0"/>
      <point x="170" y="11"/>
      <point x="179" y="34" type="curve" smooth="yes"/>
      <point x="229" y="165" type="line"/>
      <point x="477" y="165" type="line"/>
      <point x="526" y="34" type="line" smooth="yes"/>
      <point x="535" y="11"/>
      <point x="550" y="0"/>
      <point x="571" y="0" type="curve" smooth="yes"/>
      <point x="649" y="0" type="line" smooth="yes"/>
      <point x="666" y="0"/>
      <point x="675" y="6"/>
      <point x="675" y="18" type="curve" smooth="yes"/>
      <point x="675" y="23"/>
      <point x="674" y="27"/>
      <point x="672" y="32" type="curve" smooth="yes"/>
      <point x="433" y="661" type="line"/>
      <point x="422" y="687"/>
      <point x="407" y="700"/>
      <point x="387" y="700" type="curve" smooth="yes"/>
      <point x="318" y="700" type="line" smooth="yes"/>
      <point x="299" y="700"/>
      <point x="283" y="687"/>
      <point x="272" y="661" type="curve"/>
      <point x="33" y="32" type="line" smooth="yes"/>
      <point x="31" y="27"/>
      <point x="30" y="23"/>
      <point x="30" y="18" type="curve" smooth="yes"/>
    </contour>
    <contour>
      <point x="274" y="286" type="line"/>
      <point x="334" y="441" type="line" smooth="yes"/>
      <point x="340" y="456"/>
      <point x="343" y="469"/>
      <point x="347" y="481" type="curve"/>
      <point x="352" y="518" type="line"/>
      <point x="354" y="518" type="line"/>
      <point x="356" y="476"/>
      <point x="355" y="482"/>
      <point x="371" y="441" type="curve" smooth="yes"/>
      <point x="431" y="286" type="line"/>
    </contour>
    <contour>
      <point x="0" y="0" type="move" name="mark3"/>
    </contour>
    <contour>
      <point x="350" y="717" type="move" name="mark2"/>
    </contour>
    <contour>
      <point x="340" y="0" type="move" name="mark1"/>
    </contour>
    <contour>
      <point x="0" y="0" type="move" name="mark4"/>
    </contour>
    <contour>
      <point x="572" y="0" type="move" name="mark0"/>
    </contour>
  </outline>
</glyph>
<glyph name="B" format="1">
  <advance width="673"/>
  <unicode hex="0042"/>
  <outline>
    <contour>
      <point x="78" y="37" type="line" smooth="yes"/>
      <point x="78" y="12"/>
      <point x="91" y="0"/>
      <point x="117" y="0" type="curve" smooth="yes"/>
      <point x="308" y="0" type="line" smooth="yes"/>
      <point x="532" y="0"/>
      <point x="623" y="84"/>
      <point x="623" y="201" type="curve" smooth="yes"/>
      <point x="623" y="307"/>
      <point x="511" y="361"/>
      <point x="458" y="365" type="curve"/>
      <point x="458" y="366" type="line"/>
      <point x="516" y="373"/>
      <point x="602" y="423"/>
      <point x="602" y="512" type="curve" smooth="yes"/>
      <point x="602" y="636"/>
      <point x="541" y="700"/>
      <point x="283" y="700" type="curve" smooth="yes"/>
      <point x="117" y="700" type="line" smooth="yes"/>
      <point x="91" y="700"/>
      <point x="78" y="688"/>
      <point x="78" y="664" type="curve" smooth="yes"/>
    </contour>
    <contour>
      <point x="221" y="417" type="line"/>
      <point x="221" y="581" type="line"/>
      <point x="285" y="581" type="line" smooth="yes"/>
      <point x="444" y="581"/>
      <point x="458" y="551"/>
      <point x="458" y="507" type="curve" smooth="yes"/>
      <point x="458" y="447"/>
      <point x="370" y="417"/>
      <point x="285" y="417" type="curve" smooth="yes"/>
    </contour>
    <contour>
      <point x="221" y="119" type="line"/>
      <point x="221" y="302" type="line"/>
      <point x="292" y="302" type="line" smooth="yes"/>
      <point x="409" y="302"/>
      <point x="470" y="282"/>
      <point x="470" y="210" type="curve" smooth="yes"/>
      <point x="470" y="136"/>
      <point x="431" y="119"/>
      <point x="292" y="119" type="curve" smooth="yes"/>
    </contour>
    <contour>
      <point x="0" y="0" type="move" name="mark3"/>
    </contour>
    <contour>
      <point x="328" y="717" type="move" name="mark2"/>
    </contour>
    <contour>
      <point x="328" y="0" type="move" name="mark1"/>
    </contour>
    <contour>
      <point x="0" y="0" type="move" name="mark4"/>
    </contour>
    <contour>
      <point x="0" y="0" type="move" name="mark0"/>
    </contour>
  </outline>
</glyph>
<glyph name="C" format="1">
  <advance width="692"/>
  <unicode hex="0043"/>
  <outline>
    <contour>
      <point x="70" y="553"/>
      <point x="42" y="463"/>
      <point x="42" y="350" type="curve" smooth="yes"/>
      <point x="42" y="121"/>
      <point x="167" y="-17"/>
      <point x="374" y="-17" type="curve" smooth="yes"/>
      <point x="502" y="-17"/>
      <point x="601" y="36"/>
      <point x="639" y="102" type="curve"/>
      <point x="644" y="113"/>
      <point x="647" y="121"/>
      <point x="647" y="128" type="curve" smooth="yes"/>
      <point x="647" y="137"/>
      <point x="643" y="144"/>
      <point x="634" y="150" type="curve" smooth="yes"/>
      <point x="575" y="189" type="line" smooth="yes"/>
      <point x="569" y="193"/>
      <point x="563" y="195"/>
      <point x="558" y="195" type="curve" smooth="yes"/>
      <point x="531" y="195"/>
      <point x="502" y="99"/>
      <point x="379" y="99" type="curve" smooth="yes"/>
      <point x="238" y="99"/>
      <point x="194" y="194"/>
      <point x="194" y="350" type="curve" smooth="yes"/>
      <point x="194" y="512"/>
      <point x="242" y="602"/>
      <point x="379" y="602" type="curve" smooth="yes"/>
      <point x="498" y="602"/>
      <point x="507" y="519"/>
      <point x="540" y="519" type="curve" smooth="yes"/>
      <point x="544" y="519"/>
      <point x="550" y="521"/>
      <point x="558" y="524" type="curve"/>
      <point x="616" y="556" type="line" smooth="yes"/>
      <point x="625" y="561"/>
      <point x="630" y="569"/>
      <point x="630" y="578" type="curve" smooth="yes"/>
      <point x="630" y="585"/>
      <point x="627" y="593"/>
      <point x="622" y="604" type="curve" smooth="yes"/>
      <point x="587" y="677"/>
      <point x="498" y="717"/>
      <point x="374" y="717" type="curve" smooth="yes"/>
      <point x="267" y="717"/>
      <point x="185" y="684"/>
      <point x="127" y="618" type="curve" smooth="yes"/>
    </contour>
    <contour>
      <point x="0" y="0" type="move" name="mark3"/>
    </contour>
    <contour>
      <point x="374" y="717" type="move" name="mark2"/>
    </contour>
    <contour>
      <point x="374" y="0" type="move" name="mark1"/>
    </contour>
    <contour>
      <point x="0" y="0" type="move" name="mark4"/>
    </contour>
    <contour>
      <point x="0" y="0" type="move" name="mark0"/>
    </contour>
  </outline>
</glyph>
<glyph name="D" format="1">
  <advance width="708"/>
  <unicode hex="0044"/>
  <outline>
    <contour>
      <point x="78" y="37" type="line" smooth="yes"/>
      <point x="78" y="12"/>
      <point x="89" y="0"/>
      <point x="112" y="0" type="curve" smooth="yes"/>
      <point x="283" y="0" type="line" smooth="yes"/>
      <point x="586" y="0"/>
      <point x="666" y="130"/>
      <point x="666" y="351" type="curve" smooth="yes"/>
      <point x="666" y="573"/>
      <point x="585" y="700"/>
      <point x="283" y="700" type="curve" smooth="yes"/>
      <point x="112" y="700" type="line" smooth="yes"/>
      <point x="89" y="700"/>
      <point x="78" y="688"/>
      <point x="78" y="664" type="curve" smooth="yes"/>
    </contour>
    <contour>
      <point x="221" y="121" type="line"/>
      <point x="221" y="580" type="line"/>
      <point x="273" y="580" type="line" smooth="yes"/>
      <point x="479" y="580"/>
      <point x="514" y="505"/>
      <point x="514" y="351" type="curve" smooth="yes"/>
      <point x="514" y="198"/>
      <point x="480" y="121"/>
      <point x="273" y="121" type="curve" smooth="yes"/>
    </contour>
    <contour>
      <point x="0" y="0" type="move" name="mark3"/>
    </contour>
    <contour>
      <point x="350" y="717" type="move" name="mark2"/>
    </contour>
    <contour>
      <point x="350" y="0" type="move" name="mark1"/>
    </contour>
    <contour>
      <point x="0" y="0" type="move" name="mark4"/>
    </contour>
    <contour>
      <point x="0" y="0" type="move" name="mark0"/>
    </contour>
  </outline>
</glyph>
<glyph name="E" format="1">
  <advance width="625"/>
  <unicode hex="0045"/>
  <outline>
    <contour>
      <point x="78" y="37" type="line" smooth="yes"/>
      <point x="78" y="12"/>
      <point x="89" y="0"/>
      <point x="112" y="0" type="curve" smooth="yes"/>
      <point x="547" y="0" type="line" smooth="yes"/>
      <point x="571" y="0"/>
      <point x="583" y="11"/>
      <point x="583" y="32" type="curve" smooth="yes"/>
      <point x="583" y="89" type="line" smooth="yes"/>
      <point x="583" y="110"/>
      <point x="571" y="121"/>
      <point x="547" y="121" type="curve" smooth="yes"/>
      <point x="221" y="121" type="line"/>
      <point x="221" y="303" type="line"/>
      <point x="505" y="303" type="line" smooth="yes"/>
      <point x="530" y="303"/>
      <point x="542" y="313"/>
      <point x="542" y="334" type="curve" smooth="yes"/>
      <point x="542" y="392" type="line" smooth="yes"/>
      <point x="542" y="413"/>
      <point x="530" y="424"/>
      <point x="505" y="424" type="curve" smooth="yes"/>
      <point x="221" y="424" type="line"/>
      <point x="221" y="579" type="line"/>
      <point x="531" y="579" type="line" smooth="yes"/>
      <point x="556" y="579"/>
      <point x="568" y="590"/>
      <point x="568" y="611" type="curve" smooth="yes"/>
      <point x="568" y="668" type="line" smooth="yes"/>
      <point x="568" y="689"/>
      <point x="556" y="700"/>
      <point x="531" y="700" type="curve" smooth="yes"/>
      <point x="112" y="700" type="line" smooth="yes"/>
      <point x="89" y="700"/>
      <point x="78" y="688"/>
      <point x="78" y="664" type="curve" smooth="yes"/>
    </contour>
    <contour>
      <point x="0" y="0" type="move" name="mark3"/>
    </contour>
    <contour>
      <point x="331" y="717" type="move" name="mark2"/>
    </contour>
    <contour>
      <point x="331" y="0" type="move" name="mark1"/>
    </contour>
    <contour>
      <point x="0" y="0" type="move" name="mark4"/>
    </contour>
    <contour>
      <point x="331" y="0" type="move" name="mark0"/>
    </contour>
  </outline>
</glyph>
<glyph name="G" format="1">
  <advance width="735"/>
  <unicode hex="0047"/>
  <outline>
    <contour>
      <point x="71" y="553"/>
      <point x="42" y="463"/>
      <point x="42" y="350" type="curve" smooth="yes"/>
      <point x="42" y="124"/>
      <point x="169" y="-17"/>
      <point x="379" y="-17" type="curve" smooth="yes"/>
      <point x="505" y="-17"/>
      <point x="590" y="7"/>
      <point x="681" y="74" type="curve"/>
      <point x="681" y="322" type="line" smooth="yes"/>
      <point x="681" y="343"/>
      <point x="669" y="354"/>
      <point x="644" y="354" type="curve" smooth="yes"/>
      <point x="432" y="354" type="line" smooth="yes"/>
      <point x="408" y="354"/>
      <point x="396" y="343"/>
      <point x="396" y="322" type="curve" smooth="yes"/>
      <point x="396" y="264" type="line" smooth="yes"/>
      <point x="396" y="243"/>
      <point x="408" y="232"/>
      <point x="432" y="232" type="curve" smooth="yes"/>
      <point x="538" y="232" type="line"/>
      <point x="538" y="145" type="line"/>
      <point x="497" y="110"/>
      <point x="452" y="99"/>
      <point x="384" y="99" type="curve" smooth="yes"/>
      <point x="242" y="99"/>
      <point x="194" y="195"/>
      <point x="194" y="350" type="curve" smooth="yes"/>
      <point x="194" y="511"/>
      <point x="246" y="602"/>
      <point x="384" y="602" type="curve" smooth="yes"/>
      <point x="437" y="602"/>
      <point x="488" y="579"/>
      <point x="520" y="543" type="curve" smooth="yes"/>
      <point x="532" y="530"/>
      <point x="544" y="524"/>
      <point x="555" y="524" type="curve" smooth="yes"/>
      <point x="560" y="524"/>
      <point x="565" y="526"/>
      <point x="572" y="529" type="curve"/>
      <point x="627" y="565" type="line" smooth="yes"/>
      <point x="637" y="571"/>
      <point x="642" y="578"/>
      <point x="642" y="587" type="curve" smooth="yes"/>
      <point x="642" y="621"/>
      <point x="570" y="674"/>
      <point x="531" y="692" type="curve" smooth="yes"/>
      <point x="494" y="709"/>
      <point x="443" y="717"/>
      <point x="379" y="717" type="curve" smooth="yes"/>
      <point x="271" y="717"/>
      <point x="188" y="684"/>
      <point x="130" y="618" type="curve"/>
    </contour>
    <contour>
      <point x="0" y="0" type="move" name="mark3"/>
    </contour>
    <contour>
      <point x="379" y="717" type="move" name="mark2"/>
    </contour>
    <contour>
      <point x="379" y="0" type="move" name="mark1"/>
    </contour>
    <contour>
      <point x="0" y="0" type="move" name="mark4"/>
    </contour>
    <contour>
      <point x="0" y="0" type="move" name="mark0"/>
    </contour>
  </outline>
</glyph>
<glyph name="H" format="1">
  <advance width="704"/>
  <unicode hex="0048"/>
  <outline>
    <contour>
      <point x="78" y="37" type="line" smooth="yes"/>
      <point x="78" y="12"/>
      <point x="89" y="0"/>
      <point x="112" y="0" type="curve" smooth="yes"/>
      <point x="187" y="0" type="line" smooth="yes"/>
      <point x="210" y="0"/>
      <point x="221" y="12"/>
      <point x="221" y="37" type="curve" smooth="yes"/>
      <point x="221" y="304" type="line"/>
      <point x="483" y="304" type="line"/>
      <point x="483" y="37" type="line" smooth="yes"/>
      <point x="483" y="12"/>
      <point x="495" y="0"/>
      <point x="518" y="0" type="curve" smooth="yes"/>
      <point x="592" y="0" type="line" smooth="yes"/>
      <point x="615" y="0"/>
      <point x="626" y="12"/>
      <point x="626" y="37" type="curve" smooth="yes"/>
      <point x="626" y="664" type="line" smooth="yes"/>
      <point x="626" y="688"/>
      <point x="615" y="700"/>
      <point x="592" y="700" type="curve" smooth="yes"/>
      <point x="518" y="700" type="line" smooth="yes"/>
      <point x="495" y="700"/>
      <point x="483" y="688"/>
      <point x="483" y="664" type="curve" smooth="yes"/>
      <point x="483" y="425" type="line"/>
      <point x="221" y="425" type="line"/>
      <point x="221" y="664" type="line" smooth="yes"/>
      <point x="221" y="688"/>
      <point x="210" y="700"/>
      <point x="187" y="700" type="curve" smooth="yes"/>
      <point x="112" y="700" type="line" smooth="yes"/>
      <point x="89" y="700"/>
      <point x="78" y="688"/>
      <point x="78" y="664" type="curve" smooth="yes"/>
    </contour>
    <contour>
      <point x="0" y="0" type="move" name="mark3"/>
    </contour>
    <contour>
      <point x="352" y="717" type="move" name="mark2"/>
    </contour>
    <contour>
      <point x="352" y="0" type="move" name="mark1"/>
    </contour>
    <contour>
      <point x="0" y="0" type="move" name="mark4"/>
    </contour>
    <contour>
      <point x="0" y="0" type="move" name="mark0"/>
    </contour>
  </outline>
</glyph>
<glyph name="I" format="1">
  <advance width="299"/>
  <unicode hex="0049"/>
  <outline>
    <contour>
      <point x="78" y="37" type="line" smooth="yes"/>
      <point x="78" y="12"/>
      <point x="89" y="0"/>
      <point x="112" y="0" type="curve" smooth="yes"/>
      <point x="187" y="0" type="line" smooth="yes"/>
      <point x="210" y="0"/>
      <point x="221" y="12"/>
      <point x="221" y="37" type="curve" smooth="yes"/>
      <point x="221" y="664" type="line" smooth="yes"/>
      <point x="221" y="688"/>
      <point x="210" y="700"/>
      <point x="187" y="700" type="curve" smooth="yes"/>
      <point x="112" y="700" type="line" smooth="yes"/>
      <point x="89" y="700"/>
      <point x="78" y="688"/>
      <point x="78" y="664" type="curve" smooth="yes"/>
    </contour>
    <contour>
      <point x="0" y="0" type="move" name="mark3"/>
    </contour>
    <contour>
      <point x="149" y="717" type="move" name="mark2"/>
    </contour>
    <contour>
      <point x="149" y="0" type="move" name="mark1"/>
    </contour>
    <contour>
      <point x="0" y="0" type="move" name="mark4"/>
    </contour>
    <contour>
      <point x="149" y="0" type="move" name="mark0"/>
    </contour>
  </outline>
</glyph>
<glyph name="J" format="1">
  <advance width="462"/>
  <unicode hex="004A"/>
  <outline>
    <contour>
      <point x="24" y="46" type="line" smooth="yes"/>
      <point x="23" y="43"/>
      <point x="23" y="41"/>
      <point x="23" y="39" type="curve" smooth="yes"/>
      <point x="23" y="3"/>
      <point x="97" y="-17"/>
      <point x="163" y="-17" type="curve" smooth="yes"/>
      <point x="234" y="-17"/>
      <point x="289" y="1"/>
      <point x="330" y="36" type="curve" smooth="yes"/>
      <point x="371" y="72"/>
      <point x="391" y="150"/>
      <point x="391" y="269" type="curve" smooth="yes"/>
      <point x="391" y="664" type="line" smooth="yes"/>
      <point x="391" y="688"/>
      <point x="379" y="700"/>
      <point x="356" y="700" type="curve" smooth="yes"/>
      <point x="282" y="700" type="line" smooth="yes"/>
      <point x="259" y="700"/>
      <point x="248" y="688"/>
      <point x="248" y="664" type="curve" smooth="yes"/>
      <point x="248" y="259" type="line" smooth="yes"/>
      <point x="248" y="139"/>
      <point x="231" y="99"/>
      <point x="162" y="99" type="curve" smooth="yes"/>
      <point x="119" y="99"/>
      <point x="82" y="129"/>
      <point x="64" y="129" type="curve" smooth="yes"/>
      <point x="54" y="129"/>
      <point x="48" y="124"/>
      <point x="45" y="113" type="curve" smooth="yes"/>
    </contour>
    <contour>
      <point x="0" y="0" type="move" name="mark3"/>
    </contour>
    <contour>
      <point x="313" y="717" type="move" name="mark2"/>
    </contour>
    <contour>
      <point x="201" y="0" type="move" name="mark1"/>
    </contour>
    <contour>
      <point x="0" y="0" type="move" name="mark4"/>
    </contour>
    <contour>
      <point x="0" y="0" type="move" name="mark0"/>
    </contour>
  </outline>
</glyph>
<glyph name="K" format="1">
  <advance width="665"/>
  <unicode hex="004B"/>
  <outline>
    <contour>
      <point x="78" y="37" type="line" smooth="yes"/>
      <point x="78" y="12"/>
      <point x="89" y="0"/>
      <point x="112" y="0" type="curve" smooth="yes"/>
      <point x="187" y="0" type="line" smooth="yes"/>
      <point x="210" y="0"/>
      <point x="221" y="12"/>
      <point x="221" y="37" type="curve" smooth="yes"/>
      <point x="221" y="218" type="line"/>
      <point x="303" y="311" type="line"/>
      <point x="482" y="29" type="line" smooth="yes"/>
      <point x="494" y="10"/>
      <point x="510" y="0"/>
      <point x="526" y="0" type="curve" smooth="yes"/>
      <point x="618" y="0" type="line" smooth="yes"/>
      <point x="637" y="0"/>
      <point x="646" y="5"/>
      <point x="646" y="16" type="curve" smooth="yes"/>
      <point x="646" y="24"/>
      <point x="643" y="33"/>
      <point x="636" y="42" type="curve"/>
      <point x="398" y="415" type="line"/>
      <point x="621" y="658" type="line" smooth="yes"/>
      <point x="631" y="669"/>
      <point x="636" y="678"/>
      <point x="636" y="685" type="curve" smooth="yes"/>
      <point x="636" y="695"/>
      <point x="625" y="700"/>
      <point x="602" y="700" type="curve" smooth="yes"/>
      <point x="504" y="700" type="line" smooth="yes"/>
      <point x="492" y="700"/>
      <point x="477" y="690"/>
      <point x="459" y="671" type="curve" smooth="yes"/>
      <point x="222" y="411" type="line"/>
      <point x="218" y="411" type="line"/>
      <point x="220" y="430"/>
      <point x="221" y="450"/>
      <point x="221" y="469" type="curve" smooth="yes"/>
      <point x="221" y="664" type="line" smooth="yes"/>
      <point x="221" y="688"/>
      <point x="210" y="700"/>
      <point x="187" y="700" type="curve" smooth="yes"/>
      <point x="112" y="700" type="line" smooth="yes"/>
      <point x="89" y="700"/>
      <point x="78" y="688"/>
      <point x="78" y="664" type="curve" smooth="yes"/>
    </contour>
    <contour>
      <point x="0" y="0" type="move" name="mark3"/>
    </contour>
    <contour>
      <point x="362" y="717" type="move" name="mark2"/>
    </contour>
    <contour>
      <point x="362" y="0" type="move" name="mark1"/>
    </contour>
    <contour>
      <point x="0" y="0" type="move" name="mark4"/>
    </contour>
    <contour>
      <point x="0" y="0" type="move" name="mark0"/>
    </contour>
  </outline>
</glyph>
<glyph name="L" format="1">
  <advance width="567"/>
  <unicode hex="004C"/>
  <outline>
    <contour>
      <point x="78" y="37" type="line" smooth="yes"/>
      <point x="78" y="12"/>
      <point x="89" y="0"/>
      <point x="112" y="0" type="curve" smooth="yes"/>
      <point x="505" y="0" type="line" smooth="yes"/>
      <point x="530" y="0"/>
      <point x="542" y="11"/>
      <point x="542" y="32" type="curve" smooth="yes"/>
      <point x="542" y="89" type="line" smooth="yes"/>
      <point x="542" y="110"/>
      <point x="530" y="121"/>
      <point x="505" y="121" type="curve" smooth="yes"/>
      <point x="221" y="121" type="line"/>
      <point x="221" y="664" type="line" smooth="yes"/>
      <point x="221" y="688"/>
      <point x="211" y="700"/>
      <point x="191" y="700" type="curve" smooth="yes"/>
      <point x="112" y="700" type="line" smooth="yes"/>
      <point x="89" y="700"/>
      <point x="78" y="688"/>
      <point x="78" y="664" type="curve" smooth="yes"/>
    </contour>
    <contour>
      <point x="0" y="0" type="move" name="mark3"/>
    </contour>
    <contour>
      <point x="310" y="717" type="move" name="mark2"/>
    </contour>
    <contour>
      <point x="310" y="0" type="move" name="mark1"/>
    </contour>
    <contour>
      <point x="0" y="0" type="move" name="mark4"/>
    </contour>
    <contour>
      <point x="0" y="0" type="move" name="mark0"/>
    </contour>
  </outline>
</glyph>
<glyph name="M" format="1">
  <advance width="893"/>
  <unicode hex="004D"/>
  <outline>
    <contour>
      <point x="78" y="37" type="line" smooth="yes"/>
      <point x="78" y="12"/>
      <point x="89" y="0"/>
      <point x="112" y="0" type="curve" smooth="yes"/>
      <point x="187" y="0" type="line" smooth="yes"/>
      <point x="210" y="0"/>
      <point x="221" y="12"/>
      <point x="221" y="37" type="curve" smooth="yes"/>
      <point x="221" y="440" type="line" smooth="yes"/>
      <point x="221" y="459"/>
      <point x="220" y="479"/>
      <point x="218" y="499" type="curve"/>
      <point x="222" y="499" type="line"/>
      <point x="363" y="40" type="line" smooth="yes"/>
      <point x="371" y="13"/>
      <point x="385" y="0"/>
      <point x="405" y="0" type="curve" smooth="yes"/>
      <point x="488" y="0" type="line" smooth="yes"/>
      <point x="506" y="0"/>
      <point x="522" y="13"/>
      <point x="530" y="40" type="curve" smooth="yes"/>
      <point x="671" y="499" type="line"/>
      <point x="674" y="499" type="line"/>
      <point x="673" y="472"/>
      <point x="672" y="453"/>
      <point x="672" y="440" type="curve" smooth="yes"/>
      <point x="672" y="37" type="line" smooth="yes"/>
      <point x="672" y="12"/>
      <point x="683" y="0"/>
      <point x="706" y="0" type="curve" smooth="yes"/>
      <point x="780" y="0" type="line" smooth="yes"/>
      <point x="803" y="0"/>
      <point x="814" y="12"/>
      <point x="814" y="37" type="curve" smooth="yes"/>
      <point x="814" y="664" type="line" smooth="yes"/>
      <point x="814" y="688"/>
      <point x="803" y="700"/>
      <point x="780" y="700" type="curve" smooth="yes"/>
      <point x="639" y="700" type="line" smooth="yes"/>
      <point x="620" y="700"/>
      <point x="606" y="687"/>
      <point x="598" y="661" type="curve" smooth="yes"/>
      <point x="466" y="233" type="line" smooth="yes"/>
      <point x="453" y="192"/>
      <point x="450" y="178"/>
      <point x="448" y="145" type="curve"/>
      <point x="445" y="145" type="line"/>
      <point x="439" y="187" type="line" smooth="yes"/>
      <point x="437" y="198"/>
      <point x="433" y="214"/>
      <point x="427" y="233" type="curve" smooth="yes"/>
      <point x="294" y="661" type="line" smooth="yes"/>
      <point x="286" y="687"/>
      <point x="273" y="700"/>
      <point x="254" y="700" type="curve" smooth="yes"/>
      <point x="112" y="700" type="line" smooth="yes"/>
      <point x="89" y="700"/>
      <point x="78" y="688"/>
      <point x="78" y="664" type="curve" smooth="yes"/>
    </contour>
    <contour>
      <point x="0" y="0" type="move" name="mark3"/>
    </contour>
    <contour>
      <point x="446" y="717" type="move" name="mark2"/>
    </contour>
    <contour>
      <point x="446" y="0" type="move" name="mark1"/>
    </contour>
    <contour>
      <point x="0" y="0" type="move" name="mark4"/>
    </contour>
    <contour>
      <point x="0" y="0" type="move" name="mark0"/>
    </contour>
  </outline>
</glyph>
<glyph name="N" format="1">
  <advance width="719"/>
  <unicode hex="004E"/>
  <outline>
    <contour>
      <point x="78" y="37" type="line" smooth="yes"/>
      <point x="78" y="12"/>
      <point x="89" y="0"/>
      <point x="112" y="0" type="curve" smooth="yes"/>
      <point x="187" y="0" type="line" smooth="yes"/>
      <point x="210" y="0"/>
      <point x="221" y="12"/>
      <point x="221" y="37" type="curve" smooth="yes"/>
      <point x="221" y="383" type="line" smooth="yes"/>
      <point x="221" y="403"/>
      <point x="220" y="422"/>
      <point x="218" y="441" type="curve"/>
      <point x="222" y="441" type="line"/>
      <point x="476" y="34" type="line" smooth="yes"/>
      <point x="490" y="11"/>
      <point x="511" y="0"/>
      <point x="539" y="0" type="curve" smooth="yes"/>
      <point x="606" y="0" type="line" smooth="yes"/>
      <point x="629" y="0"/>
      <point x="641" y="12"/>
      <point x="641" y="37" type="curve" smooth="yes"/>
      <point x="641" y="664" type="line" smooth="yes"/>
      <point x="641" y="688"/>
      <point x="629" y="700"/>
      <point x="606" y="700" type="curve" smooth="yes"/>
      <point x="532" y="700" type="line" smooth="yes"/>
      <point x="509" y="700"/>
      <point x="498" y="688"/>
      <point x="498" y="664" type="curve" smooth="yes"/>
      <point x="498" y="325" type="line" smooth="yes"/>
      <point x="498" y="312"/>
      <point x="499" y="293"/>
      <point x="500" y="266" type="curve"/>
      <point x="497" y="266" type="line"/>
      <point x="248" y="666" type="line" smooth="yes"/>
      <point x="234" y="689"/>
      <point x="213" y="700"/>
      <point x="185" y="700" type="curve" smooth="yes"/>
      <point x="112" y="700" type="line" smooth="yes"/>
      <point x="89" y="700"/>
      <point x="78" y="688"/>
      <point x="78" y="664" type="curve" smooth="yes"/>
    </contour>
    <contour>
      <point x="0" y="0" type="move" name="mark3"/>
    </contour>
    <contour>
      <point x="359" y="717" type="move" name="mark2"/>
    </contour>
    <contour>
      <point x="359" y="0" type="move" name="mark1"/>
    </contour>
    <contour>
      <point x="0" y="0" type="move" name="mark4"/>
    </contour>
    <contour>
      <point x="0" y="0" type="move" name="mark0"/>
    </contour>
  </outline>
</glyph>
<glyph name="O" format="1">
  <advance width="754"/>
  <unicode hex="004F"/>
  <outline>
    <contour>
      <point x="71" y="552"/>
      <point x="42" y="463"/>
      <point x="42" y="350" type="curve" smooth="yes"/>
      <point x="42" y="123"/>
      <point x="166" y="-17"/>
      <point x="377" y="-17" type="curve" smooth="yes"/>
      <point x="587" y="-17"/>
      <point x="712" y="123"/>
      <point x="712" y="350" type="curve" smooth="yes"/>
      <point x="712" y="574"/>
      <point x="592" y="717"/>
      <point x="377" y="717" type="curve" smooth="yes"/>
      <point x="270" y="717"/>
      <point x="187" y="684"/>
      <point x="129" y="618" type="curve" smooth="yes"/>
    </contour>
    <contour>
      <point x="255" y="99"/>
      <point x="194" y="183"/>
      <point x="194" y="350" type="curve" smooth="yes"/>
      <point x="194" y="517"/>
      <point x="252" y="602"/>
      <point x="377" y="602" type="curve" smooth="yes"/>
      <point x="502" y="602"/>
      <point x="560" y="517"/>
      <point x="560" y="350" type="curve" smooth="yes"/>
      <point x="560" y="183"/>
      <point x="499" y="99"/>
      <point x="377" y="99" type="curve" smooth="yes"/>
    </contour>
    <contour>
      <point x="0" y="0" type="move" name="mark3"/>
    </contour>
    <contour>
      <point x="377" y="717" type="move" name="mark2"/>
    </contour>
    <contour>
      <point x="377" y="0" type="move" name="mark1"/>
    </contour>
    <contour>
      <point x="0" y="0" type="move" name="mark4"/>
    </contour>
    <contour>
      <point x="377" y="0" type="move" name="mark0"/>
    </contour>
  </outline>
</glyph>
<glyph name="P" format="1">
  <advance width="648"/>
  <unicode hex="0050"/>
  <outline>
    <contour>
      <point x="78" y="37" type="line" smooth="yes"/>
      <point x="78" y="12"/>
      <point x="89" y="0"/>
      <point x="112" y="0" type="curve" smooth="yes"/>
      <point x="187" y="0" type="line" smooth="yes"/>
      <point x="210" y="0"/>
      <point x="221" y="12"/>
      <point x="221" y="37" type="curve" smooth="yes"/>
      <point x="221" y="262" type="line"/>
      <point x="295" y="262" type="line" smooth="yes"/>
      <point x="531" y="262"/>
      <point x="607" y="342"/>
      <point x="607" y="481" type="curve" smooth="yes"/>
      <point x="607" y="620"/>
      <point x="531" y="700"/>
      <point x="295" y="700" type="curve" smooth="yes"/>
      <point x="112" y="700" type="line" smooth="yes"/>
      <point x="89" y="700"/>
      <point x="78" y="688"/>
      <point x="78" y="664" type="curve" smooth="yes"/>
    </contour>
    <contour>
      <point x="221" y="381" type="line"/>
      <point x="221" y="581" type="line"/>
      <point x="294" y="581" type="line" smooth="yes"/>
      <point x="426" y="581"/>
      <point x="462" y="553"/>
      <point x="462" y="481" type="curve" smooth="yes"/>
      <point x="462" y="408"/>
      <point x="425" y="381"/>
      <point x="294" y="381" type="curve" smooth="yes"/>
    </contour>
    <contour>
      <point x="0" y="0" type="move" name="mark3"/>
    </contour>
    <contour>
      <point x="320" y="717" type="move" name="mark2"/>
    </contour>
    <contour>
      <point x="320" y="0" type="move" name="mark1"/>
    </contour>
    <contour>
      <point x="0" y="0" type="move" name="mark4"/>
    </contour>
    <contour>
      <point x="0" y="0" type="move" name="mark0"/>
    </contour>
  </outline>
</glyph>
<glyph name="Q" format="1">
  <advance width="754"/>
  <unicode hex="0051"/>
  <outline>
    <contour>
      <point x="71" y="552"/>
      <point x="42" y="463"/>
      <point x="42" y="350" type="curve" smooth="yes"/>
      <point x="42" y="151"/>
      <point x="140" y="14"/>
      <point x="306" y="-11" type="curve"/>
      <point x="312" y="-109"/>
      <point x="351" y="-199"/>
      <point x="529" y="-199" type="curve" smooth="yes"/>
      <point x="546" y="-199"/>
      <point x="640" y="-192"/>
      <point x="640" y="-165" type="curve" smooth="yes"/>
      <point x="640" y="-162"/>
      <point x="640" y="-160"/>
      <point x="639" y="-159" type="curve"/>
      <point x="625" y="-103" type="line"/>
      <point x="624" y="-94"/>
      <point x="619" y="-90"/>
      <point x="609" y="-90" type="curve"/>
      <point x="597" y="-92" type="line" smooth="yes"/>
      <point x="576" y="-97"/>
      <point x="559" y="-99"/>
      <point x="545" y="-99" type="curve" smooth="yes"/>
      <point x="476" y="-99"/>
      <point x="455" y="-76"/>
      <point x="449" y="-11" type="curve"/>
      <point x="619" y="16"/>
      <point x="712" y="154"/>
      <point x="712" y="350" type="curve" smooth="yes"/>
      <point x="712" y="574"/>
      <point x="592" y="717"/>
      <point x="377" y="717" type="curve" smooth="yes"/>
      <point x="270" y="717"/>
      <point x="187" y="684"/>
      <point x="129" y="618" type="curve" smooth="yes"/>
    </contour>
    <contour>
      <point x="255" y="99"/>
      <point x="194" y="183"/>
      <point x="194" y="350" type="curve" smooth="yes"/>
      <point x="194" y="517"/>
      <point x="252" y="602"/>
      <point x="377" y="602" type="curve" smooth="yes"/>
      <point x="502" y="602"/>
      <point x="560" y="517"/>
      <point x="560" y="350" type="curve" smooth="yes"/>
      <point x="560" y="183"/>
      <point x="499" y="99"/>
      <point x="377" y="99" type="curve" smooth="yes"/>
    </contour>
    <contour>
      <point x="0" y="0" type="move" name="mark3"/>
    </contour>
    <contour>
      <point x="377" y="717" type="move" name="mark2"/>
    </contour>
    <contour>
      <point x="377" y="-195" type="move" name="mark1"/>
    </contour>
    <contour>
      <point x="0" y="0" type="move" name="mark4"/>
    </contour>
    <contour>
      <point x="0" y="0" type="move" name="mark0"/>
    </contour>
  </outline>
</glyph>
<glyph name="R" format="1">
  <advance width="697"/>
  <unicode hex="0052"/>
  <outline>
    <contour>
      <point x="78" y="37" type="line" smooth="yes"/>
      <point x="78" y="12"/>
      <point x="89" y="0"/>
      <point x="112" y="0" type="curve" smooth="yes"/>
      <point x="187" y="0" type="line" smooth="yes"/>
      <point x="210" y="0"/>
      <point x="221" y="12"/>
      <point x="221" y="37" type="curve" smooth="yes"/>
      <point x="221" y="283" type="line"/>
      <point x="257" y="283" type="line" smooth="yes"/>
      <point x="310" y="283"/>
      <point x="383" y="224"/>
      <point x="400" y="193" type="curve"/>
      <point x="499" y="29" type="line" smooth="yes"/>
      <point x="510" y="10"/>
      <point x="525" y="0"/>
      <point x="543" y="0" type="curve" smooth="yes"/>
      <point x="628" y="0" type="line" smooth="yes"/>
      <point x="647" y="0"/>
      <point x="657" y="5"/>
      <point x="657" y="16" type="curve" smooth="yes"/>
      <point x="657" y="23"/>
      <point x="653" y="31"/>
      <point x="646" y="42" type="curve" smooth="yes"/>
      <point x="539" y="211" type="line" smooth="yes"/>
      <point x="523" y="236"/>
      <point x="495" y="290"/>
      <point x="429" y="315" type="curve"/>
      <point x="429" y="316" type="line"/>
      <point x="537" y="335"/>
      <point x="628" y="393"/>
      <point x="628" y="502" type="curve" smooth="yes"/>
      <point x="628" y="644"/>
      <point x="538" y="700"/>
      <point x="338" y="700" type="curve" smooth="yes"/>
      <point x="112" y="700" type="line" smooth="yes"/>
      <point x="89" y="700"/>
      <point x="78" y="688"/>
      <point x="78" y="664" type="curve" smooth="yes"/>
    </contour>
    <contour>
      <point x="221" y="404" type="line"/>
      <point x="221" y="581" type="line"/>
      <point x="332" y="581" type="line" smooth="yes"/>
      <point x="438" y="581"/>
      <point x="488" y="566"/>
      <point x="488" y="497" type="curve" smooth="yes"/>
      <point x="488" y="432"/>
      <point x="439" y="404"/>
      <point x="308" y="404" type="curve" smooth="yes"/>
    </contour>
    <contour>
      <point x="0" y="0" type="move" name="mark3"/>
    </contour>
    <contour>
      <point x="320" y="717" type="move" name="mark2"/>
    </contour>
    <contour>
      <point x="320" y="0" type="move" name="mark1"/>
    </contour>
    <contour>
      <point x="0" y="0" type="move" name="mark4"/>
    </contour>
    <contour>
      <point x="0" y="0" type="move" name="mark0"/>
    </contour>
  </outline>
</glyph>
<glyph name="S" format="1">
  <advance width="639"/>
  <unicode hex="0053"/>
  <outline>
    <contour>
      <point x="67" y="51"/>
      <point x="143" y="13"/>
      <point x="188" y="0" type="curve" smooth="yes"/>
      <point x="224" y="-11"/>
      <point x="270" y="-17"/>
      <point x="326" y="-17" type="curve" smooth="yes"/>
      <point x="418" y="-17"/>
      <point x="604" y="16"/>
      <point x="604" y="193" type="curve" smooth="yes"/>
      <point x="604" y="345"/>
      <point x="516" y="379"/>
      <point x="344" y="432" type="curve"/>
      <point x="299" y="447" type="line"/>
      <point x="257" y="459"/>
      <point x="222" y="479"/>
      <point x="222" y="527" type="curve" smooth="yes"/>
      <point x="222" y="589"/>
      <point x="286" y="602"/>
      <point x="336" y="602" type="curve" smooth="yes"/>
      <point x="391" y="602"/>
      <point x="458" y="561"/>
      <point x="473" y="551" type="curve" smooth="yes"/>
      <point x="482" y="544"/>
      <point x="492" y="541"/>
      <point x="501" y="541" type="curve" smooth="yes"/>
      <point x="511" y="541"/>
      <point x="519" y="546"/>
      <point x="526" y="555" type="curve" smooth="yes"/>
      <point x="566" y="608" type="line" smooth="yes"/>
      <point x="569" y="613"/>
      <point x="571" y="618"/>
      <point x="571" y="623" type="curve" smooth="yes"/>
      <point x="571" y="670"/>
      <point x="436" y="717"/>
      <point x="339" y="717" type="curve" smooth="yes"/>
      <point x="241" y="717"/>
      <point x="79" y="682"/>
      <point x="79" y="525" type="curve" smooth="yes"/>
      <point x="79" y="361"/>
      <point x="228" y="321"/>
      <point x="316" y="299" type="curve"/>
      <point x="397" y="276"/>
      <point x="459" y="255"/>
      <point x="459" y="190" type="curve" smooth="yes"/>
      <point x="459" y="127"/>
      <point x="414" y="99"/>
      <point x="328" y="99" type="curve" smooth="yes"/>
      <point x="267" y="99"/>
      <point x="211" y="126"/>
      <point x="164" y="158" type="curve" smooth="yes"/>
      <point x="153" y="166"/>
      <point x="143" y="170"/>
      <point x="134" y="170" type="curve" smooth="yes"/>
      <point x="125" y="170"/>
      <point x="116" y="165"/>
      <point x="109" y="155" type="curve" smooth="yes"/>
      <point x="72" y="99" type="line"/>
      <point x="69" y="92"/>
      <point x="67" y="87"/>
      <point x="67" y="82" type="curve" smooth="yes"/>
    </contour>
    <contour>
      <point x="0" y="0" type="move" name="mark3"/>
    </contour>
    <contour>
      <point x="324" y="717" type="move" name="mark2"/>
    </contour>
    <contour>
      <point x="310" y="0" type="move" name="mark1"/>
    </contour>
    <contour>
      <point x="0" y="0" type="move" name="mark4"/>
    </contour>
    <contour>
      <point x="0" y="0" type="move" name="mark0"/>
    </contour>
  </outline>
</glyph>
<glyph name="T" format="1">
  <advance width="608"/>
  <unicode hex="0054"/>
  <outline>
    <contour>
      <point x="17" y="607" type="line" smooth="yes"/>
      <point x="17" y="586"/>
      <point x="29" y="575"/>
      <point x="53" y="575" type="curve" smooth="yes"/>
      <point x="233" y="575" type="line"/>
      <point x="233" y="27" type="line" smooth="yes"/>
      <point x="233" y="9"/>
      <point x="241" y="0"/>
      <point x="257" y="0" type="curve" smooth="yes"/>
      <point x="351" y="0" type="line" smooth="yes"/>
      <point x="367" y="0"/>
      <point x="375" y="9"/>
      <point x="375" y="27" type="curve" smooth="yes"/>
      <point x="375" y="575" type="line"/>
      <point x="555" y="575" type="line" smooth="yes"/>
      <point x="580" y="575"/>
      <point x="592" y="586"/>
      <point x="592" y="607" type="curve" smooth="yes"/>
      <point x="592" y="668" type="line" smooth="yes"/>
      <point x="592" y="689"/>
      <point x="580" y="700"/>
      <point x="555" y="700" type="curve" smooth="yes"/>
      <point x="53" y="700" type="line" smooth="yes"/>
      <point x="29" y="700"/>
      <point x="17" y="689"/>
      <point x="17" y="668" type="curve" smooth="yes"/>
    </contour>
    <contour>
      <point x="0" y="0" type="move" name="mark3"/>
    </contour>
    <contour>
      <point x="304" y="717" type="move" name="mark2"/>
    </contour>
    <contour>
      <point x="304" y="0" type="move" name="mark1"/>
    </contour>
    <contour>
      <point x="0" y="0" type="move" name="mark4"/>
    </contour>
    <contour>
      <point x="0" y="0" type="move" name="mark0"/>
    </contour>
  </outline>
</glyph>
<glyph name="U" format="1">
  <advance width="694"/>
  <unicode hex="0055"/>
  <outline>
    <contour>
      <point x="78" y="292" type="line" smooth="yes"/>
      <point x="78" y="59"/>
      <point x="186" y="-17"/>
      <point x="347" y="-17" type="curve" smooth="yes"/>
      <point x="511" y="-17"/>
      <point x="616" y="61"/>
      <point x="616" y="292" type="curve" smooth="yes"/>
      <point x="616" y="673" type="line" smooth="yes"/>
      <point x="616" y="691"/>
      <point x="605" y="700"/>
      <point x="582" y="700" type="curve" smooth="yes"/>
      <point x="508" y="700" type="line" smooth="yes"/>
      <point x="485" y="700"/>
      <point x="474" y="691"/>
      <point x="474" y="673" type="curve" smooth="yes"/>
      <point x="474" y="296" type="line" smooth="yes"/>
      <point x="474" y="120"/>
      <point x="413" y="99"/>
      <point x="347" y="99" type="curve" smooth="yes"/>
      <point x="314" y="99"/>
      <point x="284" y="110"/>
      <point x="259" y="131" type="curve" smooth="yes"/>
      <point x="234" y="152"/>
      <point x="221" y="207"/>
      <point x="221" y="296" type="curve" smooth="yes"/>
      <point x="221" y="673" type="line" smooth="yes"/>
      <point x="221" y="691"/>
      <point x="210" y="700"/>
      <point x="187" y="700" type="curve" smooth="yes"/>
      <point x="112" y="700" type="line" smooth="yes"/>
      <point x="89" y="700"/>
      <point x="78" y="691"/>
      <point x="78" y="673" type="curve" smooth="yes"/>
    </contour>
    <contour>
      <point x="0" y="0" type="move" name="mark3"/>
    </contour>
    <contour>
      <point x="347" y="717" type="move" name="mark2"/>
    </contour>
    <contour>
      <point x="347" y="0" type="move" name="mark1"/>
    </contour>
    <contour>
      <point x="0" y="0" type="move" name="mark4"/>
    </contour>
    <contour>
      <point x="347" y="0" type="move" name="mark0"/>
    </contour>
  </outline>
</glyph>
<glyph name="V" format="1">
  <advance width="669"/>
  <unicode hex="0056"/>
  <outline>
    <contour>
      <point x="30" y="678"/>
      <point x="31" y="673"/>
      <point x="33" y="668" type="curve" smooth="yes"/>
      <point x="267" y="40" type="line" smooth="yes"/>
      <point x="277" y="13"/>
      <point x="290" y="0"/>
      <point x="313" y="0" type="curve" smooth="yes"/>
      <point x="381" y="0" type="line" smooth="yes"/>
      <point x="402" y="0"/>
      <point x="417" y="13"/>
      <point x="427" y="40" type="curve" smooth="yes"/>
      <point x="660" y="668" type="line" smooth="yes"/>
      <point x="662" y="674"/>
      <point x="663" y="679"/>
      <point x="663" y="682" type="curve" smooth="yes"/>
      <point x="663" y="694"/>
      <point x="654" y="700"/>
      <point x="637" y="700" type="curve" smooth="yes"/>
      <point x="560" y="700" type="line" smooth="yes"/>
      <point x="538" y="700"/>
      <point x="523" y="689"/>
      <point x="515" y="667" type="curve" smooth="yes"/>
      <point x="365" y="259" type="line"/>
      <point x="352" y="217" type="line"/>
      <point x="348" y="182" type="line"/>
      <point x="346" y="182" type="line"/>
      <point x="343" y="203"/>
      <point x="342" y="214"/>
      <point x="341" y="217" type="curve" smooth="yes"/>
      <point x="328" y="259" type="line"/>
      <point x="179" y="667" type="line" smooth="yes"/>
      <point x="171" y="689"/>
      <point x="154" y="700"/>
      <point x="134" y="700" type="curve" smooth="yes"/>
      <point x="56" y="700" type="line" smooth="yes"/>
      <point x="39" y="700"/>
      <point x="30" y="694"/>
      <point x="30" y="682" type="curve" smooth="yes"/>
    </contour>
    <contour>
      <point x="0" y="0" type="move" name="mark3"/>
    </contour>
    <contour>
      <point x="334" y="717" type="move" name="mark2"/>
    </contour>
    <contour>
      <point x="334" y="0" type="move" name="mark1"/>
    </contour>
    <contour>
      <point x="0" y="0" type="move" name="mark4"/>
    </contour>
    <contour>
      <point x="0" y="0" type="move" name="mark0"/>
    </contour>
  </outline>
</glyph>
<glyph name="W" format="1">
  <advance width="987"/>
  <unicode hex="0057"/>
  <outline>
    <contour>
      <point x="30" y="674"/>
      <point x="31" y="668"/>
      <point x="33" y="661" type="curve" smooth="yes"/>
      <point x="199" y="47" type="line" smooth="yes"/>
      <point x="207" y="16"/>
      <point x="222" y="0"/>
      <point x="245" y="0" type="curve" smooth="yes"/>
      <point x="330" y="0" type="line" smooth="yes"/>
      <point x="349" y="0"/>
      <point x="363" y="16"/>
      <point x="372" y="47" type="curve" smooth="yes"/>
      <point x="489" y="456" type="line" smooth="yes"/>
      <point x="496" y="480"/>
      <point x="499" y="494"/>
      <point x="500" y="499" type="curve" smooth="yes"/>
      <point x="505" y="537" type="line"/>
      <point x="509" y="499" type="line" smooth="yes"/>
      <point x="510" y="494"/>
      <point x="513" y="480"/>
      <point x="520" y="456" type="curve" smooth="yes"/>
      <point x="637" y="47" type="line" smooth="yes"/>
      <point x="646" y="16"/>
      <point x="660" y="0"/>
      <point x="679" y="0" type="curve" smooth="yes"/>
      <point x="764" y="0" type="line" smooth="yes"/>
      <point x="787" y="0"/>
      <point x="802" y="16"/>
      <point x="810" y="47" type="curve" smooth="yes"/>
      <point x="976" y="661" type="line" smooth="yes"/>
      <point x="978" y="667"/>
      <point x="979" y="673"/>
      <point x="979" y="678" type="curve" smooth="yes"/>
      <point x="979" y="693"/>
      <point x="971" y="700"/>
      <point x="954" y="700" type="curve" smooth="yes"/>
      <point x="863" y="700" type="line" smooth="yes"/>
      <point x="848" y="700"/>
      <point x="838" y="689"/>
      <point x="833" y="668" type="curve" smooth="yes"/>
      <point x="726" y="227" type="line" smooth="yes"/>
      <point x="723" y="214"/>
      <point x="722" y="197"/>
      <point x="721" y="177" type="curve"/>
      <point x="718" y="177" type="line"/>
      <point x="716" y="217"/>
      <point x="721" y="217"/>
      <point x="699" y="287" type="curve"/>
      <point x="590" y="664" type="line" smooth="yes"/>
      <point x="583" y="688"/>
      <point x="570" y="700"/>
      <point x="549" y="700" type="curve" smooth="yes"/>
      <point x="459" y="700" type="line" smooth="yes"/>
      <point x="439" y="700"/>
      <point x="425" y="688"/>
      <point x="418" y="664" type="curve" smooth="yes"/>
      <point x="310" y="287" type="line" smooth="yes"/>
      <point x="288" y="209"/>
      <point x="290" y="189"/>
      <point x="291" y="177" type="curve"/>
      <point x="288" y="177" type="line"/>
      <point x="285" y="231"/>
      <point x="278" y="245"/>
      <point x="269" y="284" type="curve" smooth="yes"/>
      <point x="176" y="668" type="line" smooth="yes"/>
      <point x="171" y="689"/>
      <point x="161" y="700"/>
      <point x="146" y="700" type="curve" smooth="yes"/>
      <point x="55" y="700" type="line" smooth="yes"/>
      <point x="38" y="700"/>
      <point x="30" y="693"/>
      <point x="30" y="678" type="curve" smooth="yes"/>
    </contour>
    <contour>
      <point x="0" y="0" type="move" name="mark3"/>
    </contour>
    <contour>
      <point x="493" y="717" type="move" name="mark2"/>
    </contour>
    <contour>
      <point x="493" y="0" type="move" name="mark1"/>
    </contour>
    <contour>
      <point x="0" y="0" type="move" name="mark4"/>
    </contour>
    <contour>
      <point x="0" y="0" type="move" name="mark0"/>
    </contour>
  </outline>
</glyph>
<glyph name="X" format="1">
  <advance width="692"/>
  <unicode hex="0058"/>
  <outline>
    <contour>
      <point x="52" y="5"/>
      <point x="62" y="0"/>
      <point x="81" y="0" type="curve" smooth="yes"/>
      <point x="181" y="0" type="line" smooth="yes"/>
      <point x="198" y="0"/>
      <point x="213" y="10"/>
      <point x="225" y="29" type="curve" smooth="yes"/>
      <point x="375" y="262" type="line"/>
      <point x="524" y="29" type="line" smooth="yes"/>
      <point x="536" y="10"/>
      <point x="551" y="0"/>
      <point x="568" y="0" type="curve" smooth="yes"/>
      <point x="668" y="0" type="line" smooth="yes"/>
      <point x="688" y="0"/>
      <point x="698" y="6"/>
      <point x="698" y="17" type="curve" smooth="yes"/>
      <point x="698" y="23"/>
      <point x="694" y="31"/>
      <point x="687" y="42" type="curve" smooth="yes"/>
      <point x="470" y="361" type="line"/>
      <point x="669" y="658" type="line" smooth="yes"/>
      <point x="676" y="669"/>
      <point x="680" y="678"/>
      <point x="680" y="684" type="curve" smooth="yes"/>
      <point x="680" y="695"/>
      <point x="670" y="700"/>
      <point x="650" y="700" type="curve" smooth="yes"/>
      <point x="552" y="700" type="line" smooth="yes"/>
      <point x="535" y="700"/>
      <point x="520" y="690"/>
      <point x="508" y="671" type="curve" smooth="yes"/>
      <point x="375" y="460" type="line"/>
      <point x="241" y="671" type="line" smooth="yes"/>
      <point x="229" y="690"/>
      <point x="214" y="700"/>
      <point x="197" y="700" type="curve" smooth="yes"/>
      <point x="99" y="700" type="line" smooth="yes"/>
      <point x="79" y="700"/>
      <point x="69" y="695"/>
      <point x="69" y="684" type="curve" smooth="yes"/>
      <point x="69" y="678"/>
      <point x="73" y="669"/>
      <point x="80" y="658" type="curve" smooth="yes"/>
      <point x="279" y="361" type="line"/>
      <point x="63" y="42" type="line" smooth="yes"/>
      <point x="56" y="32"/>
      <point x="52" y="23"/>
      <point x="52" y="16" type="curve" smooth="yes"/>
    </contour>
    <contour>
      <point x="0" y="0" type="move" name="mark3"/>
    </contour>
    <contour>
      <point x="386" y="717" type="move" name="mark2"/>
    </contour>
    <contour>
      <point x="346" y="0" type="move" name="mark1"/>
    </contour>
    <contour>
      <point x="0" y="0" type="move" name="mark4"/>
    </contour>
    <contour>
      <point x="0" y="0" type="move" name="mark0"/>
    </contour>
  </outline>
</glyph>
<glyph name="Y" format="1">
  <advance width="668"/>
  <unicode hex="0059"/>
  <outline>
    <contour>
      <point x="41" y="676"/>
      <point x="44" y="668"/>
      <point x="50" y="658" type="curve" smooth="yes"/>
      <point x="288" y="256" type="line"/>
      <point x="288" y="27" type="line" smooth="yes"/>
      <point x="288" y="9"/>
      <point x="299" y="0"/>
      <point x="322" y="0" type="curve" smooth="yes"/>
      <point x="396" y="0" type="line" smooth="yes"/>
      <point x="419" y="0"/>
      <point x="430" y="9"/>
      <point x="430" y="27" type="curve" smooth="yes"/>
      <point x="430" y="256" type="line"/>
      <point x="668" y="658" type="line" smooth="yes"/>
      <point x="674" y="668"/>
      <point x="677" y="676"/>
      <point x="677" y="682" type="curve" smooth="yes"/>
      <point x="677" y="694"/>
      <point x="666" y="700"/>
      <point x="645" y="700" type="curve" smooth="yes"/>
      <point x="560" y="700" type="line" smooth="yes"/>
      <point x="543" y="700"/>
      <point x="528" y="689"/>
      <point x="515" y="667" type="curve" smooth="yes"/>
      <point x="411" y="485" type="line"/>
      <point x="389" y="449"/>
      <point x="363" y="400"/>
      <point x="360" y="365" type="curve"/>
      <point x="358" y="365" type="line"/>
      <point x="353" y="407"/>
      <point x="327" y="452"/>
      <point x="307" y="485" type="curve"/>
      <point x="203" y="667" type="line" smooth="yes"/>
      <point x="190" y="689"/>
      <point x="175" y="700"/>
      <point x="158" y="700" type="curve" smooth="yes"/>
      <point x="73" y="700" type="line" smooth="yes"/>
      <point x="52" y="700"/>
      <point x="41" y="694"/>
      <point x="41" y="682" type="curve" smooth="yes"/>
    </contour>
    <contour>
      <point x="0" y="0" type="move" name="mark3"/>
    </contour>
    <contour>
      <point x="334" y="717" type="move" name="mark2"/>
    </contour>
    <contour>
      <point x="334" y="0" type="move" name="mark1"/>
    </contour>
    <contour>
      <point x="0" y="0" type="move" name="mark4"/>
    </contour>
    <contour>
      <point x="0" y="0" type="move" name="mark0"/>
    </contour>
  </outline>
</glyph>
<glyph name="Z" format="1">
  <advance width="611"/>
  <unicode hex="005A"/>
  <outline>
    <contour>
      <point x="30" y="32" type="line" smooth="yes"/>
      <point x="30" y="11"/>
      <point x="42" y="0"/>
      <point x="66" y="0" type="curve" smooth="yes"/>
      <point x="545" y="0" type="line" smooth="yes"/>
      <point x="570" y="0"/>
      <point x="582" y="11"/>
      <point x="582" y="32" type="curve" smooth="yes"/>
      <point x="582" y="89" type="line" smooth="yes"/>
      <point x="582" y="110"/>
      <point x="570" y="121"/>
      <point x="545" y="121" type="curve" smooth="yes"/>
      <point x="272" y="121" type="line" smooth="yes"/>
      <point x="259" y="121"/>
      <point x="239" y="120"/>
      <point x="214" y="119" type="curve"/>
      <point x="214" y="122" type="line"/>
      <point x="551" y="586" type="line"/>
      <point x="562" y="603"/>
      <point x="568" y="619"/>
      <point x="568" y="636" type="curve" smooth="yes"/>
      <point x="568" y="668" type="line" smooth="yes"/>
      <point x="568" y="689"/>
      <point x="556" y="700"/>
      <point x="531" y="700" type="curve" smooth="yes"/>
      <point x="86" y="700" type="line" smooth="yes"/>
      <point x="61" y="700"/>
      <point x="49" y="689"/>
      <point x="49" y="668" type="curve" smooth="yes"/>
      <point x="49" y="611" type="line" smooth="yes"/>
      <point x="49" y="590"/>
      <point x="61" y="579"/>
      <point x="86" y="579" type="curve" smooth="yes"/>
      <point x="313" y="579" type="line" smooth="yes"/>
      <point x="333" y="579"/>
      <point x="353" y="580"/>
      <point x="372" y="582" type="curve"/>
      <point x="372" y="578" type="line"/>
      <point x="55" y="140" type="line" smooth="yes"/>
      <point x="38" y="117"/>
      <point x="30" y="95"/>
      <point x="30" y="72" type="curve" smooth="yes"/>
    </contour>
    <contour>
      <point x="0" y="0" type="move" name="mark3"/>
    </contour>
    <contour>
      <point x="306" y="717" type="move" name="mark2"/>
    </contour>
    <contour>
      <point x="306" y="0" type="move" name="mark1"/>
    </contour>
    <contour>
      <point x="0" y="0" type="move" name="mark4"/>
    </contour>
    <contour>
      <point x="0" y="0" type="move" name="mark0"/>
    </contour>
  </outline>
</glyph>
<glyph name="bracketleft" format="1">
  <advance width="339"/>
  <unicode hex="005B"/>
  <outline>
    <contour>
      <point x="78" y="-170" type="line" smooth="yes"/>
      <point x="78" y="-189"/>
      <point x="88" y="-199"/>
      <point x="107" y="-199" type="curve" smooth="yes"/>
      <point x="277" y="-199" type="line" smooth="yes"/>
      <point x="297" y="-199"/>
      <point x="307" y="-191"/>
      <point x="307" y="-175" type="curve" smooth="yes"/>
      <point x="307" y="-126" type="line" smooth="yes"/>
      <point x="307" y="-110"/>
      <point x="297" y="-102"/>
      <point x="277" y="-102" type="curve" smooth="yes"/>
      <point x="215" y="-102" type="line"/>
      <point x="215" y="633" type="line"/>
      <point x="277" y="633" type="line" smooth="yes"/>
      <point x="297" y="633"/>
      <point x="307" y="641"/>
      <point x="307" y="657" type="curve" smooth="yes"/>
      <point x="307" y="706" type="line" smooth="yes"/>
      <point x="307" y="722"/>
      <point x="297" y="730"/>
      <point x="277" y="730" type="curve" smooth="yes"/>
      <point x="107" y="730" type="line" smooth="yes"/>
      <point x="88" y="730"/>
      <point x="78" y="720"/>
      <point x="78" y="701" type="curve" smooth="yes"/>
    </contour>
  </outline>
</glyph>
<glyph name="backslash" format="1">
  <advance width="418"/>
  <unicode hex="005C"/>
  <outline>
    <contour>
      <point x="12" y="675"/>
      <point x="13" y="670"/>
      <point x="15" y="664" type="curve" smooth="yes"/>
      <point x="339" y="-181" type="line" smooth="yes"/>
      <point x="344" y="-195"/>
      <point x="353" y="-202"/>
      <point x="363" y="-202" type="curve" smooth="yes"/>
      <point x="364" y="-202"/>
      <point x="368" y="-201"/>
      <point x="373" y="-200" type="curve"/>
      <point x="412" y="-185" type="line" smooth="yes"/>
      <point x="423" y="-181"/>
      <point x="428" y="-174"/>
      <point x="428" y="-164" type="curve" smooth="yes"/>
      <point x="428" y="-159"/>
      <point x="427" y="-153"/>
      <point x="424" y="-148" type="curve"/>
      <point x="100" y="696" type="line" smooth="yes"/>
      <point x="95" y="710"/>
      <point x="88" y="717"/>
      <point x="77" y="717" type="curve" smooth="yes"/>
      <point x="76" y="717"/>
      <point x="72" y="716"/>
      <point x="67" y="715" type="curve"/>
      <point x="27" y="700" type="line" smooth="yes"/>
      <point x="17" y="696"/>
      <point x="12" y="689"/>
      <point x="12" y="679" type="curve" smooth="yes"/>
    </contour>
  </outline>
</glyph>
<glyph name="bracketright" format="1">
  <advance width="339"/>
  <unicode hex="005D"/>
  <outline>
    <contour>
      <point x="32" y="-175" type="line" smooth="yes"/>
      <point x="32" y="-191"/>
      <point x="42" y="-199"/>
      <point x="62" y="-199" type="curve" smooth="yes"/>
      <point x="231" y="-199" type="line" smooth="yes"/>
      <point x="251" y="-199"/>
      <point x="261" y="-189"/>
      <point x="261" y="-170" type="curve" smooth="yes"/>
      <point x="261" y="701" type="line" smooth="yes"/>
      <point x="261" y="720"/>
      <point x="251" y="730"/>
      <point x="231" y="730" type="curve" smooth="yes"/>
      <point x="62" y="730" type="line" smooth="yes"/>
      <point x="42" y="730"/>
      <point x="32" y="722"/>
      <point x="32" y="706" type="curve" smooth="yes"/>
      <point x="32" y="657" type="line" smooth="yes"/>
      <point x="32" y="641"/>
      <point x="42" y="633"/>
      <point x="62" y="633" type="curve" smooth="yes"/>
      <point x="124" y="633" type="line"/>
      <point x="124" y="-102" type="line"/>
      <point x="62" y="-102" type="line" smooth="yes"/>
      <point x="42" y="-102"/>
      <point x="32" y="-110"/>
      <point x="32" y="-126" type="curve" smooth="yes"/>
    </contour>
  </outline>
</glyph>
<glyph name="asciicircum" format="1">
  <advance width="449"/>
  <unicode hex="005E"/>
  <outline>
    <contour>
      <point x="48" y="465"/>
      <point x="52" y="459"/>
      <point x="59" y="454" type="curve" smooth="yes"/>
      <point x="89" y="432" type="line" smooth="yes"/>
      <point x="94" y="429"/>
      <point x="99" y="427"/>
      <point x="103" y="427" type="curve" smooth="yes"/>
      <point x="110" y="427"/>
      <point x="118" y="432"/>
      <point x="125" y="441" type="curve" smooth="yes"/>
      <point x="242" y="602" type="line"/>
      <point x="358" y="441" type="line" smooth="yes"/>
      <point x="365" y="432"/>
      <point x="373" y="427"/>
      <point x="380" y="427" type="curve" smooth="yes"/>
      <point x="385" y="427"/>
      <point x="390" y="429"/>
      <point x="395" y="432" type="curve" smooth="yes"/>
      <point x="425" y="454" type="line" smooth="yes"/>
      <point x="432" y="459"/>
      <point x="435" y="465"/>
      <point x="435" y="472" type="curve" smooth="yes"/>
      <point x="435" y="478"/>
      <point x="432" y="485"/>
      <point x="427" y="492" type="curve" smooth="yes"/>
      <point x="286" y="686" type="line" smooth="yes"/>
      <point x="277" y="698"/>
      <point x="265" y="704"/>
      <point x="250" y="704" type="curve" smooth="yes"/>
      <point x="233" y="704" type="line" smooth="yes"/>
      <point x="217" y="704"/>
      <point x="206" y="698"/>
      <point x="198" y="686" type="curve" smooth="yes"/>
      <point x="56" y="492" type="line"/>
      <point x="51" y="483"/>
      <point x="48" y="477"/>
      <point x="48" y="472" type="curve" smooth="yes"/>
    </contour>
  </outline>
</glyph>
<glyph name="underscore" format="1">
  <advance width="586"/>
  <unicode hex="005F"/>
  <outline>
    <contour>
      <point x="-12" y="-183" type="line" smooth="yes"/>
      <point x="-12" y="-200"/>
      <point x="-2" y="-208"/>
      <point x="17" y="-208" type="curve" smooth="yes"/>
      <point x="569" y="-208" type="line" smooth="yes"/>
      <point x="588" y="-208"/>
      <point x="598" y="-200"/>
      <point x="598" y="-183" type="curve" smooth="yes"/>
      <point x="598" y="-134" type="line" smooth="yes"/>
      <point x="598" y="-118"/>
      <point x="588" y="-110"/>
      <point x="569" y="-110" type="curve" smooth="yes"/>
      <point x="17" y="-110" type="line" smooth="yes"/>
      <point x="-2" y="-110"/>
      <point x="-12" y="-118"/>
      <point x="-12" y="-134" type="curve" smooth="yes"/>
    </contour>
  </outline>
</glyph>
<glyph name="grave" format="1">
  <advance width="306"/>
  <unicode hex="0060"/>
  <outline>
    <contour>
      <point x="50" y="686"/>
      <point x="53" y="679"/>
      <point x="60" y="672" type="curve" smooth="yes"/>
      <point x="141" y="580" type="line" smooth="yes"/>
      <point x="151" y="568"/>
      <point x="166" y="562"/>
      <point x="190" y="562" type="curve" smooth="yes"/>
      <point x="239" y="562" type="line" smooth="yes"/>
      <point x="250" y="562"/>
      <point x="256" y="566"/>
      <point x="256" y="573" type="curve" smooth="yes"/>
      <point x="256" y="578"/>
      <point x="254" y="583"/>
      <point x="250" y="590" type="curve" smooth="yes"/>
      <point x="197" y="678" type="line" smooth="yes"/>
      <point x="188" y="693"/>
      <point x="170" y="701"/>
      <point x="145" y="701" type="curve" smooth="yes"/>
      <point x="71" y="701" type="line" smooth="yes"/>
      <point x="57" y="701"/>
      <point x="50" y="698"/>
      <point x="50" y="691" type="curve" smooth="yes"/>
    </contour>
  </outline>
</glyph>
<glyph name="a" format="1">
  <advance width="548"/>
  <unicode hex="0061"/>
  <outline>
    <contour>
      <point x="70" y="249"/>
      <point x="39" y="202"/>
      <point x="39" y="137" type="curve" smooth="yes"/>
      <point x="39" y="45"/>
      <point x="97" y="-10"/>
      <point x="202" y="-10" type="curve" smooth="yes"/>
      <point x="241" y="-10"/>
      <point x="308" y="7"/>
      <point x="345" y="44" type="curve"/>
      <point x="346" y="29" type="line" smooth="yes"/>
      <point x="347" y="10"/>
      <point x="354" y="0"/>
      <point x="373" y="0" type="curve" smooth="yes"/>
      <point x="453" y="0" type="line" smooth="yes"/>
      <point x="472" y="0"/>
      <point x="482" y="10"/>
      <point x="482" y="29" type="curve" smooth="yes"/>
      <point x="482" y="337" type="line" smooth="yes"/>
      <point x="482" y="458"/>
      <point x="408" y="522"/>
      <point x="271" y="522" type="curve" smooth="yes"/>
      <point x="188" y="522"/>
      <point x="117" y="505"/>
      <point x="74" y="465" type="curve" smooth="yes"/>
      <point x="65" y="457"/>
      <point x="60" y="449"/>
      <point x="60" y="441" type="curve" smooth="yes"/>
      <point x="60" y="437"/>
      <point x="62" y="432"/>
      <point x="66" y="427" type="curve" smooth="yes"/>
      <point x="107" y="377" type="line" smooth="yes"/>
      <point x="112" y="372"/>
      <point x="117" y="369"/>
      <point x="123" y="369" type="curve" smooth="yes"/>
      <point x="130" y="369"/>
      <point x="137" y="372"/>
      <point x="144" y="379" type="curve" smooth="yes"/>
      <point x="177" y="407"/>
      <point x="211" y="427"/>
      <point x="260" y="427" type="curve" smooth="yes"/>
      <point x="316" y="427"/>
      <point x="345" y="402"/>
      <point x="345" y="345" type="curve" smooth="yes"/>
      <point x="345" y="325" type="line"/>
      <point x="264" y="323"/>
      <point x="193" y="307"/>
      <point x="132" y="278" type="curve" smooth="yes"/>
    </contour>
    <contour>
      <point x="205" y="86"/>
      <point x="184" y="104"/>
      <point x="184" y="140" type="curve" smooth="yes"/>
      <point x="184" y="181"/>
      <point x="209" y="216"/>
      <point x="345" y="231" type="curve"/>
      <point x="345" y="125" type="line"/>
      <point x="306" y="90"/>
      <point x="279" y="86"/>
      <point x="245" y="86" type="curve" smooth="yes"/>
    </contour>
    <contour>
      <point x="0" y="0" type="move" name="mark3"/>
    </contour>
    <contour>
      <point x="281" y="522" type="move" name="mark2"/>
    </contour>
    <contour>
      <point x="271" y="0" type="move" name="mark1"/>
    </contour>
    <contour>
      <point x="0" y="0" type="move" name="mark4"/>
    </contour>
    <contour>
      <point x="414" y="0" type="move" name="mark0"/>
    </contour>
  </outline>
</glyph>
<glyph name="b" format="1">
  <advance width="582"/>
  <unicode hex="0062"/>
  <outline>
    <contour>
      <point x="66" y="29" type="line" smooth="yes"/>
      <point x="66" y="10"/>
      <point x="76" y="0"/>
      <point x="96" y="0" type="curve" smooth="yes"/>
      <point x="173" y="0" type="line" smooth="yes"/>
      <point x="189" y="0"/>
      <point x="198" y="10"/>
      <point x="199" y="29" type="curve" smooth="yes"/>
      <point x="201" y="58" type="line"/>
      <point x="203" y="58" type="line"/>
      <point x="238" y="-2"/>
      <point x="284" y="-10"/>
      <point x="335" y="-10" type="curve" smooth="yes"/>
      <point x="493" y="-10"/>
      <point x="543" y="123"/>
      <point x="543" y="256" type="curve" smooth="yes"/>
      <point x="543" y="393"/>
      <point x="491" y="522"/>
      <point x="335" y="522" type="curve" smooth="yes"/>
      <point x="274" y="522"/>
      <point x="238" y="510"/>
      <point x="203" y="455" type="curve"/>
      <point x="201" y="455" type="line"/>
      <point x="202" y="464"/>
      <point x="203" y="477"/>
      <point x="203" y="494" type="curve" smooth="yes"/>
      <point x="203" y="691" type="line" smooth="yes"/>
      <point x="203" y="711"/>
      <point x="193" y="721"/>
      <point x="174" y="721" type="curve" smooth="yes"/>
      <point x="96" y="721" type="line" smooth="yes"/>
      <point x="76" y="721"/>
      <point x="66" y="711"/>
      <point x="66" y="691" type="curve" smooth="yes"/>
    </contour>
    <contour>
      <point x="212" y="156"/>
      <point x="203" y="191"/>
      <point x="203" y="234" type="curve" smooth="yes"/>
      <point x="203" y="278" type="line" smooth="yes"/>
      <point x="203" y="367"/>
      <point x="245" y="427"/>
      <point x="292" y="427" type="curve" smooth="yes"/>
      <point x="378" y="427"/>
      <point x="398" y="365"/>
      <point x="398" y="256" type="curve" smooth="yes"/>
      <point x="398" y="150"/>
      <point x="380" y="86"/>
      <point x="292" y="86" type="curve" smooth="yes"/>
      <point x="268" y="86"/>
      <point x="247" y="100"/>
      <point x="229" y="127" type="curve"/>
    </contour>
    <contour>
      <point x="0" y="0" type="move" name="mark3"/>
    </contour>
    <contour>
      <point x="305" y="721" type="move" name="mark2"/>
    </contour>
    <contour>
      <point x="305" y="0" type="move" name="mark1"/>
    </contour>
    <contour>
      <point x="0" y="0" type="move" name="mark4"/>
    </contour>
    <contour>
      <point x="0" y="0" type="move" name="mark0"/>
    </contour>
  </outline>
</glyph>
<glyph name="c" format="1">
  <advance width="530"/>
  <unicode hex="0063"/>
  <outline>
    <contour>
      <point x="60" y="404"/>
      <point x="39" y="339"/>
      <point x="39" y="256" type="curve" smooth="yes"/>
      <point x="39" y="93"/>
      <point x="120" y="-10"/>
      <point x="293" y="-10" type="curve" smooth="yes"/>
      <point x="438" y="-10"/>
      <point x="498" y="67"/>
      <point x="498" y="96" type="curve" smooth="yes"/>
      <point x="498" y="103"/>
      <point x="495" y="110"/>
      <point x="488" y="116" type="curve" smooth="yes"/>
      <point x="442" y="152" type="line"/>
      <point x="437" y="157"/>
      <point x="431" y="159"/>
      <point x="425" y="159" type="curve" smooth="yes"/>
      <point x="409" y="159"/>
      <point x="379" y="118"/>
      <point x="357" y="103" type="curve" smooth="yes"/>
      <point x="341" y="92"/>
      <point x="320" y="86"/>
      <point x="293" y="86" type="curve" smooth="yes"/>
      <point x="221" y="86"/>
      <point x="184" y="129"/>
      <point x="184" y="256" type="curve" smooth="yes"/>
      <point x="184" y="381"/>
      <point x="220" y="427"/>
      <point x="293" y="427" type="curve" smooth="yes"/>
      <point x="375" y="427"/>
      <point x="384" y="369"/>
      <point x="407" y="369" type="curve" smooth="yes"/>
      <point x="413" y="369"/>
      <point x="418" y="371"/>
      <point x="422" y="374" type="curve" smooth="yes"/>
      <point x="474" y="408" type="line" smooth="yes"/>
      <point x="481" y="413"/>
      <point x="485" y="420"/>
      <point x="485" y="427" type="curve" smooth="yes"/>
      <point x="485" y="454"/>
      <point x="437" y="489"/>
      <point x="411" y="502" type="curve" smooth="yes"/>
      <point x="384" y="515"/>
      <point x="345" y="522"/>
      <point x="293" y="522" type="curve" smooth="yes"/>
      <point x="206" y="522"/>
      <point x="143" y="499"/>
      <point x="102" y="452" type="curve" smooth="yes"/>
    </contour>
    <contour>
      <point x="0" y="0" type="move" name="mark3"/>
    </contour>
    <contour>
      <point x="293" y="522" type="move" name="mark2"/>
    </contour>
    <contour>
      <point x="293" y="0" type="move" name="mark1"/>
    </contour>
    <contour>
      <point x="0" y="0" type="move" name="mark4"/>
    </contour>
    <contour>
      <point x="0" y="0" type="move" name="mark0"/>
    </contour>
  </outline>
</glyph>
<glyph name="d" format="1">
  <advance width="582"/>
  <unicode hex="0064"/>
  <outline>
    <contour>
      <point x="54" y="389"/>
      <point x="39" y="327"/>
      <point x="39" y="256" type="curve" smooth="yes"/>
      <point x="39" y="122"/>
      <point x="90" y="-10"/>
      <point x="247" y="-10" type="curve" smooth="yes"/>
      <point x="298" y="-10"/>
      <point x="344" y="-2"/>
      <point x="379" y="58" type="curve"/>
      <point x="381" y="58" type="line"/>
      <point x="383" y="29" type="line" smooth="yes"/>
      <point x="384" y="10"/>
      <point x="393" y="0"/>
      <point x="409" y="0" type="curve" smooth="yes"/>
      <point x="486" y="0" type="line" smooth="yes"/>
      <point x="506" y="0"/>
      <point x="516" y="10"/>
      <point x="516" y="29" type="curve" smooth="yes"/>
      <point x="516" y="691" type="line" smooth="yes"/>
      <point x="516" y="711"/>
      <point x="506" y="721"/>
      <point x="486" y="721" type="curve" smooth="yes"/>
      <point x="408" y="721" type="line" smooth="yes"/>
      <point x="389" y="721"/>
      <point x="379" y="711"/>
      <point x="379" y="691" type="curve" smooth="yes"/>
      <point x="379" y="494" type="line" smooth="yes"/>
      <point x="379" y="477"/>
      <point x="380" y="464"/>
      <point x="381" y="455" type="curve"/>
      <point x="379" y="455" type="line"/>
      <point x="344" y="510"/>
      <point x="307" y="522"/>
      <point x="247" y="522" type="curve" smooth="yes"/>
      <point x="171" y="522"/>
      <point x="117" y="496"/>
      <point x="85" y="443" type="curve"/>
    </contour>
    <contour>
      <point x="191" y="161"/>
      <point x="184" y="203"/>
      <point x="184" y="256" type="curve" smooth="yes"/>
      <point x="184" y="365"/>
      <point x="203" y="427"/>
      <point x="290" y="427" type="curve" smooth="yes"/>
      <point x="337" y="427"/>
      <point x="379" y="367"/>
      <point x="379" y="278" type="curve" smooth="yes"/>
      <point x="379" y="234" type="line" smooth="yes"/>
      <point x="379" y="151"/>
      <point x="340" y="86"/>
      <point x="290" y="86" type="curve" smooth="yes"/>
      <point x="245" y="86"/>
      <point x="217" y="101"/>
      <point x="204" y="132" type="curve" smooth="yes"/>
    </contour>
    <contour>
      <point x="0" y="0" type="move" name="mark3"/>
    </contour>
    <contour>
      <point x="454" y="721" type="move" name="mark2"/>
    </contour>
    <contour>
      <point x="550" y="700" type="move" name="topright"/>
    </contour>
    <contour>
      <point x="277" y="0" type="move" name="mark1"/>
    </contour>
    <contour>
      <point x="0" y="0" type="move" name="mark0"/>
    </contour>
  </outline>
</glyph>
<glyph name="e" format="1">
  <advance width="573"/>
  <unicode hex="0065"/>
  <outline>
    <contour>
      <point x="60" y="404"/>
      <point x="39" y="339"/>
      <point x="39" y="256" type="curve" smooth="yes"/>
      <point x="39" y="94"/>
      <point x="110" y="-10"/>
      <point x="298" y="-10" type="curve" smooth="yes"/>
      <point x="416" y="-10"/>
      <point x="456" y="14"/>
      <point x="495" y="61" type="curve" smooth="yes"/>
      <point x="500" y="68"/>
      <point x="503" y="75"/>
      <point x="503" y="80" type="curve" smooth="yes"/>
      <point x="503" y="88"/>
      <point x="497" y="96"/>
      <point x="486" y="103" type="curve" smooth="yes"/>
      <point x="438" y="133" type="line" smooth="yes"/>
      <point x="431" y="137"/>
      <point x="425" y="139"/>
      <point x="419" y="139" type="curve" smooth="yes"/>
      <point x="386" y="139"/>
      <point x="387" y="86"/>
      <point x="298" y="86" type="curve" smooth="yes"/>
      <point x="242" y="86"/>
      <point x="194" y="100"/>
      <point x="184" y="209" type="curve"/>
      <point x="506" y="209" type="line" smooth="yes"/>
      <point x="524" y="209"/>
      <point x="533" y="219"/>
      <point x="533" y="238" type="curve" smooth="yes"/>
      <point x="533" y="440"/>
      <point x="448" y="522"/>
      <point x="275" y="522" type="curve" smooth="yes"/>
      <point x="200" y="522"/>
      <point x="142" y="498"/>
      <point x="101" y="451" type="curve" smooth="yes"/>
    </contour>
    <contour>
      <point x="387" y="372"/>
      <point x="396" y="343"/>
      <point x="396" y="307" type="curve"/>
      <point x="184" y="307" type="line"/>
      <point x="188" y="382"/>
      <point x="226" y="426"/>
      <point x="286" y="426" type="curve" smooth="yes"/>
      <point x="325" y="426"/>
      <point x="353" y="415"/>
      <point x="370" y="393" type="curve" smooth="yes"/>
    </contour>
    <contour>
      <point x="0" y="0" type="move" name="mark3"/>
    </contour>
    <contour>
      <point x="292" y="522" type="move" name="mark2"/>
    </contour>
    <contour>
      <point x="298" y="0" type="move" name="mark1"/>
    </contour>
    <contour>
      <point x="0" y="0" type="move" name="mark4"/>
    </contour>
    <contour>
      <point x="298" y="0" type="move" name="mark0"/>
    </contour>
  </outline>
</glyph>
<glyph name="f" format="1">
  <advance width="333"/>
  <unicode hex="0066"/>
  <outline>
    <contour>
      <point x="21" y="439" type="line" smooth="yes"/>
      <point x="21" y="423"/>
      <point x="30" y="415"/>
      <point x="49" y="415" type="curve" smooth="yes"/>
      <point x="77" y="415" type="line"/>
      <point x="77" y="29" type="line" smooth="yes"/>
      <point x="77" y="10"/>
      <point x="87" y="0"/>
      <point x="106" y="0" type="curve" smooth="yes"/>
      <point x="184" y="0" type="line" smooth="yes"/>
      <point x="203" y="0"/>
      <point x="213" y="10"/>
      <point x="213" y="29" type="curve" smooth="yes"/>
      <point x="213" y="415" type="line"/>
      <point x="278" y="415" type="line" smooth="yes"/>
      <point x="297" y="415"/>
      <point x="307" y="423"/>
      <point x="307" y="439" type="curve" smooth="yes"/>
      <point x="307" y="488" type="line" smooth="yes"/>
      <point x="307" y="505"/>
      <point x="297" y="513"/>
      <point x="278" y="513" type="curve" smooth="yes"/>
      <point x="213" y="513" type="line"/>
      <point x="213" y="532" type="line" smooth="yes"/>
      <point x="213" y="600"/>
      <point x="217" y="635"/>
      <point x="266" y="635" type="curve"/>
      <point x="296" y="633" type="line" smooth="yes"/>
      <point x="316" y="631"/>
      <point x="329" y="625"/>
      <point x="335" y="625" type="curve" smooth="yes"/>
      <point x="342" y="625"/>
      <point x="347" y="629"/>
      <point x="349" y="637" type="curve" smooth="yes"/>
      <point x="363" y="692" type="line" smooth="yes"/>
      <point x="364" y="694"/>
      <point x="364" y="697"/>
      <point x="364" y="700" type="curve" smooth="yes"/>
      <point x="364" y="725"/>
      <point x="298" y="730"/>
      <point x="250" y="730" type="curve" smooth="yes"/>
      <point x="153" y="730"/>
      <point x="77" y="701"/>
      <point x="77" y="581" type="curve" smooth="yes"/>
      <point x="77" y="513" type="line"/>
      <point x="49" y="513" type="line" smooth="yes"/>
      <point x="30" y="513"/>
      <point x="21" y="505"/>
      <point x="21" y="488" type="curve" smooth="yes"/>
    </contour>
    <contour>
      <point x="0" y="0" type="move" name="mark3"/>
    </contour>
    <contour>
      <point x="250" y="721" type="move" name="mark2"/>
    </contour>
    <contour>
      <point x="145" y="0" type="move" name="mark1"/>
    </contour>
    <contour>
      <point x="0" y="0" type="move" name="mark4"/>
    </contour>
    <contour>
      <point x="0" y="0" type="move" name="mark0"/>
    </contour>
  </outline>
</glyph>
<glyph name="g" format="1">
  <advance width="582"/>
  <unicode hex="0067"/>
  <outline>
    <contour>
      <point x="54" y="389"/>
      <point x="39" y="327"/>
      <point x="39" y="256" type="curve" smooth="yes"/>
      <point x="39" y="126"/>
      <point x="89" y="-5"/>
      <point x="247" y="-5" type="curve" smooth="yes"/>
      <point x="298" y="-5"/>
      <point x="344" y="3"/>
      <point x="379" y="63" type="curve"/>
      <point x="381" y="63" type="line"/>
      <point x="380" y="54"/>
      <point x="379" y="40"/>
      <point x="379" y="23" type="curve" smooth="yes"/>
      <point x="379" y="15" type="line" smooth="yes"/>
      <point x="379" y="-90"/>
      <point x="335" y="-109"/>
      <point x="250" y="-109" type="curve" smooth="yes"/>
      <point x="200" y="-109"/>
      <point x="158" y="-101"/>
      <point x="125" y="-85" type="curve" smooth="yes"/>
      <point x="117" y="-82"/>
      <point x="112" y="-81"/>
      <point x="110" y="-81" type="curve" smooth="yes"/>
      <point x="102" y="-81"/>
      <point x="95" y="-86"/>
      <point x="90" y="-95" type="curve" smooth="yes"/>
      <point x="72" y="-130" type="line" smooth="yes"/>
      <point x="68" y="-138"/>
      <point x="66" y="-145"/>
      <point x="66" y="-152" type="curve" smooth="yes"/>
      <point x="66" y="-180"/>
      <point x="139" y="-197"/>
      <point x="169" y="-200" type="curve" smooth="yes"/>
      <point x="201" y="-204"/>
      <point x="233" y="-205"/>
      <point x="265" y="-205" type="curve" smooth="yes"/>
      <point x="426" y="-205"/>
      <point x="516" y="-155"/>
      <point x="516" y="5" type="curve" smooth="yes"/>
      <point x="516" y="483" type="line" smooth="yes"/>
      <point x="516" y="503"/>
      <point x="506" y="513"/>
      <point x="486" y="513" type="curve" smooth="yes"/>
      <point x="409" y="513" type="line" smooth="yes"/>
      <point x="393" y="513"/>
      <point x="384" y="503"/>
      <point x="383" y="483" type="curve" smooth="yes"/>
      <point x="381" y="455" type="line"/>
      <point x="379" y="455" type="line"/>
      <point x="344" y="510"/>
      <point x="307" y="522"/>
      <point x="247" y="522" type="curve" smooth="yes"/>
      <point x="171" y="522"/>
      <point x="117" y="496"/>
      <point x="85" y="443" type="curve"/>
    </contour>
    <contour>
      <point x="191" y="166"/>
      <point x="184" y="205"/>
      <point x="184" y="256" type="curve" smooth="yes"/>
      <point x="184" y="365"/>
      <point x="203" y="427"/>
      <point x="290" y="427" type="curve" smooth="yes"/>
      <point x="337" y="427"/>
      <point x="379" y="367"/>
      <point x="379" y="278" type="curve" smooth="yes"/>
      <point x="379" y="239" type="line" smooth="yes"/>
      <point x="379" y="157"/>
      <point x="342" y="91"/>
      <point x="290" y="91" type="curve" smooth="yes"/>
      <point x="245" y="91"/>
      <point x="217" y="106"/>
      <point x="204" y="137" type="curve" smooth="yes"/>
    </contour>
    <contour>
      <point x="0" y="0" type="move" name="mark3"/>
    </contour>
    <contour>
      <point x="277" y="522" type="move" name="mark2"/>
    </contour>
    <contour>
      <point x="265" y="-195" type="move" name="mark1"/>
    </contour>
    <contour>
      <point x="0" y="0" type="move" name="mark4"/>
    </contour>
    <contour>
      <point x="0" y="0" type="move" name="mark0"/>
    </contour>
  </outline>
</glyph>
<glyph name="h" format="1">
  <advance width="586"/>
  <unicode hex="0068"/>
  <outline>
    <contour>
      <point x="66" y="29" type="line" smooth="yes"/>
      <point x="66" y="10"/>
      <point x="76" y="0"/>
      <point x="96" y="0" type="curve" smooth="yes"/>
      <point x="174" y="0" type="line" smooth="yes"/>
      <point x="193" y="0"/>
      <point x="203" y="10"/>
      <point x="203" y="29" type="curve" smooth="yes"/>
      <point x="203" y="222" type="line" smooth="yes"/>
      <point x="203" y="391"/>
      <point x="238" y="427"/>
      <point x="306" y="427" type="curve" smooth="yes"/>
      <point x="367" y="427"/>
      <point x="384" y="412"/>
      <point x="384" y="265" type="curve" smooth="yes"/>
      <point x="384" y="29" type="line" smooth="yes"/>
      <point x="384" y="10"/>
      <point x="394" y="0"/>
      <point x="413" y="0" type="curve" smooth="yes"/>
      <point x="491" y="0" type="line" smooth="yes"/>
      <point x="511" y="0"/>
      <point x="521" y="10"/>
      <point x="521" y="29" type="curve" smooth="yes"/>
      <point x="521" y="300" type="line" smooth="yes"/>
      <point x="521" y="471"/>
      <point x="445" y="522"/>
      <point x="345" y="522" type="curve" smooth="yes"/>
      <point x="277" y="522"/>
      <point x="233" y="504"/>
      <point x="204" y="455" type="curve"/>
      <point x="201" y="455" type="line"/>
      <point x="202" y="464"/>
      <point x="203" y="477"/>
      <point x="203" y="494" type="curve" smooth="yes"/>
      <point x="203" y="691" type="line" smooth="yes"/>
      <point x="203" y="711"/>
      <point x="193" y="721"/>
      <point x="174" y="721" type="curve" smooth="yes"/>
      <point x="96" y="721" type="line" smooth="yes"/>
      <point x="76" y="721"/>
      <point x="66" y="711"/>
      <point x="66" y="691" type="curve" smooth="yes"/>
    </contour>
    <contour>
      <point x="0" y="0" type="move" name="mark3"/>
    </contour>
    <contour>
      <point x="293" y="721" type="move" name="mark2"/>
    </contour>
    <contour>
      <point x="293" y="0" type="move" name="mark1"/>
    </contour>
    <contour>
      <point x="0" y="0" type="move" name="mark4"/>
    </contour>
    <contour>
      <point x="0" y="0" type="move" name="mark0"/>
    </contour>
  </outline>
</glyph>
<glyph name="k" format="1">
  <advance width="544"/>
  <unicode hex="006B"/>
  <outline>
    <contour>
      <point x="66" y="29" type="line" smooth="yes"/>
      <point x="66" y="10"/>
      <point x="76" y="0"/>
      <point x="96" y="0" type="curve" smooth="yes"/>
      <point x="174" y="0" type="line" smooth="yes"/>
      <point x="193" y="0"/>
      <point x="203" y="10"/>
      <point x="203" y="29" type="curve" smooth="yes"/>
      <point x="203" y="129" type="line"/>
      <point x="265" y="204" type="line"/>
      <point x="376" y="25" type="line" smooth="yes"/>
      <point x="386" y="8"/>
      <point x="399" y="0"/>
      <point x="416" y="0" type="curve" smooth="yes"/>
      <point x="500" y="0" type="line" smooth="yes"/>
      <point x="515" y="0"/>
      <point x="523" y="5"/>
      <point x="523" y="14" type="curve" smooth="yes"/>
      <point x="523" y="21"/>
      <point x="520" y="28"/>
      <point x="515" y="36" type="curve" smooth="yes"/>
      <point x="344" y="298" type="line"/>
      <point x="491" y="477" type="line" smooth="yes"/>
      <point x="499" y="486"/>
      <point x="503" y="494"/>
      <point x="503" y="500" type="curve" smooth="yes"/>
      <point x="503" y="509"/>
      <point x="494" y="513"/>
      <point x="476" y="513" type="curve" smooth="yes"/>
      <point x="396" y="513" type="line" smooth="yes"/>
      <point x="381" y="513"/>
      <point x="368" y="506"/>
      <point x="358" y="493" type="curve" smooth="yes"/>
      <point x="203" y="293" type="line"/>
      <point x="201" y="293" type="line"/>
      <point x="202" y="302"/>
      <point x="203" y="316"/>
      <point x="203" y="333" type="curve" smooth="yes"/>
      <point x="203" y="691" type="line" smooth="yes"/>
      <point x="203" y="711"/>
      <point x="193" y="721"/>
      <point x="174" y="721" type="curve" smooth="yes"/>
      <point x="96" y="721" type="line" smooth="yes"/>
      <point x="76" y="721"/>
      <point x="66" y="711"/>
      <point x="66" y="691" type="curve" smooth="yes"/>
    </contour>
    <contour>
      <point x="0" y="0" type="move" name="mark3"/>
    </contour>
    <contour>
      <point x="295" y="721" type="move" name="mark2"/>
    </contour>
    <contour>
      <point x="295" y="0" type="move" name="mark1"/>
    </contour>
    <contour>
      <point x="0" y="0" type="move" name="mark4"/>
    </contour>
    <contour>
      <point x="0" y="0" type="move" name="mark0"/>
    </contour>
  </outline>
</glyph>
<glyph name="m" format="1">
  <advance width="854"/>
  <unicode hex="006D"/>
  <outline>
    <contour>
      <point x="66" y="29" type="line" smooth="yes"/>
      <point x="66" y="10"/>
      <point x="76" y="0"/>
      <point x="96" y="0" type="curve" smooth="yes"/>
      <point x="174" y="0" type="line" smooth="yes"/>
      <point x="193" y="0"/>
      <point x="203" y="10"/>
      <point x="203" y="29" type="curve" smooth="yes"/>
      <point x="203" y="222" type="line" smooth="yes"/>
      <point x="203" y="393"/>
      <point x="250" y="427"/>
      <point x="294" y="427" type="curve" smooth="yes"/>
      <point x="341" y="427"/>
      <point x="359" y="407"/>
      <point x="359" y="265" type="curve" smooth="yes"/>
      <point x="359" y="29" type="line" smooth="yes"/>
      <point x="359" y="10"/>
      <point x="369" y="0"/>
      <point x="389" y="0" type="curve" smooth="yes"/>
      <point x="467" y="0" type="line" smooth="yes"/>
      <point x="486" y="0"/>
      <point x="496" y="10"/>
      <point x="496" y="29" type="curve" smooth="yes"/>
      <point x="496" y="222" type="line" smooth="yes"/>
      <point x="496" y="393"/>
      <point x="543" y="427"/>
      <point x="587" y="427" type="curve" smooth="yes"/>
      <point x="634" y="427"/>
      <point x="652" y="407"/>
      <point x="652" y="265" type="curve" smooth="yes"/>
      <point x="652" y="29" type="line" smooth="yes"/>
      <point x="652" y="10"/>
      <point x="662" y="0"/>
      <point x="682" y="0" type="curve" smooth="yes"/>
      <point x="760" y="0" type="line" smooth="yes"/>
      <point x="779" y="0"/>
      <point x="789" y="10"/>
      <point x="789" y="29" type="curve" smooth="yes"/>
      <point x="789" y="300" type="line" smooth="yes"/>
      <point x="789" y="471"/>
      <point x="712" y="522"/>
      <point x="618" y="522" type="curve" smooth="yes"/>
      <point x="541" y="522"/>
      <point x="509" y="508"/>
      <point x="453" y="434" type="curve"/>
      <point x="451" y="434" type="line"/>
      <point x="433" y="482"/>
      <point x="391" y="522"/>
      <point x="315" y="522" type="curve" smooth="yes"/>
      <point x="271" y="522"/>
      <point x="220" y="493"/>
      <point x="204" y="455" type="curve"/>
      <point x="202" y="455" type="line"/>
      <point x="202" y="483" type="line" smooth="yes"/>
      <point x="202" y="503"/>
      <point x="192" y="513"/>
      <point x="173" y="513" type="curve" smooth="yes"/>
      <point x="96" y="513" type="line" smooth="yes"/>
      <point x="76" y="513"/>
      <point x="66" y="503"/>
      <point x="66" y="483" type="curve" smooth="yes"/>
    </contour>
    <contour>
      <point x="0" y="0" type="move" name="mark3"/>
    </contour>
    <contour>
      <point x="428" y="522" type="move" name="mark2"/>
    </contour>
    <contour>
      <point x="428" y="0" type="move" name="mark1"/>
    </contour>
    <contour>
      <point x="0" y="0" type="move" name="mark4"/>
    </contour>
    <contour>
      <point x="0" y="0" type="move" name="mark0"/>
    </contour>
  </outline>
</glyph>
<glyph name="o" format="1">
  <advance width="589"/>
  <unicode hex="006F"/>
  <outline>
    <contour>
      <point x="60" y="403"/>
      <point x="39" y="338"/>
      <point x="39" y="256" type="curve" smooth="yes"/>
      <point x="39" y="93"/>
      <point x="124" y="-10"/>
      <point x="294" y="-10" type="curve" smooth="yes"/>
      <point x="464" y="-10"/>
      <point x="550" y="92"/>
      <point x="550" y="256" type="curve" smooth="yes"/>
      <point x="550" y="415"/>
      <point x="469" y="522"/>
      <point x="294" y="522" type="curve" smooth="yes"/>
      <point x="209" y="522"/>
      <point x="146" y="499"/>
      <point x="103" y="452" type="curve" smooth="yes"/>
    </contour>
    <contour>
      <point x="193" y="150"/>
      <point x="184" y="193"/>
      <point x="184" y="256" type="curve" smooth="yes"/>
      <point x="184" y="386"/>
      <point x="225" y="427"/>
      <point x="294" y="427" type="curve" smooth="yes"/>
      <point x="363" y="427"/>
      <point x="405" y="384"/>
      <point x="405" y="256" type="curve" smooth="yes"/>
      <point x="405" y="126"/>
      <point x="361" y="86"/>
      <point x="294" y="86" type="curve" smooth="yes"/>
      <point x="259" y="86"/>
      <point x="231" y="99"/>
      <point x="212" y="125" type="curve" smooth="yes"/>
    </contour>
    <contour>
      <point x="0" y="0" type="move" name="mark3"/>
    </contour>
    <contour>
      <point x="294" y="522" type="move" name="mark2"/>
    </contour>
    <contour>
      <point x="294" y="0" type="move" name="mark1"/>
    </contour>
    <contour>
      <point x="0" y="0" type="move" name="mark4"/>
    </contour>
    <contour>
      <point x="294" y="0" type="move" name="mark0"/>
    </contour>
  </outline>
</glyph>
<glyph name="r" format="1">
  <advance width="384"/>
  <unicode hex="0072"/>
  <outline>
    <contour>
      <point x="66" y="29" type="line" smooth="yes"/>
      <point x="66" y="10"/>
      <point x="76" y="0"/>
      <point x="96" y="0" type="curve" smooth="yes"/>
      <point x="174" y="0" type="line" smooth="yes"/>
      <point x="193" y="0"/>
      <point x="203" y="10"/>
      <point x="203" y="29" type="curve" smooth="yes"/>
      <point x="203" y="207" type="line" smooth="yes"/>
      <point x="203" y="350"/>
      <point x="248" y="427"/>
      <point x="312" y="427" type="curve" smooth="yes"/>
      <point x="321" y="427"/>
      <point x="340" y="420"/>
      <point x="347" y="420" type="curve" smooth="yes"/>
      <point x="355" y="420"/>
      <point x="360" y="425"/>
      <point x="362" y="434" type="curve" smooth="yes"/>
      <point x="376" y="492" type="line" smooth="yes"/>
      <point x="376" y="494"/>
      <point x="376" y="495"/>
      <point x="376" y="497" type="curve" smooth="yes"/>
      <point x="376" y="517"/>
      <point x="349" y="522"/>
      <point x="317" y="522" type="curve" smooth="yes"/>
      <point x="258" y="522"/>
      <point x="217" y="477"/>
      <point x="204" y="443" type="curve"/>
      <point x="202" y="443" type="line"/>
      <point x="202" y="483" type="line" smooth="yes"/>
      <point x="202" y="503"/>
      <point x="192" y="513"/>
      <point x="173" y="513" type="curve" smooth="yes"/>
      <point x="96" y="513" type="line" smooth="yes"/>
      <point x="76" y="513"/>
      <point x="66" y="503"/>
      <point x="66" y="483" type="curve" smooth="yes"/>
    </contour>
    <contour>
      <point x="0" y="0" type="move" name="mark3"/>
    </contour>
    <contour>
      <point x="228" y="522" type="move" name="mark2"/>
    </contour>
    <contour>
      <point x="135" y="0" type="move" name="mark1"/>
    </contour>
    <contour>
      <point x="0" y="0" type="move" name="mark4"/>
    </contour>
    <contour>
      <point x="0" y="0" type="move" name="mark0"/>
    </contour>
  </outline>
</glyph>
<glyph name="s" format="1">
  <advance width="491"/>
  <unicode hex="0073"/>
  <outline>
    <contour>
      <point x="40" y="13"/>
      <point x="153" y="-10"/>
      <point x="256" y="-10" type="curve" smooth="yes"/>
      <point x="385" y="-10"/>
      <point x="467" y="55"/>
      <point x="467" y="153" type="curve" smooth="yes"/>
      <point x="467" y="267"/>
      <point x="392" y="285"/>
      <point x="303" y="313" type="curve" smooth="yes"/>
      <point x="262" y="326" type="line" smooth="yes"/>
      <point x="216" y="341"/>
      <point x="198" y="350"/>
      <point x="198" y="380" type="curve" smooth="yes"/>
      <point x="198" y="413"/>
      <point x="233" y="427"/>
      <point x="274" y="427" type="curve" smooth="yes"/>
      <point x="309" y="427"/>
      <point x="336" y="418"/>
      <point x="369" y="398" type="curve" smooth="yes"/>
      <point x="378" y="393"/>
      <point x="386" y="390"/>
      <point x="393" y="390" type="curve" smooth="yes"/>
      <point x="401" y="390"/>
      <point x="408" y="394"/>
      <point x="413" y="401" type="curve" smooth="yes"/>
      <point x="443" y="445" type="line" smooth="yes"/>
      <point x="446" y="450"/>
      <point x="448" y="455"/>
      <point x="448" y="459" type="curve" smooth="yes"/>
      <point x="448" y="474"/>
      <point x="431" y="489"/>
      <point x="366" y="509" type="curve" smooth="yes"/>
      <point x="337" y="517"/>
      <point x="308" y="522"/>
      <point x="277" y="522" type="curve" smooth="yes"/>
      <point x="144" y="522"/>
      <point x="61" y="475"/>
      <point x="61" y="371" type="curve" smooth="yes"/>
      <point x="61" y="284"/>
      <point x="116" y="241"/>
      <point x="224" y="208" type="curve"/>
      <point x="276" y="194" type="line" smooth="yes"/>
      <point x="308" y="185"/>
      <point x="330" y="172"/>
      <point x="330" y="145" type="curve" smooth="yes"/>
      <point x="330" y="100"/>
      <point x="295" y="86"/>
      <point x="244" y="86" type="curve" smooth="yes"/>
      <point x="204" y="86"/>
      <point x="145" y="98"/>
      <point x="109" y="122" type="curve" smooth="yes"/>
      <point x="100" y="127"/>
      <point x="93" y="130"/>
      <point x="88" y="130" type="curve" smooth="yes"/>
      <point x="80" y="130"/>
      <point x="73" y="125"/>
      <point x="68" y="116" type="curve" smooth="yes"/>
      <point x="43" y="71" type="line" smooth="yes"/>
      <point x="41" y="67"/>
      <point x="40" y="63"/>
      <point x="40" y="59" type="curve" smooth="yes"/>
    </contour>
    <contour>
      <point x="0" y="0" type="move" name="mark3"/>
    </contour>
    <contour>
      <point x="256" y="522" type="move" name="mark2"/>
    </contour>
    <contour>
      <point x="245" y="0" type="move" name="mark1"/>
    </contour>
    <contour>
      <point x="0" y="0" type="move" name="mark4"/>
    </contour>
    <contour>
      <point x="0" y="0" type="move" name="mark0"/>
    </contour>
  </outline>
</glyph>
<glyph name="t" format="1">
  <advance width="390"/>
  <unicode hex="0074"/>
  <outline>
    <contour>
      <point x="21" y="439" type="line" smooth="yes"/>
      <point x="21" y="423"/>
      <point x="30" y="415"/>
      <point x="49" y="415" type="curve" smooth="yes"/>
      <point x="83" y="415" type="line"/>
      <point x="83" y="131" type="line" smooth="yes"/>
      <point x="83" y="8"/>
      <point x="163" y="-16"/>
      <point x="251" y="-16" type="curve" smooth="yes"/>
      <point x="298" y="-16"/>
      <point x="365" y="-3"/>
      <point x="365" y="21" type="curve" smooth="yes"/>
      <point x="365" y="24"/>
      <point x="365" y="27"/>
      <point x="364" y="28" type="curve"/>
      <point x="350" y="83" type="line" smooth="yes"/>
      <point x="347" y="92"/>
      <point x="342" y="97"/>
      <point x="335" y="97" type="curve"/>
      <point x="327" y="95" type="line"/>
      <point x="312" y="87"/>
      <point x="282" y="80"/>
      <point x="263" y="80" type="curve" smooth="yes"/>
      <point x="219" y="80"/>
      <point x="219" y="117"/>
      <point x="219" y="173" type="curve" smooth="yes"/>
      <point x="219" y="415" type="line"/>
      <point x="298" y="415" type="line" smooth="yes"/>
      <point x="317" y="415"/>
      <point x="327" y="423"/>
      <point x="327" y="439" type="curve" smooth="yes"/>
      <point x="327" y="488" type="line" smooth="yes"/>
      <point x="327" y="505"/>
      <point x="317" y="513"/>
      <point x="298" y="513" type="curve" smooth="yes"/>
      <point x="219" y="513" type="line"/>
      <point x="219" y="625" type="line" smooth="yes"/>
      <point x="219" y="644"/>
      <point x="209" y="654"/>
      <point x="190" y="654" type="curve" smooth="yes"/>
      <point x="156" y="654" type="line"/>
      <point x="148" y="653"/>
      <point x="137" y="648"/>
      <point x="130" y="636" type="curve" smooth="yes"/>
      <point x="93" y="570" type="line" smooth="yes"/>
      <point x="86" y="559"/>
      <point x="83" y="545"/>
      <point x="83" y="530" type="curve" smooth="yes"/>
      <point x="83" y="513" type="line"/>
      <point x="49" y="513" type="line" smooth="yes"/>
      <point x="30" y="513"/>
      <point x="21" y="505"/>
      <point x="21" y="488" type="curve" smooth="yes"/>
    </contour>
    <contour>
      <point x="0" y="0" type="move" name="mark3"/>
    </contour>
    <contour>
      <point x="151" y="654" type="move" name="mark2"/>
    </contour>
    <contour>
      <point x="229" y="0" type="move" name="mark1"/>
    </contour>
    <contour>
      <point x="0" y="0" type="move" name="mark4"/>
    </contour>
    <contour>
      <point x="0" y="0" type="move" name="mark0"/>
    </contour>
  </outline>
</glyph>
<glyph name="u" format="1">
  <advance width="583"/>
  <unicode hex="0075"/>
  <outline>
    <contour>
      <point x="65" y="213" type="line" smooth="yes"/>
      <point x="65" y="41"/>
      <point x="142" y="-10"/>
      <point x="240" y="-10" type="curve" smooth="yes"/>
      <point x="307" y="-10"/>
      <point x="350" y="9"/>
      <point x="379" y="58" type="curve"/>
      <point x="381" y="58" type="line"/>
      <point x="381" y="29" type="line" smooth="yes"/>
      <point x="381" y="10"/>
      <point x="391" y="0"/>
      <point x="410" y="0" type="curve" smooth="yes"/>
      <point x="487" y="0" type="line" smooth="yes"/>
      <point x="507" y="0"/>
      <point x="517" y="10"/>
      <point x="517" y="29" type="curve" smooth="yes"/>
      <point x="517" y="483" type="line" smooth="yes"/>
      <point x="517" y="503"/>
      <point x="507" y="513"/>
      <point x="487" y="513" type="curve" smooth="yes"/>
      <point x="409" y="513" type="line" smooth="yes"/>
      <point x="390" y="513"/>
      <point x="380" y="503"/>
      <point x="380" y="483" type="curve" smooth="yes"/>
      <point x="380" y="291" type="line" smooth="yes"/>
      <point x="380" y="123"/>
      <point x="346" y="86"/>
      <point x="278" y="86" type="curve" smooth="yes"/>
      <point x="218" y="86"/>
      <point x="202" y="100"/>
      <point x="202" y="248" type="curve" smooth="yes"/>
      <point x="202" y="483" type="line" smooth="yes"/>
      <point x="202" y="503"/>
      <point x="192" y="513"/>
      <point x="173" y="513" type="curve" smooth="yes"/>
      <point x="95" y="513" type="line" smooth="yes"/>
      <point x="75" y="513"/>
      <point x="65" y="503"/>
      <point x="65" y="483" type="curve" smooth="yes"/>
    </contour>
    <contour>
      <point x="0" y="0" type="move" name="mark3"/>
    </contour>
    <contour>
      <point x="291" y="522" type="move" name="mark2"/>
    </contour>
    <contour>
      <point x="291" y="0" type="move" name="mark1"/>
    </contour>
    <contour>
      <point x="0" y="0" type="move" name="mark4"/>
    </contour>
    <contour>
      <point x="448" y="0" type="move" name="mark0"/>
    </contour>
  </outline>
</glyph>
<glyph name="v" format="1">
  <advance width="492"/>
  <unicode hex="0076"/>
  <outline>
    <contour>
      <point x="29" y="489"/>
      <point x="30" y="482"/>
      <point x="33" y="475" type="curve"/>
      <point x="174" y="33" type="line" smooth="yes"/>
      <point x="181" y="11"/>
      <point x="193" y="0"/>
      <point x="210" y="0" type="curve" smooth="yes"/>
      <point x="307" y="0" type="line" smooth="yes"/>
      <point x="324" y="0"/>
      <point x="335" y="11"/>
      <point x="342" y="33" type="curve" smooth="yes"/>
      <point x="484" y="475" type="line" smooth="yes"/>
      <point x="487" y="486"/>
      <point x="488" y="492"/>
      <point x="488" y="494" type="curve" smooth="yes"/>
      <point x="488" y="507"/>
      <point x="481" y="513"/>
      <point x="468" y="513" type="curve" smooth="yes"/>
      <point x="380" y="513" type="line" smooth="yes"/>
      <point x="364" y="513"/>
      <point x="355" y="505"/>
      <point x="351" y="488" type="curve" smooth="yes"/>
      <point x="275" y="202" type="line" smooth="yes"/>
      <point x="266" y="167"/>
      <point x="261" y="138"/>
      <point x="260" y="116" type="curve"/>
      <point x="257" y="116" type="line"/>
      <point x="254" y="146"/>
      <point x="248" y="175"/>
      <point x="241" y="202" type="curve" smooth="yes"/>
      <point x="166" y="488" type="line" smooth="yes"/>
      <point x="161" y="505"/>
      <point x="150" y="513"/>
      <point x="136" y="513" type="curve" smooth="yes"/>
      <point x="49" y="513" type="line" smooth="yes"/>
      <point x="36" y="513"/>
      <point x="29" y="507"/>
      <point x="29" y="495" type="curve" smooth="yes"/>
    </contour>
    <contour>
      <point x="0" y="0" type="move" name="mark3"/>
    </contour>
    <contour>
      <point x="246" y="522" type="move" name="mark2"/>
    </contour>
    <contour>
      <point x="246" y="0" type="move" name="mark1"/>
    </contour>
    <contour>
      <point x="0" y="0" type="move" name="mark4"/>
    </contour>
    <contour>
      <point x="0" y="0" type="move" name="mark0"/>
    </contour>
  </outline>
</glyph>
<glyph name="w" format="1">
  <advance width="783"/>
  <unicode hex="0077"/>
  <outline>
    <contour>
      <point x="28" y="489"/>
      <point x="29" y="482"/>
      <point x="31" y="475" type="curve" smooth="yes"/>
      <point x="158" y="33" type="line" smooth="yes"/>
      <point x="164" y="11"/>
      <point x="177" y="0"/>
      <point x="194" y="0" type="curve" smooth="yes"/>
      <point x="282" y="0" type="line" smooth="yes"/>
      <point x="301" y="0"/>
      <point x="312" y="11"/>
      <point x="318" y="33" type="curve" smooth="yes"/>
      <point x="389" y="322" type="line" smooth="yes"/>
      <point x="402" y="374"/>
      <point x="401" y="380"/>
      <point x="401" y="396" type="curve"/>
      <point x="403" y="396" type="line"/>
      <point x="404" y="381"/>
      <point x="406" y="370"/>
      <point x="407" y="362" type="curve"/>
      <point x="487" y="33" type="line" smooth="yes"/>
      <point x="492" y="11"/>
      <point x="504" y="0"/>
      <point x="522" y="0" type="curve" smooth="yes"/>
      <point x="611" y="0" type="line" smooth="yes"/>
      <point x="628" y="0"/>
      <point x="640" y="11"/>
      <point x="646" y="33" type="curve" smooth="yes"/>
      <point x="773" y="475" type="line" smooth="yes"/>
      <point x="775" y="482"/>
      <point x="776" y="489"/>
      <point x="776" y="494" type="curve" smooth="yes"/>
      <point x="776" y="507"/>
      <point x="770" y="513"/>
      <point x="757" y="513" type="curve" smooth="yes"/>
      <point x="675" y="513" type="line" smooth="yes"/>
      <point x="658" y="513"/>
      <point x="650" y="505"/>
      <point x="646" y="488" type="curve" smooth="yes"/>
      <point x="580" y="202" type="line" smooth="yes"/>
      <point x="570" y="160"/>
      <point x="565" y="131"/>
      <point x="564" y="116" type="curve"/>
      <point x="561" y="116" type="line"/>
      <point x="560" y="135"/>
      <point x="554" y="163"/>
      <point x="545" y="202" type="curve" smooth="yes"/>
      <point x="476" y="488" type="line" smooth="yes"/>
      <point x="472" y="505"/>
      <point x="462" y="513"/>
      <point x="447" y="513" type="curve" smooth="yes"/>
      <point x="358" y="513" type="line" smooth="yes"/>
      <point x="343" y="513"/>
      <point x="333" y="505"/>
      <point x="329" y="488" type="curve" smooth="yes"/>
      <point x="259" y="202" type="line" smooth="yes"/>
      <point x="250" y="167"/>
      <point x="245" y="138"/>
      <point x="244" y="116" type="curve"/>
      <point x="241" y="116" type="line"/>
      <point x="239" y="137"/>
      <point x="233" y="165"/>
      <point x="225" y="202" type="curve" smooth="yes"/>
      <point x="159" y="488" type="line" smooth="yes"/>
      <point x="155" y="505"/>
      <point x="145" y="513"/>
      <point x="130" y="513" type="curve" smooth="yes"/>
      <point x="47" y="513" type="line" smooth="yes"/>
      <point x="34" y="513"/>
      <point x="28" y="507"/>
      <point x="28" y="494" type="curve" smooth="yes"/>
    </contour>
    <contour>
      <point x="0" y="0" type="move" name="mark3"/>
    </contour>
    <contour>
      <point x="392" y="522" type="move" name="mark2"/>
    </contour>
    <contour>
      <point x="392" y="0" type="move" name="mark1"/>
    </contour>
    <contour>
      <point x="0" y="0" type="move" name="mark4"/>
    </contour>
    <contour>
      <point x="0" y="0" type="move" name="mark0"/>
    </contour>
  </outline>
</glyph>
<glyph name="x" format="1">
  <advance width="530"/>
  <unicode hex="0078"/>
  <outline>
    <contour>
      <point x="43" y="5"/>
      <point x="52" y="0"/>
      <point x="69" y="0" type="curve" smooth="yes"/>
      <point x="162" y="0" type="line" smooth="yes"/>
      <point x="177" y="0"/>
      <point x="187" y="7"/>
      <point x="195" y="20" type="curve" smooth="yes"/>
      <point x="290" y="179" type="line"/>
      <point x="384" y="20" type="line" smooth="yes"/>
      <point x="391" y="7"/>
      <point x="401" y="0"/>
      <point x="417" y="0" type="curve" smooth="yes"/>
      <point x="510" y="0" type="line" smooth="yes"/>
      <point x="527" y="0"/>
      <point x="536" y="5"/>
      <point x="536" y="14" type="curve" smooth="yes"/>
      <point x="536" y="20"/>
      <point x="533" y="27"/>
      <point x="527" y="36" type="curve" smooth="yes"/>
      <point x="365" y="270" type="line"/>
      <point x="508" y="477" type="line" smooth="yes"/>
      <point x="514" y="486"/>
      <point x="517" y="494"/>
      <point x="517" y="499" type="curve" smooth="yes"/>
      <point x="517" y="508"/>
      <point x="508" y="513"/>
      <point x="491" y="513" type="curve" smooth="yes"/>
      <point x="398" y="513" type="line" smooth="yes"/>
      <point x="384" y="513"/>
      <point x="372" y="506"/>
      <point x="365" y="493" type="curve" smooth="yes"/>
      <point x="290" y="361" type="line"/>
      <point x="214" y="493" type="line" smooth="yes"/>
      <point x="207" y="506"/>
      <point x="196" y="513"/>
      <point x="181" y="513" type="curve" smooth="yes"/>
      <point x="88" y="513" type="line" smooth="yes"/>
      <point x="71" y="513"/>
      <point x="62" y="508"/>
      <point x="62" y="499" type="curve" smooth="yes"/>
      <point x="62" y="494"/>
      <point x="65" y="486"/>
      <point x="71" y="477" type="curve" smooth="yes"/>
      <point x="213" y="270" type="line"/>
      <point x="52" y="36" type="line" smooth="yes"/>
      <point x="46" y="27"/>
      <point x="43" y="20"/>
      <point x="43" y="14" type="curve" smooth="yes"/>
    </contour>
    <contour>
      <point x="0" y="0" type="move" name="mark3"/>
    </contour>
    <contour>
      <point x="292" y="522" type="move" name="mark2"/>
    </contour>
    <contour>
      <point x="265" y="0" type="move" name="mark1"/>
    </contour>
    <contour>
      <point x="0" y="0" type="move" name="mark4"/>
    </contour>
    <contour>
      <point x="0" y="0" type="move" name="mark0"/>
    </contour>
  </outline>
</glyph>
<glyph name="y" format="1">
  <advance width="483"/>
  <unicode hex="0079"/>
  <outline>
    <contour>
      <point x="31" y="489"/>
      <point x="32" y="482"/>
      <point x="35" y="475" type="curve" smooth="yes"/>
      <point x="198" y="0" type="line"/>
      <point x="196" y="-7" type="line" smooth="yes"/>
      <point x="189" y="-41"/>
      <point x="162" y="-109"/>
      <point x="108" y="-109" type="curve" smooth="yes"/>
      <point x="95" y="-109"/>
      <point x="84" y="-103"/>
      <point x="72" y="-103" type="curve" smooth="yes"/>
      <point x="63" y="-103"/>
      <point x="57" y="-108"/>
      <point x="55" y="-119" type="curve" smooth="yes"/>
      <point x="44" y="-173" type="line" smooth="yes"/>
      <point x="44" y="-175"/>
      <point x="43" y="-177"/>
      <point x="43" y="-179" type="curve" smooth="yes"/>
      <point x="43" y="-205"/>
      <point x="90" y="-205"/>
      <point x="132" y="-205" type="curve" smooth="yes"/>
      <point x="234" y="-205"/>
      <point x="281" y="-134"/>
      <point x="319" y="-21" type="curve" smooth="yes"/>
      <point x="484" y="475" type="line" smooth="yes"/>
      <point x="487" y="486"/>
      <point x="488" y="492"/>
      <point x="488" y="494" type="curve" smooth="yes"/>
      <point x="488" y="507"/>
      <point x="481" y="513"/>
      <point x="468" y="513" type="curve" smooth="yes"/>
      <point x="380" y="513" type="line" smooth="yes"/>
      <point x="364" y="513"/>
      <point x="355" y="505"/>
      <point x="351" y="488" type="curve" smooth="yes"/>
      <point x="281" y="229" type="line"/>
      <point x="266" y="168" type="line" smooth="yes"/>
      <point x="265" y="162"/>
      <point x="263" y="148"/>
      <point x="258" y="127" type="curve"/>
      <point x="255" y="127" type="line"/>
      <point x="256" y="130"/>
      <point x="248" y="190"/>
      <point x="241" y="215" type="curve" smooth="yes"/>
      <point x="167" y="488" type="line" smooth="yes"/>
      <point x="162" y="505"/>
      <point x="153" y="513"/>
      <point x="138" y="513" type="curve" smooth="yes"/>
      <point x="51" y="513" type="line" smooth="yes"/>
      <point x="38" y="513"/>
      <point x="31" y="507"/>
      <point x="31" y="495" type="curve" smooth="yes"/>
    </contour>
    <contour>
      <point x="0" y="0" type="move" name="mark3"/>
    </contour>
    <contour>
      <point x="265" y="522" type="move" name="mark2"/>
    </contour>
    <contour>
      <point x="246" y="-195" type="move" name="mark1"/>
    </contour>
    <contour>
      <point x="0" y="0" type="move" name="mark4"/>
    </contour>
    <contour>
      <point x="0" y="0" type="move" name="mark0"/>
    </contour>
  </outline>
</glyph>
<glyph name="z" format="1">
  <advance width="471"/>
  <unicode hex="007A"/>
  <outline>
    <contour>
      <point x="25" y="24" type="line" smooth="yes"/>
      <point x="25" y="8"/>
      <point x="35" y="0"/>
      <point x="55" y="0" type="curve" smooth="yes"/>
      <point x="416" y="0" type="line" smooth="yes"/>
      <point x="435" y="0"/>
      <point x="445" y="8"/>
      <point x="445" y="24" type="curve" smooth="yes"/>
      <point x="445" y="73" type="line" smooth="yes"/>
      <point x="445" y="90"/>
      <point x="435" y="98"/>
      <point x="416" y="98" type="curve" smooth="yes"/>
      <point x="231" y="98" type="line"/>
      <point x="192" y="98" type="line"/>
      <point x="192" y="98" type="line"/>
      <point x="413" y="401" type="line" smooth="yes"/>
      <point x="427" y="420"/>
      <point x="434" y="438"/>
      <point x="434" y="454" type="curve" smooth="yes"/>
      <point x="434" y="488" type="line" smooth="yes"/>
      <point x="434" y="505"/>
      <point x="424" y="513"/>
      <point x="404" y="513" type="curve" smooth="yes"/>
      <point x="66" y="513" type="line" smooth="yes"/>
      <point x="47" y="513"/>
      <point x="37" y="494"/>
      <point x="37" y="455" type="curve" smooth="yes"/>
      <point x="37" y="439" type="line" smooth="yes"/>
      <point x="37" y="423"/>
      <point x="47" y="415"/>
      <point x="66" y="415" type="curve" smooth="yes"/>
      <point x="225" y="415" type="line" smooth="yes"/>
      <point x="234" y="415"/>
      <point x="247" y="416"/>
      <point x="264" y="417" type="curve"/>
      <point x="264" y="415" type="line"/>
      <point x="45" y="114" type="line" smooth="yes"/>
      <point x="32" y="95"/>
      <point x="25" y="78"/>
      <point x="25" y="62" type="curve" smooth="yes"/>
    </contour>
    <contour>
      <point x="0" y="0" type="move" name="mark3"/>
    </contour>
    <contour>
      <point x="246" y="522" type="move" name="mark2"/>
    </contour>
    <contour>
      <point x="235" y="0" type="move" name="mark1"/>
    </contour>
    <contour>
      <point x="0" y="0" type="move" name="mark4"/>
    </contour>
    <contour>
      <point x="0" y="0" type="move" name="mark0"/>
    </contour>
  </outline>
</glyph>
<glyph name="braceleft" format="1">
  <advance width="405"/>
  <unicode hex="007B"/>
  <outline>
    <contour>
      <point x="42" y="246" type="line" smooth="yes"/>
      <point x="42" y="184"/>
      <point x="149" y="262"/>
      <point x="149" y="77" type="curve" smooth="yes"/>
      <point x="149" y="-63" type="line" smooth="yes"/>
      <point x="149" y="-167"/>
      <point x="175" y="-199"/>
      <point x="348" y="-199" type="curve" smooth="yes"/>
      <point x="367" y="-199"/>
      <point x="377" y="-191"/>
      <point x="377" y="-175" type="curve" smooth="yes"/>
      <point x="377" y="-126" type="line" smooth="yes"/>
      <point x="377" y="-91"/>
      <point x="302" y="-108"/>
      <point x="293" y="-79" type="curve" smooth="yes"/>
      <point x="288" y="-64"/>
      <point x="286" y="-46"/>
      <point x="286" y="-25" type="curve" smooth="yes"/>
      <point x="286" y="100" type="line" smooth="yes"/>
      <point x="286" y="208"/>
      <point x="236" y="249"/>
      <point x="168" y="265" type="curve"/>
      <point x="168" y="266" type="line"/>
      <point x="233" y="281"/>
      <point x="286" y="320"/>
      <point x="286" y="432" type="curve" smooth="yes"/>
      <point x="286" y="556" type="line" smooth="yes"/>
      <point x="286" y="601"/>
      <point x="285" y="633"/>
      <point x="348" y="633" type="curve" smooth="yes"/>
      <point x="367" y="633"/>
      <point x="377" y="641"/>
      <point x="377" y="657" type="curve" smooth="yes"/>
      <point x="377" y="706" type="line" smooth="yes"/>
      <point x="377" y="722"/>
      <point x="367" y="730"/>
      <point x="348" y="730" type="curve" smooth="yes"/>
      <point x="177" y="730"/>
      <point x="149" y="701"/>
      <point x="149" y="594" type="curve" smooth="yes"/>
      <point x="149" y="455" type="line" smooth="yes"/>
      <point x="149" y="264"/>
      <point x="42" y="346"/>
      <point x="42" y="286" type="curve" smooth="yes"/>
    </contour>
  </outline>
</glyph>
<glyph name="braceright" format="1">
  <advance width="405"/>
  <unicode hex="007D"/>
  <outline>
    <contour>
      <point x="27" y="-175" type="line" smooth="yes"/>
      <point x="27" y="-191"/>
      <point x="37" y="-199"/>
      <point x="57" y="-199" type="curve" smooth="yes"/>
      <point x="224" y="-199"/>
      <point x="256" y="-170"/>
      <point x="256" y="-63" type="curve" smooth="yes"/>
      <point x="256" y="77" type="line" smooth="yes"/>
      <point x="256" y="268"/>
      <point x="363" y="184"/>
      <point x="363" y="246" type="curve" smooth="yes"/>
      <point x="363" y="286" type="line" smooth="yes"/>
      <point x="363" y="345"/>
      <point x="256" y="267"/>
      <point x="256" y="455" type="curve" smooth="yes"/>
      <point x="256" y="594" type="line" smooth="yes"/>
      <point x="256" y="702"/>
      <point x="225" y="730"/>
      <point x="57" y="730" type="curve" smooth="yes"/>
      <point x="37" y="730"/>
      <point x="27" y="722"/>
      <point x="27" y="706" type="curve" smooth="yes"/>
      <point x="27" y="657" type="line" smooth="yes"/>
      <point x="27" y="641"/>
      <point x="37" y="633"/>
      <point x="57" y="633" type="curve" smooth="yes"/>
      <point x="116" y="633"/>
      <point x="119" y="603"/>
      <point x="119" y="556" type="curve" smooth="yes"/>
      <point x="119" y="432" type="line" smooth="yes"/>
      <point x="119" y="320"/>
      <point x="172" y="281"/>
      <point x="237" y="266" type="curve"/>
      <point x="237" y="265" type="line"/>
      <point x="169" y="249"/>
      <point x="119" y="208"/>
      <point x="119" y="100" type="curve" smooth="yes"/>
      <point x="119" y="-25" type="line" smooth="yes"/>
      <point x="119" y="-69"/>
      <point x="118" y="-102"/>
      <point x="57" y="-102" type="curve" smooth="yes"/>
      <point x="37" y="-102"/>
      <point x="27" y="-110"/>
      <point x="27" y="-126" type="curve" smooth="yes"/>
    </contour>
  </outline>
</glyph>
<glyph name="asciitilde" format="1">
  <advance width="625"/>
  <unicode hex="007E"/>
  <outline>
    <contour>
      <point x="45" y="318"/>
      <point x="49" y="313"/>
      <point x="56" y="310" type="curve"/>
      <point x="88" y="292" type="line" smooth="yes"/>
      <point x="90" y="291"/>
      <point x="92" y="290"/>
      <point x="94" y="290" type="curve" smooth="yes"/>
      <point x="105" y="290"/>
      <point x="127" y="330"/>
      <point x="143" y="344" type="curve" smooth="yes"/>
      <point x="154" y="354"/>
      <point x="172" y="359"/>
      <point x="196" y="359" type="curve" smooth="yes"/>
      <point x="221" y="359"/>
      <point x="254" y="342"/>
      <point x="297" y="308" type="curve" smooth="yes"/>
      <point x="340" y="273"/>
      <point x="381" y="256"/>
      <point x="425" y="256" type="curve" smooth="yes"/>
      <point x="519" y="256"/>
      <point x="563" y="293"/>
      <point x="591" y="372" type="curve" smooth="yes"/>
      <point x="592" y="375"/>
      <point x="593" y="378"/>
      <point x="593" y="383" type="curve" smooth="yes"/>
      <point x="593" y="390"/>
      <point x="590" y="395"/>
      <point x="583" y="398" type="curve"/>
      <point x="551" y="416" type="line" smooth="yes"/>
      <point x="549" y="417"/>
      <point x="547" y="418"/>
      <point x="544" y="418" type="curve" smooth="yes"/>
      <point x="518" y="418"/>
      <point x="519" y="349"/>
      <point x="443" y="349" type="curve" smooth="yes"/>
      <point x="418" y="349"/>
      <point x="384" y="366"/>
      <point x="342" y="400" type="curve" smooth="yes"/>
      <point x="298" y="435"/>
      <point x="257" y="452"/>
      <point x="214" y="452" type="curve" smooth="yes"/>
      <point x="120" y="452"/>
      <point x="77" y="416"/>
      <point x="47" y="336" type="curve"/>
      <point x="46" y="331"/>
      <point x="45" y="327"/>
      <point x="45" y="326" type="curve"/>
    </contour>
  </outline>
</glyph>
<glyph name="exclamdown" format="1">
  <advance width="326"/>
  <unicode hex="00A1"/>
  <outline>
    <contour>
      <point x="93" y="411" type="line" smooth="yes"/>
      <point x="93" y="386"/>
      <point x="104" y="374"/>
      <point x="127" y="374" type="curve" smooth="yes"/>
      <point x="201" y="374" type="line" smooth="yes"/>
      <point x="224" y="374"/>
      <point x="235" y="386"/>
      <point x="235" y="411" type="curve" smooth="yes"/>
      <point x="235" y="476" type="line" smooth="yes"/>
      <point x="235" y="501"/>
      <point x="224" y="513"/>
      <point x="201" y="513" type="curve" smooth="yes"/>
      <point x="127" y="513" type="line" smooth="yes"/>
      <point x="104" y="513"/>
      <point x="93" y="501"/>
      <point x="93" y="476" type="curve" smooth="yes"/>
    </contour>
    <contour>
      <point x="91" y="-151" type="line" smooth="yes"/>
      <point x="90" y="-176"/>
      <point x="101" y="-188"/>
      <point x="125" y="-188" type="curve" smooth="yes"/>
      <point x="203" y="-188" type="line" smooth="yes"/>
      <point x="227" y="-188"/>
      <point x="238" y="-176"/>
      <point x="237" y="-151" type="curve" smooth="yes"/>
      <point x="224" y="276" type="line" smooth="yes"/>
      <point x="223" y="297"/>
      <point x="213" y="308"/>
      <point x="192" y="308" type="curve" smooth="yes"/>
      <point x="136" y="308" type="line" smooth="yes"/>
      <point x="114" y="308"/>
      <point x="105" y="297"/>
      <point x="104" y="276" type="curve" smooth="yes"/>
    </contour>
  </outline>
</glyph>
<glyph name="cent" format="1">
  <advance width="586"/>
  <unicode hex="00A2"/>
  <outline>
    <contour>
      <point x="85" y="402"/>
      <point x="66" y="339"/>
      <point x="66" y="256" type="curve" smooth="yes"/>
      <point x="66" y="91"/>
      <point x="145" y="7"/>
      <point x="276" y="-7" type="curve"/>
      <point x="276" y="-93" type="line" smooth="yes"/>
      <point x="276" y="-112"/>
      <point x="284" y="-122"/>
      <point x="301" y="-122" type="curve" smooth="yes"/>
      <point x="340" y="-122" type="line" smooth="yes"/>
      <point x="356" y="-122"/>
      <point x="364" y="-112"/>
      <point x="364" y="-93" type="curve" smooth="yes"/>
      <point x="364" y="-8" type="line"/>
      <point x="458" y="2"/>
      <point x="526" y="62"/>
      <point x="526" y="95" type="curve" smooth="yes"/>
      <point x="526" y="104"/>
      <point x="522" y="111"/>
      <point x="515" y="116" type="curve" smooth="yes"/>
      <point x="470" y="152" type="line" smooth="yes"/>
      <point x="465" y="157"/>
      <point x="459" y="159"/>
      <point x="453" y="159" type="curve" smooth="yes"/>
      <point x="445" y="159"/>
      <point x="438" y="155"/>
      <point x="431" y="146" type="curve" smooth="yes"/>
      <point x="408" y="119"/>
      <point x="386" y="101"/>
      <point x="364" y="92" type="curve"/>
      <point x="364" y="419" type="line"/>
      <point x="389" y="414"/>
      <point x="418" y="369"/>
      <point x="434" y="369" type="curve" smooth="yes"/>
      <point x="440" y="369"/>
      <point x="445" y="371"/>
      <point x="449" y="374" type="curve" smooth="yes"/>
      <point x="501" y="408" type="line" smooth="yes"/>
      <point x="508" y="413"/>
      <point x="512" y="420"/>
      <point x="512" y="427" type="curve" smooth="yes"/>
      <point x="512" y="432"/>
      <point x="510" y="438"/>
      <point x="506" y="444" type="curve" smooth="yes"/>
      <point x="474" y="493"/>
      <point x="428" y="514"/>
      <point x="364" y="521" type="curve"/>
      <point x="364" y="605" type="line" smooth="yes"/>
      <point x="364" y="625"/>
      <point x="356" y="635"/>
      <point x="340" y="635" type="curve" smooth="yes"/>
      <point x="301" y="635" type="line" smooth="yes"/>
      <point x="284" y="635"/>
      <point x="276" y="625"/>
      <point x="276" y="605" type="curve" smooth="yes"/>
      <point x="276" y="520" type="line"/>
      <point x="212" y="513"/>
      <point x="161" y="488"/>
      <point x="123" y="445" type="curve" smooth="yes"/>
    </contour>
    <contour>
      <point x="218" y="153"/>
      <point x="211" y="194"/>
      <point x="211" y="256" type="curve" smooth="yes"/>
      <point x="211" y="385"/>
      <point x="248" y="408"/>
      <point x="276" y="419" type="curve"/>
      <point x="276" y="94" type="line"/>
      <point x="261" y="100"/>
      <point x="246" y="113"/>
      <point x="232" y="133" type="curve" smooth="yes"/>
    </contour>
  </outline>
</glyph>
<glyph name="sterling" format="1">
  <advance width="586"/>
  <unicode hex="00A3"/>
  <outline>
    <contour>
      <point x="34" y="32" type="line" smooth="yes"/>
      <point x="34" y="11"/>
      <point x="46" y="0"/>
      <point x="71" y="0" type="curve" smooth="yes"/>
      <point x="512" y="0" type="line" smooth="yes"/>
      <point x="537" y="0"/>
      <point x="549" y="11"/>
      <point x="549" y="32" type="curve" smooth="yes"/>
      <point x="549" y="89" type="line" smooth="yes"/>
      <point x="549" y="110"/>
      <point x="537" y="121"/>
      <point x="512" y="121" type="curve" smooth="yes"/>
      <point x="268" y="121" type="line" smooth="yes"/>
      <point x="249" y="121"/>
      <point x="232" y="120"/>
      <point x="219" y="119" type="curve"/>
      <point x="219" y="122" type="line"/>
      <point x="243" y="146"/>
      <point x="254" y="183"/>
      <point x="254" y="242" type="curve" smooth="yes"/>
      <point x="254" y="285" type="line"/>
      <point x="370" y="285" type="line" smooth="yes"/>
      <point x="391" y="285"/>
      <point x="401" y="295"/>
      <point x="401" y="316" type="curve" smooth="yes"/>
      <point x="401" y="374" type="line" smooth="yes"/>
      <point x="401" y="395"/>
      <point x="391" y="406"/>
      <point x="370" y="406" type="curve" smooth="yes"/>
      <point x="254" y="406" type="line"/>
      <point x="254" y="493" type="line" smooth="yes"/>
      <point x="254" y="566"/>
      <point x="285" y="602"/>
      <point x="346" y="602" type="curve" smooth="yes"/>
      <point x="386" y="602"/>
      <point x="418" y="589"/>
      <point x="443" y="564" type="curve" smooth="yes"/>
      <point x="452" y="555"/>
      <point x="460" y="551"/>
      <point x="467" y="551" type="curve" smooth="yes"/>
      <point x="474" y="551"/>
      <point x="482" y="555"/>
      <point x="489" y="564" type="curve" smooth="yes"/>
      <point x="523" y="605" type="line"/>
      <point x="526" y="610"/>
      <point x="528" y="614"/>
      <point x="528" y="617" type="curve" smooth="yes"/>
      <point x="528" y="626"/>
      <point x="523" y="635"/>
      <point x="513" y="646" type="curve" smooth="yes"/>
      <point x="469" y="691"/>
      <point x="415" y="711"/>
      <point x="347" y="711" type="curve" smooth="yes"/>
      <point x="212" y="711"/>
      <point x="117" y="642"/>
      <point x="117" y="475" type="curve" smooth="yes"/>
      <point x="117" y="406" type="line"/>
      <point x="68" y="406" type="line" smooth="yes"/>
      <point x="47" y="406"/>
      <point x="37" y="395"/>
      <point x="37" y="374" type="curve" smooth="yes"/>
      <point x="37" y="316" type="line" smooth="yes"/>
      <point x="37" y="295"/>
      <point x="47" y="285"/>
      <point x="68" y="285" type="curve" smooth="yes"/>
      <point x="117" y="285" type="line"/>
      <point x="117" y="239" type="line" smooth="yes"/>
      <point x="117" y="156"/>
      <point x="94" y="140"/>
      <point x="54" y="104" type="curve" smooth="yes"/>
      <point x="41" y="92"/>
      <point x="34" y="78"/>
      <point x="34" y="61" type="curve" smooth="yes"/>
    </contour>
  </outline>
</glyph>
<glyph name="currency" format="1">
  <advance width="586"/>
  <unicode hex="00A4"/>
  <outline>
    <contour>
      <point x="52" y="145"/>
      <point x="55" y="140"/>
      <point x="60" y="135" type="curve" smooth="yes"/>
      <point x="90" y="106" type="line" smooth="yes"/>
      <point x="95" y="101"/>
      <point x="101" y="99"/>
      <point x="106" y="99" type="curve" smooth="yes"/>
      <point x="114" y="99"/>
      <point x="121" y="103"/>
      <point x="128" y="111" type="curve" smooth="yes"/>
      <point x="185" y="171" type="line"/>
      <point x="221" y="144"/>
      <point x="263" y="131"/>
      <point x="311" y="131" type="curve" smooth="yes"/>
      <point x="358" y="131"/>
      <point x="400" y="144"/>
      <point x="437" y="171" type="curve"/>
      <point x="493" y="111" type="line" smooth="yes"/>
      <point x="500" y="103"/>
      <point x="508" y="99"/>
      <point x="515" y="99" type="curve" smooth="yes"/>
      <point x="521" y="99"/>
      <point x="526" y="101"/>
      <point x="531" y="106" type="curve" smooth="yes"/>
      <point x="562" y="135" type="line" smooth="yes"/>
      <point x="567" y="140"/>
      <point x="570" y="146"/>
      <point x="570" y="151" type="curve" smooth="yes"/>
      <point x="570" y="157"/>
      <point x="566" y="164"/>
      <point x="559" y="173" type="curve"/>
      <point x="498" y="239" type="line"/>
      <point x="518" y="274"/>
      <point x="528" y="313"/>
      <point x="528" y="355" type="curve" smooth="yes"/>
      <point x="528" y="398"/>
      <point x="518" y="437"/>
      <point x="498" y="472" type="curve"/>
      <point x="559" y="538" type="line"/>
      <point x="566" y="547"/>
      <point x="570" y="554"/>
      <point x="570" y="560" type="curve" smooth="yes"/>
      <point x="570" y="565"/>
      <point x="567" y="571"/>
      <point x="562" y="576" type="curve" smooth="yes"/>
      <point x="531" y="605" type="line" smooth="yes"/>
      <point x="526" y="610"/>
      <point x="521" y="612"/>
      <point x="515" y="612" type="curve" smooth="yes"/>
      <point x="508" y="612"/>
      <point x="500" y="608"/>
      <point x="493" y="600" type="curve" smooth="yes"/>
      <point x="437" y="540" type="line"/>
      <point x="400" y="567"/>
      <point x="358" y="580"/>
      <point x="311" y="580" type="curve" smooth="yes"/>
      <point x="263" y="580"/>
      <point x="221" y="567"/>
      <point x="185" y="540" type="curve"/>
      <point x="128" y="600" type="line" smooth="yes"/>
      <point x="121" y="608"/>
      <point x="113" y="612"/>
      <point x="106" y="612" type="curve" smooth="yes"/>
      <point x="101" y="612"/>
      <point x="95" y="610"/>
      <point x="90" y="605" type="curve" smooth="yes"/>
      <point x="60" y="576" type="line" smooth="yes"/>
      <point x="55" y="571"/>
      <point x="52" y="566"/>
      <point x="52" y="559" type="curve" smooth="yes"/>
      <point x="52" y="552"/>
      <point x="55" y="545"/>
      <point x="62" y="538" type="curve" smooth="yes"/>
      <point x="124" y="472" type="line"/>
      <point x="103" y="436"/>
      <point x="93" y="397"/>
      <point x="93" y="355" type="curve" smooth="yes"/>
      <point x="93" y="314"/>
      <point x="103" y="275"/>
      <point x="124" y="239" type="curve"/>
      <point x="62" y="173" type="line" smooth="yes"/>
      <point x="55" y="166"/>
      <point x="52" y="159"/>
      <point x="52" y="152" type="curve" smooth="yes"/>
    </contour>
    <contour>
      <point x="199" y="291"/>
      <point x="188" y="321"/>
      <point x="188" y="355" type="curve" smooth="yes"/>
      <point x="188" y="424"/>
      <point x="239" y="485"/>
      <point x="311" y="485" type="curve" smooth="yes"/>
      <point x="382" y="485"/>
      <point x="433" y="423"/>
      <point x="433" y="355" type="curve" smooth="yes"/>
      <point x="433" y="291"/>
      <point x="385" y="226"/>
      <point x="311" y="226" type="curve" smooth="yes"/>
      <point x="275" y="226"/>
      <point x="245" y="239"/>
      <point x="222" y="264" type="curve" smooth="yes"/>
    </contour>
  </outline>
</glyph>
<glyph name="yen" format="1">
  <advance width="586"/>
  <unicode hex="00A5"/>
  <outline>
    <contour>
      <point x="23" y="676"/>
      <point x="26" y="668"/>
      <point x="32" y="658" type="curve" smooth="yes"/>
      <point x="202" y="375" type="line"/>
      <point x="127" y="375" type="line" smooth="yes"/>
      <point x="108" y="375"/>
      <point x="98" y="365"/>
      <point x="98" y="346" type="curve" smooth="yes"/>
      <point x="98" y="303" type="line" smooth="yes"/>
      <point x="98" y="283"/>
      <point x="108" y="273"/>
      <point x="127" y="273" type="curve" smooth="yes"/>
      <point x="250" y="273" type="line"/>
      <point x="250" y="191" type="line"/>
      <point x="127" y="191" type="line" smooth="yes"/>
      <point x="108" y="191"/>
      <point x="98" y="181"/>
      <point x="98" y="162" type="curve" smooth="yes"/>
      <point x="98" y="119" type="line" smooth="yes"/>
      <point x="98" y="99"/>
      <point x="108" y="89"/>
      <point x="127" y="89" type="curve" smooth="yes"/>
      <point x="250" y="89" type="line"/>
      <point x="250" y="29" type="line" smooth="yes"/>
      <point x="250" y="10"/>
      <point x="260" y="0"/>
      <point x="279" y="0" type="curve" smooth="yes"/>
      <point x="357" y="0" type="line" smooth="yes"/>
      <point x="377" y="0"/>
      <point x="387" y="10"/>
      <point x="387" y="29" type="curve" smooth="yes"/>
      <point x="387" y="89" type="line"/>
      <point x="510" y="89" type="line" smooth="yes"/>
      <point x="529" y="89"/>
      <point x="539" y="99"/>
      <point x="539" y="119" type="curve" smooth="yes"/>
      <point x="539" y="162" type="line" smooth="yes"/>
      <point x="539" y="181"/>
      <point x="529" y="191"/>
      <point x="510" y="191" type="curve" smooth="yes"/>
      <point x="387" y="191" type="line"/>
      <point x="387" y="273" type="line"/>
      <point x="510" y="273" type="line" smooth="yes"/>
      <point x="529" y="273"/>
      <point x="539" y="283"/>
      <point x="539" y="303" type="curve" smooth="yes"/>
      <point x="539" y="346" type="line" smooth="yes"/>
      <point x="539" y="365"/>
      <point x="529" y="375"/>
      <point x="510" y="375" type="curve" smooth="yes"/>
      <point x="435" y="375" type="line"/>
      <point x="605" y="658" type="line" smooth="yes"/>
      <point x="611" y="668"/>
      <point x="614" y="676"/>
      <point x="614" y="682" type="curve" smooth="yes"/>
      <point x="614" y="694"/>
      <point x="603" y="700"/>
      <point x="582" y="700" type="curve" smooth="yes"/>
      <point x="506" y="700" type="line" smooth="yes"/>
      <point x="489" y="700"/>
      <point x="472" y="689"/>
      <point x="461" y="667" type="curve" smooth="yes"/>
      <point x="370" y="485" type="line" smooth="yes"/>
      <point x="345" y="436"/>
      <point x="325" y="417"/>
      <point x="319" y="365" type="curve"/>
      <point x="317" y="365" type="line"/>
      <point x="312" y="417"/>
      <point x="284" y="451"/>
      <point x="267" y="485" type="curve" smooth="yes"/>
      <point x="175" y="667" type="line" smooth="yes"/>
      <point x="164" y="689"/>
      <point x="149" y="700"/>
      <point x="130" y="700" type="curve" smooth="yes"/>
      <point x="55" y="700" type="line" smooth="yes"/>
      <point x="34" y="700"/>
      <point x="23" y="694"/>
      <point x="23" y="682" type="curve" smooth="yes"/>
    </contour>
  </outline>
</glyph>
<glyph name="section" format="1">
  <advance width="604"/>
  <unicode hex="00A7"/>
  <outline>
    <contour>
      <point x="64" y="368"/>
      <point x="51" y="334"/>
      <point x="51" y="293" type="curve" smooth="yes"/>
      <point x="51" y="230"/>
      <point x="97" y="167"/>
      <point x="189" y="105" type="curve" smooth="yes"/>
      <point x="281" y="43"/>
      <point x="327" y="-6"/>
      <point x="327" y="-42" type="curve" smooth="yes"/>
      <point x="327" y="-74"/>
      <point x="307" y="-89"/>
      <point x="282" y="-89" type="curve" smooth="yes"/>
      <point x="251" y="-89"/>
      <point x="231" y="-77"/>
      <point x="210" y="-56" type="curve" smooth="yes"/>
      <point x="203" y="-49"/>
      <point x="196" y="-45"/>
      <point x="191" y="-45" type="curve" smooth="yes"/>
      <point x="187" y="-45"/>
      <point x="183" y="-47"/>
      <point x="180" y="-51" type="curve" smooth="yes"/>
      <point x="140" y="-91" type="line" smooth="yes"/>
      <point x="136" y="-95"/>
      <point x="134" y="-99"/>
      <point x="134" y="-104" type="curve" smooth="yes"/>
      <point x="134" y="-125"/>
      <point x="180" y="-157"/>
      <point x="205" y="-169" type="curve" smooth="yes"/>
      <point x="228" y="-180"/>
      <point x="256" y="-185"/>
      <point x="289" y="-185" type="curve" smooth="yes"/>
      <point x="391" y="-185"/>
      <point x="466" y="-129"/>
      <point x="466" y="-32" type="curve" smooth="yes"/>
      <point x="466" y="-2"/>
      <point x="454" y="29"/>
      <point x="431" y="62" type="curve"/>
      <point x="490" y="105"/>
      <point x="553" y="159"/>
      <point x="553" y="239" type="curve" smooth="yes"/>
      <point x="553" y="302"/>
      <point x="507" y="365"/>
      <point x="415" y="427" type="curve" smooth="yes"/>
      <point x="322" y="489"/>
      <point x="276" y="538"/>
      <point x="276" y="574" type="curve" smooth="yes"/>
      <point x="276" y="606"/>
      <point x="295" y="621"/>
      <point x="322" y="621" type="curve" smooth="yes"/>
      <point x="353" y="621"/>
      <point x="371" y="611"/>
      <point x="394" y="588" type="curve" smooth="yes"/>
      <point x="401" y="581"/>
      <point x="407" y="578"/>
      <point x="412" y="578" type="curve" smooth="yes"/>
      <point x="416" y="578"/>
      <point x="420" y="580"/>
      <point x="423" y="583" type="curve" smooth="yes"/>
      <point x="464" y="624" type="line" smooth="yes"/>
      <point x="468" y="628"/>
      <point x="470" y="632"/>
      <point x="470" y="637" type="curve" smooth="yes"/>
      <point x="470" y="658"/>
      <point x="425" y="688"/>
      <point x="398" y="701" type="curve" smooth="yes"/>
      <point x="374" y="712"/>
      <point x="347" y="717"/>
      <point x="314" y="717" type="curve" smooth="yes"/>
      <point x="212" y="717"/>
      <point x="138" y="660"/>
      <point x="138" y="564" type="curve" smooth="yes"/>
      <point x="138" y="533"/>
      <point x="149" y="502"/>
      <point x="172" y="471" type="curve"/>
      <point x="140" y="446"/>
      <point x="112" y="421"/>
      <point x="89" y="395" type="curve" smooth="yes"/>
    </contour>
    <contour>
      <point x="199" y="251"/>
      <point x="169" y="286"/>
      <point x="169" y="315" type="curve" smooth="yes"/>
      <point x="169" y="339"/>
      <point x="176" y="360"/>
      <point x="192" y="374" type="curve" smooth="yes"/>
      <point x="231" y="408" type="line"/>
      <point x="245" y="396"/>
      <point x="283" y="367"/>
      <point x="345" y="323" type="curve" smooth="yes"/>
      <point x="405" y="280"/>
      <point x="435" y="246"/>
      <point x="435" y="217" type="curve" smooth="yes"/>
      <point x="435" y="192"/>
      <point x="427" y="172"/>
      <point x="411" y="158" type="curve" smooth="yes"/>
      <point x="373" y="124" type="line"/>
      <point x="349" y="144"/>
      <point x="311" y="172"/>
      <point x="258" y="209" type="curve" smooth="yes"/>
    </contour>
  </outline>
</glyph>
<glyph name="dieresis" format="1">
  <advance width="424"/>
  <unicode hex="00A8"/>
  <outline>
    <contour>
      <point x="50" y="618" type="line" smooth="yes"/>
      <point x="50" y="599"/>
      <point x="60" y="589"/>
      <point x="80" y="589" type="curve" smooth="yes"/>
      <point x="136" y="589" type="line" smooth="yes"/>
      <point x="156" y="589"/>
      <point x="166" y="599"/>
      <point x="166" y="618" type="curve" smooth="yes"/>
      <point x="166" y="675" type="line" smooth="yes"/>
      <point x="166" y="694"/>
      <point x="156" y="704"/>
      <point x="136" y="704" type="curve" smooth="yes"/>
      <point x="80" y="704" type="line" smooth="yes"/>
      <point x="60" y="704"/>
      <point x="50" y="694"/>
      <point x="50" y="675" type="curve" smooth="yes"/>
    </contour>
    <contour>
      <point x="258" y="618" type="line" smooth="yes"/>
      <point x="258" y="599"/>
      <point x="268" y="589"/>
      <point x="288" y="589" type="curve" smooth="yes"/>
      <point x="344" y="589" type="line" smooth="yes"/>
      <point x="364" y="589"/>
      <point x="374" y="599"/>
      <point x="374" y="618" type="curve" smooth="yes"/>
      <point x="374" y="675" type="line" smooth="yes"/>
      <point x="374" y="694"/>
      <point x="364" y="704"/>
      <point x="344" y="704" type="curve" smooth="yes"/>
      <point x="288" y="704" type="line" smooth="yes"/>
      <point x="268" y="704"/>
      <point x="258" y="694"/>
      <point x="258" y="675" type="curve" smooth="yes"/>
    </contour>
  </outline>
</glyph>
<glyph name="copyright" format="1">
  <advance width="808"/>
  <unicode hex="00A9"/>
  <outline>
    <contour>
      <point x="47" y="446"/>
      <point x="37" y="399"/>
      <point x="37" y="350" type="curve" smooth="yes"/>
      <point x="37" y="154"/>
      <point x="200" y="-17"/>
      <point x="404" y="-17" type="curve" smooth="yes"/>
      <point x="610" y="-17"/>
      <point x="771" y="158"/>
      <point x="771" y="350" type="curve" smooth="yes"/>
      <point x="771" y="522"/>
      <point x="633" y="717"/>
      <point x="404" y="717" type="curve" smooth="yes"/>
      <point x="249" y="717"/>
      <point x="119" y="618"/>
      <point x="66" y="492" type="curve" smooth="yes"/>
    </contour>
    <contour>
      <point x="128" y="187"/>
      <point x="94" y="267"/>
      <point x="94" y="350" type="curve" smooth="yes"/>
      <point x="94" y="512"/>
      <point x="226" y="662"/>
      <point x="404" y="662" type="curve" smooth="yes"/>
      <point x="569" y="662"/>
      <point x="714" y="521"/>
      <point x="714" y="350" type="curve" smooth="yes"/>
      <point x="714" y="190"/>
      <point x="583" y="38"/>
      <point x="404" y="38" type="curve" smooth="yes"/>
      <point x="314" y="38"/>
      <point x="232" y="80"/>
      <point x="185" y="131" type="curve"/>
    </contour>
    <contour>
      <point x="226" y="466"/>
      <point x="209" y="415"/>
      <point x="209" y="350" type="curve" smooth="yes"/>
      <point x="209" y="220"/>
      <point x="280" y="137"/>
      <point x="402" y="137" type="curve" smooth="yes"/>
      <point x="473" y="137"/>
      <point x="532" y="165"/>
      <point x="557" y="205" type="curve" smooth="yes"/>
      <point x="560" y="210"/>
      <point x="562" y="215"/>
      <point x="562" y="219" type="curve" smooth="yes"/>
      <point x="562" y="225"/>
      <point x="559" y="230"/>
      <point x="554" y="233" type="curve" smooth="yes"/>
      <point x="517" y="258" type="line"/>
      <point x="514" y="261"/>
      <point x="511" y="262"/>
      <point x="507" y="262" type="curve" smooth="yes"/>
      <point x="488" y="262"/>
      <point x="470" y="206"/>
      <point x="405" y="206" type="curve" smooth="yes"/>
      <point x="324" y="206"/>
      <point x="300" y="258"/>
      <point x="300" y="350" type="curve" smooth="yes"/>
      <point x="300" y="442"/>
      <point x="324" y="494"/>
      <point x="405" y="494" type="curve" smooth="yes"/>
      <point x="462" y="494"/>
      <point x="482" y="446"/>
      <point x="495" y="446" type="curve" smooth="yes"/>
      <point x="498" y="446"/>
      <point x="502" y="447"/>
      <point x="507" y="450" type="curve" smooth="yes"/>
      <point x="544" y="471" type="line" smooth="yes"/>
      <point x="549" y="474"/>
      <point x="552" y="478"/>
      <point x="552" y="483" type="curve" smooth="yes"/>
      <point x="552" y="535"/>
      <point x="474" y="563"/>
      <point x="402" y="563" type="curve" smooth="yes"/>
      <point x="339" y="563"/>
      <point x="292" y="544"/>
      <point x="259" y="505" type="curve" smooth="yes"/>
    </contour>
  </outline>
</glyph>
